<?xml version="1.0" standalone="no"?>
<!DOCTYPE svg PUBLIC "-//W3C//DTD SVG 20010904//EN"
 "http://www.w3.org/TR/2001/REC-SVG-20010904/DTD/svg10.dtd">
<svg version="1.0" xmlns="http://www.w3.org/2000/svg"
 width="120.000000pt" height="120.000000pt" viewBox="0 0 120.000000 120.000000"
 preserveAspectRatio="xMidYMid meet">

<g transform="translate(0.000000,120.000000) scale(0.100000,-0.100000)"
fill="#000000" stroke="none">
<path d="M500 1153 c-57 -9 -150 -46 -201 -78 l-54 -34 71 -1 c139 0 269 -41
346 -109 50 -44 88 -125 95 -202 l6 -62 27 59 c32 71 81 120 132 136 46 14
104 -6 172 -58 l46 -35 -11 28 c-29 77 -78 149 -141 208 -77 73 -158 118 -250
140 -59 14 -180 18 -238 8z"/>
<path d="M168 958 c-84 -104 -117 -193 -125 -328 -9 -165 43 -312 152 -424 47
-49 144 -121 152 -112 2 1 -12 32 -31 68 -42 81 -71 203 -62 261 15 94 76 175
169 225 l42 22 -75 0 c-84 0 -136 22 -174 73 -25 34 -35 156 -16 212 7 20 10
39 7 41 -3 3 -20 -14 -39 -38z"/>
<path d="M313 968 c-12 -6 -29 -25 -37 -43 -48 -100 77 -193 155 -116 23 24
29 38 29 74 0 38 -5 49 -31 71 -33 28 -77 33 -116 14z"/>
<path d="M899 741 c-60 -61 -27 -156 58 -168 39 -5 46 -2 78 30 39 39 44 70
20 117 -31 59 -107 69 -156 21z"/>
<path d="M1142 631 c-37 -84 -158 -206 -242 -245 -72 -33 -169 -29 -248 10
-34 17 -62 30 -62 28 0 -1 16 -25 35 -54 68 -102 68 -179 -2 -240 -37 -33
-112 -70 -141 -70 -12 0 -13 -3 -5 -11 18 -18 209 -15 278 5 150 44 281 152
347 286 46 92 60 155 56 249 -3 69 -4 70 -16 42z"/>
<path d="M421 334 c-27 -22 -31 -32 -31 -72 1 -50 12 -72 47 -90 36 -20 79
-14 112 14 26 22 31 33 31 71 0 90 -91 135 -159 77z"/>
</g>
</svg>
