<?xml version="1.0" standalone="no"?><!DOCTYPE svg PUBLIC "-//W3C//DTD SVG 1.1//EN" "http://www.w3.org/Graphics/SVG/1.1/DTD/svg11.dtd"><svg t="1728268627556" class="icon" viewBox="0 0 1024 1024" version="1.1" xmlns="http://www.w3.org/2000/svg" p-id="9694" xmlns:xlink="http://www.w3.org/1999/xlink" width="32" height="32"><path d="M850.3 156H173.7c-18.8 0-34.2 15.4-34.2 34.2v105.9c0-18.8 15.4-34.2 34.2-34.2h676.7c18.8 0 34.2 15.4 34.2 34.2V190.2c-0.1-18.8-15.5-34.2-34.3-34.2z" fill="#FF9700" p-id="9695"></path><path d="M850.3 261.9H173.7c-18.8 0-34.2 15.4-34.2 34.2v537.7c0 18.8 15.4 34.2 34.2 34.2h676.7c18.8 0 34.2-15.4 34.2-34.2V296.1c-0.1-18.8-15.5-34.2-34.3-34.2zM759 399.6c0 66-25.7 128-72.3 174.7C640 620.9 578 646.6 512 646.6c-66 0-128-25.7-174.7-72.3-46.6-46.7-72.3-108.7-72.3-174.7v-7h44v7c0 111.9 91.1 203 203 203s203-91.1 203-203v-7h44v7z" fill="#E52E00" p-id="9696"></path></svg>