<?xml version="1.0" standalone="no"?><!DOCTYPE svg PUBLIC "-//W3C//DTD SVG 1.1//EN" "http://www.w3.org/Graphics/SVG/1.1/DTD/svg11.dtd"><svg t="1727336970499" class="icon" viewBox="0 0 1024 1024" version="1.1" xmlns="http://www.w3.org/2000/svg" p-id="2576" xmlns:xlink="http://www.w3.org/1999/xlink" width="16" height="16"><path d="M221.312 673.818h-44.493l20.25-51.61h69.094l-5.837 16.742h93.722v-9.65h173.03v310.322h-173.03v-160.46h-77.133l-1.638 10.188h54.349l20.07 150.605h-56.73l-17.69-150.605-23.142 150.605H177.92l26.266-160.793H177.74v-34.816h32.102l11.469-70.528z m72.013 0l-10.931 70.553h71.654v-70.553h-60.723z m132.915-9.498v240.486h28.62V664.32h-28.62z m223.744 242.842h255.053v32.307H570.266V749.517h-18.228V709.53h97.92v197.632z m-76.416-224.794l-16.589-60.314h74.573l18.202 60.314h-76.186z m232.474 0.358h86.425v214.042h-225.92V682.726h57.267l4.532-13.644h-74.573v-29.927h25.165l-6.196-17.331h77.492l6.195 17.331h41.011l6.758-17.331h77.492l-6.784 17.331h26.265v29.927h-90.393l-4.736 13.644z m6.732 29.901h-66.56v28.263h66.56v-28.263z m0 55.655h-66.56v31.488h66.56v-31.488z m0 98.61v-39.756h-66.56v39.757h66.56z" fill="#306CFF" p-id="2577"></path><path d="M504.397 368.333h30.592l-0.026 160.665c-17.945 0.077-35.865 0-53.811 0.052-5.76-0.18-11.622 0.486-17.306-0.845-12.006-2.458-22.553-9.959-30.003-19.533a55.168 55.168 0 0 1-10.624-24.627 84.147 84.147 0 0 1 0.077-27.981c2.944-10.189 8.218-19.738 15.77-27.213 6.297-6.297 14.13-10.982 22.604-13.645 3.405-1.05 6.938-1.945 10.548-1.894h32.128c0.076-15.027 0.076-29.978 0.05-44.98m-33.945 72.833c-6.195 2.841-11.98 7.347-14.925 13.645a53.248 53.248 0 0 0-3.174 17.203 35.328 35.328 0 0 0 6.144 20.173 25.293 25.293 0 0 0 21.427 10.905h24.525V439.22h-27.469c-2.304-0.051-4.454 1.075-6.528 1.946z m81.05-25.523h30.438c0.051 24.934 0 49.868 0.026 74.828a13.363 13.363 0 0 0 3.072 8.832 12.544 12.544 0 0 0 9.395 3.815h32.205c0-29.133 0.051-58.266 0-87.399 10.189-0.102 20.352-0.025 30.515-0.025v113.382c-24.678 0.051-49.331 0.026-73.984 0.026a37.709 37.709 0 0 1-21.606-8.807 30.976 30.976 0 0 1-10.138-23.936c0.077-26.905 0.051-53.81 0.077-80.716z" fill="#FCFBFF" p-id="2578"></path><path d="M490.931 102.912c9.37-1.613 19.149 0.87 27.008 6.067 12.263 8.064 20.378 21.197 25.011 34.867a99.584 99.584 0 0 1-1.433 66.535c-4.096 10.393-10.24 20.173-18.816 27.392a40.448 40.448 0 0 1-24.96 10.06 39.936 39.936 0 0 1-25.165-8.575c-11.418-8.858-18.867-21.94-23.066-35.559a99.251 99.251 0 0 1 1.92-62.669c4.532-11.904 11.75-23.142 22.17-30.694 5.12-3.712 11.06-6.4 17.331-7.424z m137.037 10.624c6.58-1.434 13.312 0.384 19.251 3.251 8.397 4.096 15.54 10.42 21.3 17.741 8.063 10.24 13.644 22.58 15.36 35.584 1.33 9.011-0.129 18.176-2.663 26.88a99.891 99.891 0 0 1-13.875 29.517 66.278 66.278 0 0 1-20.583 19.686 45.312 45.312 0 0 1-25.548 6.17c-10.88-0.717-21.863-4.455-29.901-12.007-8.064-7.526-12.647-18.048-14.746-28.723a110.925 110.925 0 0 1-0.819-34.432c1.46-10.137 5.734-19.635 10.931-28.365 5.479-9.062 12.237-17.433 20.327-24.243 6.041-5.12 13.107-9.472 20.966-11.059z m-246.17 97.28c9.933-1.792 20.378 0.282 29.159 5.171 13.005 7.168 23.04 18.944 29.542 32.18 2.611 5.452 4.634 11.315 5.197 17.382 1.613 15.232 1.306 30.925-3.098 45.696-2.97 10.035-8.243 19.61-16.179 26.573-9.805 8.73-23.065 12.902-36.07 13.132a44.646 44.646 0 0 1-29.799-11.059c-10.803-9.318-17.51-22.605-21.017-36.275-2.304-9.293-3.38-19.02-1.843-28.518 2.201-15.872 6.86-31.796 16-45.082 6.553-9.549 16.486-17.229 28.108-19.2z m319.744 35.072c11.802-1.46 24.295 0.128 34.868 5.94 9.728 5.298 17.382 13.926 22.476 23.705 4.276 8.14 7.194 17.05 7.988 26.214 0.41 13.107 0.614 26.368-2.125 39.245-1.92 9.011-5.3 17.894-11.11 25.14a41.549 41.549 0 0 1-21.837 14.156c-8.602 2.38-17.613 2.432-26.394 1.715-10.47-0.998-21.094-3.942-29.44-10.573a45.491 45.491 0 0 1-14.95-22.86c-3.687-11.879-4.02-24.423-3.815-36.71 0.41-12.852 2.202-25.908 7.347-37.838 3.84-8.857 10.061-16.972 18.458-21.964a46.848 46.848 0 0 1 18.534-6.17zM542.49 293.299a64.768 64.768 0 0 1 35.148 5.863c16.87 7.936 29.952 22.144 39.91 37.657 12.417 17.92 26.983 34.227 42.215 49.741a621.645 621.645 0 0 0 45.543 41.702c2.636 2.253 5.478 4.276 7.91 6.784a75.776 75.776 0 0 1 20.864 45.876c1.715 18.073-2.611 36.224-9.907 52.684-5.504 12.058-14.976 22.272-26.675 28.544-16.205 8.73-35.072 10.83-53.197 10.164a200.397 200.397 0 0 1-51.994-9.268 165.94 165.94 0 0 0-63.078-4.608c-9.805 1.076-19.328 3.815-29.082 5.325-21.939 3.61-44.288 4.813-66.509 3.354a64.768 64.768 0 0 1-47.718-24.192 88.346 88.346 0 0 1-15.334-29.824c-3.072-10.01-4.941-20.48-4.404-30.95a80.128 80.128 0 0 1 10.164-35.354c8.908-16.256 22.425-29.491 37.043-40.679 4.147-3.328 8.78-6.118 12.339-10.137 6.886-6.375 14.157-12.365 20.915-18.842a226.125 226.125 0 0 0 34.15-39.987c2.765-4.173 5.095-8.627 8.167-12.544 12.902-16.845 32.41-28.928 53.53-31.309m-38.093 75.034v44.953h-32.128a35.994 35.994 0 0 0-10.547 1.895 55.296 55.296 0 0 0-22.605 13.645c-7.527 7.475-12.8 17.05-15.77 27.212-1.536 9.216-1.715 18.74-0.077 27.981 1.613 8.832 4.916 17.562 10.624 24.627 7.45 9.575 17.997 17.076 30.004 19.533 5.683 1.331 11.545 0.666 17.305 0.845 17.946-0.051 35.866 0.026 53.811-0.051l0.026-160.666-30.643 0.026m47.104 47.309l-0.026 80.716c-0.384 8.935 3.482 17.946 10.138 23.936 5.913 5.274 13.773 8.064 21.606 8.807 24.653 0 49.306 0.025 73.984-0.026V415.693c-10.163 0-20.326-0.077-30.515 0.025 0.051 29.133 0 58.266 0 87.399h-32.205a12.544 12.544 0 0 1-9.395-3.815 13.312 13.312 0 0 1-3.072-8.832c-0.026-24.96 0.026-49.894-0.026-74.828H551.5z" fill="#306CFF" p-id="2579"></path><path d="M470.451 441.165c2.1-0.87 4.224-1.997 6.554-1.946h27.469v63.872h-24.525a25.293 25.293 0 0 1-21.427-10.905 35.328 35.328 0 0 1-6.144-20.173c0.128-5.863 1.152-11.725 3.174-17.203 2.918-6.298 8.704-10.804 14.9-13.645z" fill="#306CFF" p-id="2580"></path></svg>