<?xml version="1.0" encoding="UTF-8" standalone="no"?>
<svg
   t="1728529264181"
   class="icon"
   viewBox="0 0 1024 1024"
   version="1.1"
   p-id="2751"
   width="32"
   height="32"
   id="svg4"
   sodipodi:docname="baidu_zhidao.svg"
   inkscape:version="1.3.2 (091e20e, 2023-11-25)"
   xmlns:inkscape="http://www.inkscape.org/namespaces/inkscape"
   xmlns:sodipodi="http://sodipodi.sourceforge.net/DTD/sodipodi-0.dtd"
   xmlns="http://www.w3.org/2000/svg"
   xmlns:svg="http://www.w3.org/2000/svg">
  <defs
     id="defs4" />
  <sodipodi:namedview
     id="namedview4"
     pagecolor="#ffffff"
     bordercolor="#000000"
     borderopacity="0.25"
     inkscape:showpageshadow="2"
     inkscape:pageopacity="0.0"
     inkscape:pagecheckerboard="0"
     inkscape:deskcolor="#d1d1d1"
     inkscape:zoom="7.375"
     inkscape:cx="15.932203"
     inkscape:cy="15.932203"
     inkscape:window-width="1440"
     inkscape:window-height="900"
     inkscape:window-x="0"
     inkscape:window-y="0"
     inkscape:window-maximized="0"
     inkscape:current-layer="svg4" />
  <path
     d="m 89.691392,549.804 h -58.2397 l 26.506505,-73.19405 h 90.441493 l -7.64043,23.74375 h 122.67866 v -13.68577 h 226.4899 v 440.1031 H 263.43792 V 699.20438 H 162.47366 l -2.14407,14.44876 h 71.14084 L 257.74131,927.2433 H 183.48383 L 160.32827,713.65314 130.03624,927.2433 H 32.89286 L 67.27409,699.20438 H 32.657246 V 649.82782 H 74.677587 L 89.690078,549.804 Z m 94.262358,0 -14.30828,100.05928 h 93.79245 V 549.804 Z m 173.98084,-13.47021 v 341.06073 h 37.46254 V 536.33379 Z m 292.87268,344.40204 h 333.85496 v 45.81825 H 546.45932 V 657.16141 h -23.85977 v -56.71014 h 128.17368 v 280.28456 z m -100.02573,-318.8061 -21.71441,-85.5382 h 97.61332 l 23.82575,85.5382 z m 304.2999,0.50772 H 968.2086 V 865.9949 H 672.48761 V 562.43745 h 74.96041 l 5.93222,-19.35011 h -97.61331 v -42.44291 h 32.94005 l -8.11033,-24.57908 h 101.43416 l 8.10904,24.57908 h 53.68189 l 8.84598,-24.57908 h 101.43416 l -8.88,24.57908 h 34.37993 v 42.44291 H 861.28069 Z m 8.81194,42.40603 h -87.1246 v 40.083 h 87.1246 z m 0,78.93073 h -87.1246 v 44.65672 h 87.1246 z m 0,139.85012 V 767.2418 h -87.1246 v 56.38394 h 87.1246 z"
     fill="#306cff"
     p-id="2752"
     id="path1"
     style="stroke-width:0.999996" />
  <path
     d="m 506.74937,76.016909 c 7.59099,-1.13858 15.51332,0.61412 21.8802,4.28258 9.9347,5.69222 16.50897,14.96255 20.26234,24.611931 a 80.676714,70.294386 0 0 1 -1.16093,46.96575 c -3.31833,7.33621 -8.2958,14.23973 -15.24355,19.33547 a 32.768435,28.551449 0 0 1 -20.22103,7.10115 32.353644,28.190037 0 0 1 -20.3871,-6.05291 c -9.25015,-6.2527 -15.28486,-15.48703 -18.68663,-25.10041 a 80.406938,70.059327 0 0 1 1.55546,-44.23681 c 3.67155,-8.402801 9.51912,-16.335491 17.96074,-21.666301 4.14792,-2.62022 8.96013,-4.51763 14.0405,-5.24045 z m 111.01879,7.49927 c 5.3307,-1.01223 10.78455,0.27106 15.59595,2.29482 6.80273,2.89129 12.58954,7.35527 17.25594,12.52303 6.53212,7.228211 11.05351,15.938771 12.44369,25.118041 1.07749,6.36069 -0.10451,12.83009 -2.15739,18.97407 a 80.92543,70.511096 0 0 1 -11.24065,20.83546 53.694283,46.784338 0 0 1 -16.67506,13.89596 36.708944,31.98485 0 0 1 -20.69739,4.35528 c -8.8143,-0.50611 -17.71203,-3.14469 -24.22391,-8.4755 -6.53295,-5.31245 -10.24581,-12.73973 -11.94629,-20.27499 a 89.864486,78.299779 0 0 1 -0.6635,-24.30488 c 1.1828,-7.15551 4.64532,-13.85996 8.85561,-20.0223 4.43874,-6.39668 9.91365,-12.305611 16.46766,-17.112661 4.89405,-3.6141 10.61848,-6.68609 16.98534,-7.80633 z M 418.33665,152.18422 c 8.0471,-1.26493 16.50898,0.19906 23.62279,3.65011 10.53584,5.05975 18.66557,13.3722 23.93309,22.71522 2.11526,3.84846 3.75417,7.98704 4.21028,12.26962 1.30675,10.75197 1.05804,21.82935 -2.5098,32.2559 -2.40612,7.08352 -6.67797,13.84233 -13.10722,18.75736 -7.9434,6.16235 -18.68581,9.10728 -29.22165,9.26963 a 36.169391,31.514734 0 0 1 -24.14129,-7.80633 c -8.75191,-6.57739 -14.1855,-15.95643 -17.02665,-25.60581 -1.86656,-6.55975 -2.73827,-13.42584 -1.49309,-20.1303 1.78312,-11.20373 5.55754,-22.44416 12.96219,-31.8225 5.30884,-6.74044 13.35594,-12.1616 22.77135,-13.5529 z m 259.03655,24.75664 c 9.56124,-1.03058 19.68229,0.0904 28.24787,4.19293 7.88102,3.73975 14.08181,9.83009 18.20864,16.73289 3.46416,5.74587 5.82814,12.03526 6.47139,18.50395 0.33215,9.25197 0.49742,18.61266 -1.72154,27.70228 -1.55547,6.36068 -4.29373,12.63102 -9.00063,17.74582 a 33.660396,29.328622 0 0 1 -17.69097,9.99244 c -6.9688,1.68 -14.26895,1.7167 -21.38277,1.21059 -8.48214,-0.70446 -17.08903,-2.78258 -23.85044,-7.46327 A 36.853957,32.111202 0 0 1 644.5432,249.42207 c -2.98697,-8.38516 -3.25676,-17.23972 -3.09068,-25.91287 0.33216,-9.07197 1.78394,-18.28796 5.95209,-26.70911 3.11092,-6.25197 8.15078,-11.98019 14.95351,-15.50395 a 37.953313,33.069083 0 0 1 15.01508,-4.35528 z m -128.85395,33.46649 a 52.470975,45.718458 0 0 1 28.47469,4.13858 c 13.66702,5.60186 24.26524,15.63101 32.33258,26.58134 10.05948,12.64937 21.85995,24.16016 34.19996,35.11119 a 503.61783,438.80699 0 0 0 36.89608,29.43662 c 2.13552,1.59035 4.43794,3.01834 6.40819,4.78869 a 61.388967,53.488789 0 0 1 16.9027,32.38297 c 1.38939,12.75738 -2.11527,25.56981 -8.02602,37.1886 -4.45901,8.5115 -12.13263,15.72136 -21.61042,20.14865 -13.12828,6.16233 -28.41314,7.64468 -43.09688,7.17457 a 162.3491,141.4563 0 0 1 -42.12228,-6.5421 134.43419,117.13378 0 0 0 -51.10184,-3.25271 c -7.9434,0.75954 -15.65834,2.69294 -23.56042,3.75882 -17.77359,2.54823 -35.87935,3.39741 -53.88143,2.36752 a 52.470975,45.718458 0 0 1 -38.65812,-17.07665 71.572391,62.361703 0 0 1 -12.42265,-21.05218 c -2.48874,-7.06586 -4.00288,-14.45643 -3.56785,-21.84699 a 64.914685,56.56078 0 0 1 8.23425,-24.9557 c 7.2167,-11.47479 18.16732,-20.81711 30.00991,-28.7145 3.35964,-2.34917 7.11301,-4.31858 9.99628,-7.15552 5.57861,-4.49998 11.46912,-8.72821 16.94402,-13.30019 a 183.1923,159.6172 0 0 0 27.6662,-28.22604 c 2.24003,-2.94563 4.12764,-6.08963 6.61638,-8.85456 10.4524,-11.89056 26.25656,-20.4197 43.36667,-22.10041 m -30.86058,52.96503 v 31.73144 h -26.02808 a 29.160084,25.407457 0 0 0 -8.54452,1.33763 44.797354,39.032359 0 0 0 -18.31316,9.63175 c -6.09791,5.27645 -10.36976,12.03525 -12.77586,19.20842 -1.24437,6.50539 -1.38939,13.22819 -0.0624,19.75124 1.30675,6.23433 3.98263,12.39666 8.60689,17.38371 6.03553,6.7588 14.58005,12.05361 24.30737,13.78795 4.60401,0.93953 9.35303,0.47013 14.01943,0.59648 14.53872,-0.036 29.05638,0.0183 43.59429,-0.036 l 0.0211,-113.41097 -24.82504,0.0183 m 38.1607,33.39451 -0.0211,56.97583 c -0.31109,6.30704 2.8209,12.66772 8.21318,16.89595 4.79034,3.72282 11.15802,5.69222 17.50383,6.21669 19.97231,0 39.94463,0.0176 59.93719,-0.0183 v -80.03412 c -8.23341,0 -16.46684,-0.0544 -24.72134,0.0176 0.0413,20.56441 0,41.12882 0,61.69323 h -26.09043 a 10.162363,8.854563 0 0 1 -7.61124,-2.69293 10.784548,9.3966794 0 0 1 -2.48873,-6.23433 c -0.0211,-17.61878 0.0211,-35.21919 -0.0211,-52.81962 h -24.7011 z"
     fill="#306cff"
     p-id="2754"
     id="path3"
     style="stroke-width:1" />
  <path
     d="m 490.15775,314.78306 c 1.70129,-0.61412 3.42202,-1.40965 5.30965,-1.37365 h 22.25365 v 45.08599 h -19.86861 a 20.490803,17.853832 0 0 1 -17.35881,-7.69763 28.620533,24.937342 0 0 1 -4.97749,-14.23972 c 0.10372,-4.13857 0.93329,-8.27644 2.57137,-12.14325 2.364,-4.44565 7.05144,-7.62634 12.07106,-9.63174 z"
     fill="#306cff"
     p-id="2755"
     id="path4"
     style="stroke-width:1" />
</svg>
