<?xml version="1.0" standalone="no"?><!DOCTYPE svg PUBLIC "-//W3C//DTD SVG 1.1//EN" "http://www.w3.org/Graphics/SVG/1.1/DTD/svg11.dtd"><svg t="1727336999241" class="icon" viewBox="0 0 1024 1024" version="1.1" xmlns="http://www.w3.org/2000/svg" p-id="3212" xmlns:xlink="http://www.w3.org/1999/xlink" width="16" height="16"><path d="M512 512m-512 0a512 512 0 1 0 1024 0 512 512 0 1 0-1024 0Z" fill="#008DFD" p-id="3213"></path><path d="M327.9872 292.0448c23.3472 24.9856 48.64 53.6576 76.032 86.016-18.9952 13.9776-38.0416 28.4672-57.0368 43.52-22.016-29.696-45.1584-59.6992-69.4784-90.0096l50.4832-39.5264z m410.0096 19.5072v54.4768a419.9424 419.9424 0 0 1-90.7264 87.04 500.0704 500.0704 0 0 0 112.2304 18.944c-10.6496 24.064-19.456 44.8512-26.5216 62.5152-67.4816-9.3184-120.1664-22.6304-158.0032-39.936-42.8032 19.456-90.4704 33.6384-143.0016 42.496a350.208 350.208 0 0 0-32.4608-59.0336c39.9872-5.632 76.288-14.0288 109.0048-24.9856a404.736 404.736 0 0 1-62.976-65.024l38.7072-20.992H427.9808V311.552h310.016z m-160.256 110.7456a289.6896 289.6896 0 0 0 71.2704-55.2448h-139.776c21.7088 22.3232 44.544 40.7552 68.5056 55.2448zM413.4912 621.568c0.3584 25.6512 2.5088 52.1216 6.5024 79.4624-38.3488 29.0304-68.6592 55.1936-90.9824 78.5408l-35.9936-48.9984c8.96-8.704 13.4656-22.6816 13.4656-41.984v-167.0144h-42.496v-65.024h109.5168v201.472c15.36-12.288 28.672-24.4736 39.9872-36.4544z m11.52 24.9856h120.9856v-35.9936H436.0192V554.496h109.9776v-32.9728h69.9904v32.9728h121.0368v56.0128H615.936v35.9936h131.9936v56.0128h-131.9936v81.9712h-69.9904v-81.9712H425.0112v-56.0128z" fill="#FFFFFF" p-id="3214"></path></svg>