<?xml version="1.0" encoding="UTF-8" standalone="no"?>
<svg
   t="1728529247146"
   class="icon"
   viewBox="0 0 1024 1024"
   version="1.1"
   p-id="2591"
   width="32"
   height="32"
   id="svg4"
   sodipodi:docname="baidu_baike.svg"
   inkscape:version="1.3.2 (091e20e, 2023-11-25)"
   xmlns:inkscape="http://www.inkscape.org/namespaces/inkscape"
   xmlns:sodipodi="http://sodipodi.sourceforge.net/DTD/sodipodi-0.dtd"
   xmlns="http://www.w3.org/2000/svg"
   xmlns:svg="http://www.w3.org/2000/svg">
  <defs
     id="defs4" />
  <sodipodi:namedview
     id="namedview4"
     pagecolor="#ffffff"
     bordercolor="#000000"
     borderopacity="0.25"
     inkscape:showpageshadow="2"
     inkscape:pageopacity="0.0"
     inkscape:pagecheckerboard="0"
     inkscape:deskcolor="#d1d1d1"
     inkscape:zoom="7.375"
     inkscape:cx="15.932203"
     inkscape:cy="15.932203"
     inkscape:window-width="1440"
     inkscape:window-height="900"
     inkscape:window-x="0"
     inkscape:window-y="0"
     inkscape:window-maximized="0"
     inkscape:current-layer="svg4" />
  <path
     d="M475.54580227 326.41499339h39.7682157v208.78313244h-92.7925033c-16.57008987-3.31401797-29.82616178-13.2560719-39.7682157-26.5121438-6.62803595-9.94205392-13.2560719-19.88410785-13.25607191-33.14017976-3.31401797-13.2560719-3.31401797-23.19812583 0-36.45419774 3.31401797-13.2560719 9.94205392-26.51214381 19.88410785-36.45419771 6.62803595-6.62803595 19.88410785-13.2560719 29.82616178-16.57008988 3.31401797 0 9.94205392-3.31401797 13.2560719-3.31401797h43.08223368v-56.33830558m-46.39625166 92.7925033c-6.62803595 3.31401797-16.57008987 9.94205392-19.88410785 16.57008988-3.31401797 6.62803595-3.31401797 13.2560719-3.31401796 23.19812582 0 9.94205392 3.31401797 19.88410785 6.62803595 26.5121438 6.62803595 9.94205392 16.57008987 13.2560719 26.51214378 13.25607191h33.14017977v-82.85044938h-36.45419773c0 3.31401797-3.31401797 3.31401797-6.62803596 3.31401797z m106.04857522-33.14017975h39.7682157v96.10652128c0 3.31401797 0 9.94205392 3.31401797 9.94205393 3.31401797 3.31401797 6.62803595 3.31401797 13.25607191 3.31401798h43.08223368v-112.67661116h39.76821571v145.8167909H578.2803595c-9.94205392 0-19.88410785-3.31401797-26.5121438-9.94205392-9.94205392-6.62803595-13.2560719-19.88410785-13.25607189-29.82616178-3.31401797-33.14017975-3.31401797-66.2803595-3.31401798-102.73455723z"
     fill="#FCFBFF"
     p-id="2592"
     id="path1" />
  <path
     d="m 475.75531,85.12651 c 7.26415,-1.36092 12.71226,0 19.9764,2.72185 9.08018,4.08277 14.52829,10.88739 18.16035,19.05293 5.44812,10.88739 5.44812,24.49662 -1.81603,35.38401 -3.63207,5.44369 -7.26414,10.88739 -12.71225,14.97016 -5.44811,2.72184 -10.89621,5.44369 -18.16036,5.44369 -7.26414,0 -12.71225,-1.36092 -18.16035,-4.08277 -7.26415,-5.44369 -12.71226,-12.24831 -16.34432,-19.05293 -3.63208,-10.88739 -3.63208,-23.1357 1.81603,-32.66216 3.63207,-8.16554 7.26414,-13.60924 16.34432,-17.69201 z m 98.06594,5.4437 c 5.4481,-1.36093 9.08017,0 14.52828,1.36092 5.44811,2.72185 9.08018,6.80462 14.52828,10.88739 5.44812,5.44369 9.08018,12.24831 10.89622,19.05293 1.81604,5.44369 0,9.52646 -1.81604,14.97016 -1.81603,5.44369 -5.4481,10.88738 -9.08018,16.33108 -3.63206,4.08277 -9.08017,8.16554 -14.52828,10.88739 -5.44811,2.72184 -12.71225,4.08276 -18.16036,2.72184 -7.26414,0 -16.34432,-2.72184 -21.79243,-6.80462 -5.4481,-4.08277 -9.08018,-9.52646 -10.89621,-14.97016 -1.81603,-5.44369 -1.81603,-12.24831 0,-17.692 1.81603,-5.44369 3.63207,-10.88739 7.26414,-14.97016 3.63207,-5.44369 9.08018,-9.52646 14.52829,-12.24831 3.63207,-5.44369 9.08018,-8.16554 14.52829,-9.52646 z M 399.48182,142.2853 c 7.26414,-1.36093 14.52828,0 19.97639,2.72184 9.08018,4.08278 16.34432,9.52647 21.79243,17.69201 1.81603,2.72185 3.63207,5.44369 3.63207,9.52646 1.81604,8.16554 1.81604,16.33109 -1.81604,24.49663 -1.81603,5.44369 -5.4481,10.88738 -10.89621,13.60923 -7.26415,4.08277 -16.34432,6.80462 -25.4245,6.80462 -7.26414,0 -14.52829,-2.72185 -21.79243,-5.44369 -7.26415,-5.4437 -12.71225,-12.24832 -14.52829,-19.05293 -1.81603,-5.4437 -1.81603,-9.52647 -1.81603,-14.97016 1.81603,-8.16554 5.44811,-16.33108 10.89621,-24.49662 3.63208,-5.4437 10.89622,-9.52647 19.9764,-10.88739 z m 227.00446,19.05293 c 9.08018,-1.36093 16.34432,0 25.4245,2.72185 7.26414,2.72184 12.71225,6.80461 16.34432,12.24831 3.63208,4.08276 5.44811,9.52646 5.44811,13.60923 0,6.80462 0,13.60924 -1.81603,20.41385 -1.81604,5.4437 -3.63208,9.52647 -7.26415,13.60924 -3.63207,4.08277 -9.08018,6.80462 -16.34432,8.16554 -5.44811,1.36092 -12.71225,1.36092 -18.16036,1.36092 -7.26414,0 -14.52828,-2.72184 -19.97639,-5.44369 -5.44811,-2.72185 -9.08018,-6.80462 -10.89621,-12.24831 -1.81604,-6.80462 -3.63208,-13.60924 -1.81604,-19.05293 0,-6.80462 1.81604,-13.60924 5.4481,-20.41385 1.81604,-4.08278 7.26415,-9.52647 12.71226,-12.24831 1.81603,-1.36093 5.4481,-2.72185 10.89621,-2.72185 z m -114.41025,25.85754 c 9.08018,-1.36092 16.34432,0 25.4245,2.72185 12.71225,4.08277 21.79243,12.24831 29.05657,20.41385 9.08018,9.52647 19.97639,17.69201 29.05657,25.85755 10.89622,8.16554 21.79243,14.97016 32.68864,21.77478 l 5.44811,4.08276 c 9.08018,6.80462 14.52829,14.97016 14.52829,24.49663 1.81603,9.52646 -1.81604,19.05293 -7.26414,28.57939 -3.63208,6.80462 -10.89622,12.24831 -18.16036,14.97016 -10.89622,4.08277 -25.4245,5.44369 -38.13675,5.44369 -12.71225,0 -25.4245,-2.72184 -36.32072,-5.44369 -14.52828,-2.72185 -29.05656,-4.08277 -45.40089,-2.72185 -7.26414,0 -14.52828,1.36093 -19.97639,2.72185 -16.34433,1.36092 -30.87261,2.72185 -47.21693,1.36092 -12.71225,0 -25.4245,-5.44369 -34.50468,-12.24831 -5.44811,-4.08277 -9.08018,-9.52646 -10.89621,-16.33108 -1.81604,-5.44369 -3.63208,-10.88739 -3.63208,-16.33108 0,-6.80462 3.63208,-13.60924 7.26415,-19.05293 5.44811,-8.16554 16.34432,-16.33108 25.4245,-21.77477 3.63207,-1.36093 5.4481,-2.72185 9.08018,-5.4437 5.4481,-2.72185 10.89621,-6.80462 14.52828,-9.52646 9.08018,-6.80462 18.16036,-13.60924 23.60846,-21.77478 1.81604,-2.72185 3.63208,-4.08277 5.44812,-6.80462 12.71224,-8.16554 25.42449,-13.60923 39.95278,-14.97016 m -25.4245,39.46678 v 24.49663 h -23.60846 c -1.81604,0 -5.44811,0 -7.26415,1.36092 -5.44811,1.36092 -10.89621,4.08277 -16.34432,6.80462 -5.44811,4.08277 -9.08017,9.52646 -10.89621,14.97016 -1.81604,5.44369 -1.81604,9.52646 0,14.97015 1.81604,4.08277 3.63207,9.52647 7.26414,13.60924 5.44811,5.44369 12.71225,9.52647 21.79243,10.88739 3.63207,1.36092 9.08017,0 12.71225,0 h 38.13675 v -85.73818 c -7.26414,-1.36093 -14.52829,-1.36093 -21.79243,-1.36093 m 32.68865,24.49663 v 43.54955 c 0,4.08277 1.81603,9.52646 7.26414,12.24831 3.63207,2.72185 9.08018,4.08277 14.52828,4.08277 h 52.66504 v -59.88063 h -21.79243 v 46.2714 h -23.60847 c -1.81603,0 -5.4481,0 -7.26414,-1.36093 -1.81604,-1.36092 -1.81604,-2.72185 -1.81604,-4.08277 V 252.5201 c -5.4481,-1.36092 -12.71224,-1.36092 -19.97638,-1.36092 z"
     fill="#306cff"
     p-id="2593"
     id="path2"
     style="stroke-width:1" />
  <path
     d="m 461.22703,264.76841 c 1.81604,0 3.63207,-1.36092 5.4481,-1.36092 h 19.9764 v 34.02309 h -18.16036 c -5.4481,0 -12.71225,-2.72185 -14.52828,-5.4437 -3.63208,-2.72185 -3.63208,-6.80461 -3.63208,-10.88739 0,-2.72184 0,-6.80461 1.81604,-9.52646 1.81604,-2.72185 5.44811,-5.4437 9.08018,-6.80462 z"
     fill="#306cff"
     p-id="2594"
     id="path3"
     style="stroke-width:1" />
  <path
     d="m 167.44306,508.86212 12.44532,-40.32949 H 30.544607 V 413.0796 H 499.3181 v 55.45303 H 304.34152 L 291.8962,508.86212 H 482.72435 V 917.19815 H 42.989923 V 508.86212 Z m -8.29687,156.27676 H 370.71652 V 559.27398 H 159.14619 Z m 0,50.41186 V 861.74513 H 370.71652 V 715.55074 Z M 723.33374,463.49145 v 40.32948 H 773.115 v 55.45305 h -49.78126 v 35.28829 h 45.63282 v 55.45305 H 723.33374 V 907.11579 H 615.47435 V 650.01532 H 594.73216 V 907.11579 H 536.65403 V 594.56227 h 78.82032 v -35.28829 h -87.11719 v -55.45305 h 87.11719 V 463.49145 H 532.5056 V 408.0384 H 773.115 v 55.45305 z M 980.5369,771.00377 h 20.7422 v 55.45304 h -20.7422 v 85.70017 H 872.67751 V 826.45681 H 739.92749 V 771.00377 H 872.67751 V 634.89176 l -87.1172,-15.12357 V 554.2328 l 87.1172,15.12353 V 488.69738 L 789.70875,473.57381 V 408.0384 l 82.96876,15.12356 V 397.95603 H 980.5369 Z"
     fill="#306cff"
     p-id="2595"
     id="path4"
     style="stroke-width:1" />
</svg>
