<?xml version="1.0" standalone="no"?><!DOCTYPE svg PUBLIC "-//W3C//DTD SVG 1.1//EN" "http://www.w3.org/Graphics/SVG/1.1/DTD/svg11.dtd"><svg t="1728529247146" class="icon" viewBox="0 0 1024 1024" version="1.1" xmlns="http://www.w3.org/2000/svg" p-id="2591" xmlns:xlink="http://www.w3.org/1999/xlink" width="32" height="32"><path d="M475.54580227 326.41499339h39.7682157v208.78313244h-92.7925033c-16.57008987-3.31401797-29.82616178-13.2560719-39.7682157-26.5121438-6.62803595-9.94205392-13.2560719-19.88410785-13.25607191-33.14017976-3.31401797-13.2560719-3.31401797-23.19812583 0-36.45419774 3.31401797-13.2560719 9.94205392-26.51214381 19.88410785-36.45419771 6.62803595-6.62803595 19.88410785-13.2560719 29.82616178-16.57008988 3.31401797 0 9.94205392-3.31401797 13.2560719-3.31401797h43.08223368v-56.33830558m-46.39625166 92.7925033c-6.62803595 3.31401797-16.57008987 9.94205392-19.88410785 16.57008988-3.31401797 6.62803595-3.31401797 13.2560719-3.31401796 23.19812582 0 9.94205392 3.31401797 19.88410785 6.62803595 26.5121438 6.62803595 9.94205392 16.57008987 13.2560719 26.51214378 13.25607191h33.14017977v-82.85044938h-36.45419773c0 3.31401797-3.31401797 3.31401797-6.62803596 3.31401797z m106.04857522-33.14017975h39.7682157v96.10652128c0 3.31401797 0 9.94205392 3.31401797 9.94205393 3.31401797 3.31401797 6.62803595 3.31401797 13.25607191 3.31401798h43.08223368v-112.67661116h39.76821571v145.8167909H578.2803595c-9.94205392 0-19.88410785-3.31401797-26.5121438-9.94205392-9.94205392-6.62803595-13.2560719-19.88410785-13.25607189-29.82616178-3.31401797-33.14017975-3.31401797-66.2803595-3.31401798-102.73455723z" fill="#FCFBFF" p-id="2592"></path><path d="M455.66169442-18.24287605c13.2560719-3.31401797 23.19812583 0 36.45419773 6.62803595 16.57008987 9.94205392 26.51214381 26.51214381 33.14017975 46.39625165 9.94205392 26.51214381 9.94205392 59.65232355-3.31401798 86.16446736-6.62803595 13.2560719-13.2560719 26.51214381-23.19812582 36.45419773-9.94205392 6.62803595-19.88410785 13.2560719-33.14017975 13.25607189s-23.19812583-3.31401797-33.14017976-9.94205392c-13.2560719-13.2560719-23.19812583-29.82616178-29.82616177-46.39625164-6.62803595-26.51214381-6.62803595-56.33830558 3.31401798-79.53643142 6.62803595-19.88410785 13.2560719-33.14017975 29.82616177-43.08223368l19.88410785-9.94205392z m178.95697067 13.2560719c9.94205392-3.31401797 16.57008987 0 26.5121438 3.31401798 9.94205392 6.62803595 16.57008987 16.57008987 26.5121438 26.5121438 9.94205392 13.2560719 16.57008987 29.82616178 19.88410784 46.39625165 3.31401797 13.2560719 0 23.19812583-3.31401796 36.45419774-3.31401797 13.2560719-9.94205392 26.51214381-16.57008988 39.7682157-6.62803595 9.94205392-16.57008987 19.88410785-26.5121438 26.5121438-9.94205392 6.62803595-23.19812583 9.94205392-33.14017975 6.62803595-13.2560719 0-29.82616178-6.62803595-39.76821571-16.57008988-9.94205392-9.94205392-16.57008987-23.19812583-19.88410785-36.45419773-3.31401797-13.2560719-3.31401797-29.82616178 0-43.08223368s6.62803595-26.51214381 13.2560719-36.45419771c6.62803595-13.2560719 16.57008987-23.19812583 26.5121438-29.82616178 6.62803595-13.2560719 16.57008987-19.88410785 26.51214381-23.19812584z m-318.14572562 125.93268306c13.2560719-3.31401797 26.51214381 0 36.45419771 6.62803595 16.57008987 9.94205392 29.82616178 23.19812583 39.76821571 43.08223367 3.31401797 6.62803595 6.62803595 13.2560719 6.62803594 23.19812584 3.31401797 19.88410785 3.31401797 39.7682157-3.31401797 59.65232355-3.31401797 13.2560719-9.94205392 26.51214381-19.88410784 33.14017977-13.2560719 9.94205392-29.82616178 16.57008987-46.39625166 16.57008986-13.2560719 0-26.51214381-6.62803595-39.76821571-13.2560719-13.2560719-13.2560719-23.19812583-29.82616178-26.5121438-46.39625165-3.31401797-13.2560719-3.31401797-23.19812583-3.31401798-36.45419773 3.31401797-19.88410785 9.94205392-39.7682157 19.88410786-59.65232355 6.62803595-13.2560719 19.88410785-23.19812583 36.45419774-26.51214381z m414.2522469 46.39625166c16.57008987-3.31401797 29.82616178 0 46.39625166 6.62803595 13.2560719 6.62803595 23.19812583 16.57008987 29.82616178 29.82616178 6.62803595 9.94205392 9.94205392 23.19812583 9.94205392 33.14017975 0 16.57008987 0 33.14017975-3.31401798 49.71026964-3.31401797 13.2560719-6.62803595 23.19812583-13.2560719 33.14017974-6.62803595 9.94205392-16.57008987 16.57008987-29.82616177 19.88410785-9.94205392 3.31401797-23.19812583 3.31401797-33.14017977 3.31401797-13.2560719 0-26.51214381-6.62803595-36.45419772-13.25607189-9.94205392-6.62803595-16.57008987-16.57008987-19.88410784-29.82616178-3.31401797-16.57008987-6.62803595-33.14017975-3.31401799-46.39625166 0-16.57008987 3.31401797-33.14017975 9.94205393-49.71026962 3.31401797-9.94205392 13.2560719-23.19812583 23.19812583-29.82616178 3.31401797-3.31401797 9.94205392-6.62803595 19.88410785-6.62803595z m-208.78313245 62.96634153c16.57008987-3.31401797 29.82616178 0 46.39625166 6.62803595 23.19812583 9.94205392 39.7682157 29.82616178 53.0242876 49.71026964 16.57008987 23.19812583 36.45419773 43.08223369 53.02428762 62.96634151 19.88410785 19.88410785 39.7682157 36.45419773 59.65232355 53.02428762l9.94205392 9.94205393c16.57008987 16.57008987 26.51214381 36.45419773 26.51214381 59.65232355 3.31401797 23.19812583-3.31401797 46.39625165-13.25607191 69.59437748-6.62803595 16.57008987-19.88410785 29.82616178-33.14017975 36.45419772-19.88410785 9.94205392-46.39625165 13.2560719-69.59437748 13.25607191-23.19812583 0-46.39625165-6.62803595-66.28035951-13.25607191-26.51214381-6.62803595-53.02428761-9.94205392-82.85044938-6.62803595-13.2560719 0-26.51214381 3.31401797-36.45419774 6.62803595-29.82616178 3.31401797-56.33830558 6.62803595-86.16446734 3.31401798-23.19812583 0-46.39625165-13.2560719-62.96634154-29.82616178-9.94205392-9.94205392-16.57008987-23.19812583-19.88410785-39.7682157-3.31401797-13.2560719-6.62803595-26.51214381-6.62803595-39.7682157 0-16.57008987 6.62803595-33.14017975 13.2560719-46.39625166 9.94205392-19.88410785 29.82616178-39.7682157 46.39625165-53.02428761 6.62803595-3.31401797 9.94205392-6.62803595 16.57008988-13.25607189 9.94205392-6.62803595 19.88410785-16.57008987 26.5121438-23.19812583 16.57008987-16.57008987 33.14017975-33.14017975 43.08223367-53.02428761 3.31401797-6.62803595 6.62803595-9.94205392 9.94205394-16.57008987 23.19812583-19.88410785 46.39625165-33.14017975 72.90839545-36.45419773m-46.39625165 96.10652129v59.65232355h-43.08223368c-3.31401797 0-9.94205392 0-13.2560719 3.31401797-9.94205392 3.31401797-19.88410785 9.94205392-29.82616178 16.57008989-9.94205392 9.94205392-16.57008987 23.19812583-19.88410785 36.45419772-3.31401797 13.2560719-3.31401797 23.19812583 0 36.45419773 3.31401797 9.94205392 6.62803595 23.19812583 13.25607191 33.14017975 9.94205392 13.2560719 23.19812583 23.19812583 39.7682157 26.51214381 6.62803595 3.31401797 16.57008987 0 23.19812583 0h69.59437747v-208.78313245c-13.2560719-3.31401797-26.51214381-3.31401797-39.7682157-3.31401797m59.65232356 59.65232355v106.04857521c0 9.94205392 3.31401797 23.19812583 13.2560719 29.82616177 6.62803595 6.62803595 16.57008987 9.94205392 26.5121438 9.94205393h96.10652129v-145.81679091h-39.76821571v112.67661116h-43.08223368c-3.31401797 0-9.94205392 0-13.2560719-3.31401797-3.31401797-3.31401797-3.31401797-6.62803595-3.31401798-9.94205394v-96.10652128c-9.94205392-3.31401797-23.19812583-3.31401797-36.45419772-3.31401797z" fill="#306CFF" p-id="2593"></path><path d="M429.14955061 419.20749669c3.31401797 0 6.62803595-3.31401797 9.94205392-3.31401797h36.45419774v82.85044938h-33.14017975c-9.94205392 0-23.19812583-6.62803595-26.5121438-13.25607191-6.62803595-6.62803595-6.62803595-16.57008987-6.62803596-26.5121438 0-6.62803595 0-16.57008987 3.31401799-23.19812582 3.31401797-6.62803595 9.94205392-13.2560719 16.57008986-16.57008988z" fill="#306CFF" p-id="2594"></path><path d="M270.07668781 757.23733017l9.94205392-26.5121438H160.71409461v-36.45419773h374.48403122v36.45419773H379.43928098l-9.94205392 26.5121438h152.44482686v268.435456H170.65614853v-268.435456h99.42053928z m-6.62803596 102.73455724h169.01491674v-69.59437749h-169.01491674v69.59437749z m0 33.14017976v96.10652128h169.01491674v-96.10652128h-169.01491674zM714.1550965 727.41116839v26.5121438h39.76821569v36.45419773h-39.76821569v23.19812583h36.45419772v36.45419773h-36.45419772v169.01491674h-86.16446736v-169.01491674H611.42053925v169.01491674h-46.39625164v-205.46911447h62.96634153v-23.19812583h-69.59437749v-36.45419773h69.59437749v-26.5121438h-66.28035951v-36.45419772h192.21304256v36.45419772h-39.76821569z m205.46911447 202.1550965h16.57008986v36.45419772h-16.57008986v56.33830558h-86.16446736v-56.33830558h-106.04857522v-36.45419772h106.04857522v-89.47848534l-69.59437748-9.94205392v-43.08223368l69.59437748 9.94205392V743.98125827l-66.28035951-9.94205392v-43.08223368l66.28035951 9.94205392v-16.57008987h86.16446736v245.23733017z" fill="#306CFF" p-id="2595"></path></svg>