<?xml version="1.0" standalone="no"?><!DOCTYPE svg PUBLIC "-//W3C//DTD SVG 1.1//EN" "http://www.w3.org/Graphics/SVG/1.1/DTD/svg11.dtd"><svg t="1728529264181" class="icon" viewBox="0 0 1024 1024" version="1.1" xmlns="http://www.w3.org/2000/svg" p-id="2751" xmlns:xlink="http://www.w3.org/1999/xlink" width="32" height="32"><path d="M159.21243022 708.38711941h-53.99802311l24.576-62.63542519h83.85452564l-7.08395616 20.31858726h113.74379616v-11.71152593h209.9943348v376.61597393h-209.9943348v-194.73901037h-93.61089423l-1.98792534 12.36445867h65.95955674l24.35754667 182.77869037h-68.84920889l-21.46910815-182.77869037-28.08581688 182.77869037H106.55061333l31.87719585-195.14314904H106.33216v-42.25372919h38.95993837l13.91911822-85.59487051z m87.39711053 0l-13.2661855 85.62521126h86.9614175v-85.62521126h-73.695232z m161.30958222-11.52705423v291.86093512h34.73408V696.86006518h-34.73408z m271.54234785 294.72024652h309.53987793v39.20873245H582.713344V800.25766875h-22.12204089V751.72826075h118.83861334v239.85205095z m-92.74072179-272.81665895l-20.13290192-73.1988575h90.50400237l22.09048652 73.1988575h-92.46158697z m282.13733452 0.4344794h104.88794075v259.76771318h-274.18320593V719.19813215h69.500928l5.50016948-16.55876267h-90.50400237v-36.32029393h30.54098963l-7.51964919-21.0334151h94.04658726l7.51843557 21.0334151h49.77216473l8.20170904-21.0334151h94.04658726l-8.23326341 21.0334151h31.87598222v36.32029393h-109.70362311l-5.74774993 16.55876267z m8.17015467 36.28873955h-80.77918814v34.30081422h80.77918814v-34.30081422z m0 67.54455705h-80.77918814v38.21476977h80.77918814v-38.21476977z m0 119.67601777v-48.24905955h-80.77918814v48.25027318h80.77918814z" fill="#306CFF" p-id="2752"></path><path d="M502.77277392 337.641472h37.12735763l-0.03155437 194.98780445c-21.7785837 0.09344948-43.52682667 0-65.306624 0.06310873-6.99050667-0.21845333-14.10480355 0.589824-21.00307436-1.02551703-14.57083733-2.98310163-27.37098903-12.08653748-36.41252979-23.70582756a66.95351941 66.95351941 0 0 1-12.89360118-29.88805689 102.12329245 102.12329245 0 0 1 0.09344948-33.95857067c3.57292563-12.3656723 9.9736083-23.95462163 19.13893926-33.02650311 7.64222578-7.64222578 17.14858667-13.32808059 27.43288416-16.55997629 4.13240889-1.27431111 8.42016237-2.36050963 12.80136533-2.29861452h38.99149274c0.09223585-18.23721245 0.09223585-36.38218903 0.06068148-54.58906074m-41.19665778 88.39228681c-7.51843555 3.44792178-14.53928297 8.91653689-18.11342222 16.5599763a64.62335052 64.62335052 0 0 0-3.85206045 20.87807052 42.87510755 42.87510755 0 0 0 7.45654045 24.48255052 30.69633422 30.69633422 0 0 0 26.00444207 13.23463111h29.76426666V423.67203555h-33.33719228c-2.79620267-0.06189511-5.40550637 1.30465185-7.92257423 2.36172327z m98.36468148-30.97546903h36.94045867c0.06189511 30.26064118 0 60.52128237 0.03155436 90.81347793a16.21773275 16.21773275 0 0 0 3.72827022 10.71877689 15.22377008 15.22377008 0 0 0 11.40205038 4.62999703h39.08494222c0-35.356672 0.06189511-70.713344 0-106.070016 12.3656723-0.12379022 24.69979022-0.03034075 37.03390815-0.03034075v137.60375467c-29.949952 0.06189511-59.86956325 0.03155437-89.78917452 0.03155438a45.7647597 45.7647597 0 0 1-26.22168178-10.68843615 37.59339141 37.59339141 0 0 1-12.30377718-29.04943882c0.09344948-32.65270518 0.06189511-65.30541037 0.09344948-97.95932918z" fill="#FCFBFF" p-id="2753"></path><path d="M486.43003733 15.51868208c11.37170963-1.95758459 23.23979378 1.05585778 32.77770904 7.36309095 14.88274015 9.78670933 24.73134459 25.72530725 30.35409066 42.3156243a120.85809303 120.85809303 0 0 1-1.73913125 80.74884742c-4.97102697 12.61325275-12.42756741 24.48255052-22.83565511 33.2437428a49.08889125 49.08889125 0 0 1-30.29219556 12.20911408 48.46751289 48.46751289 0 0 1-30.54098963-10.40687408c-13.85722311-10.75033125-22.89755022-26.62703408-27.99358103-43.155456a120.45395437 120.45395437 0 0 1 2.33016888-76.05695525c5.50016948-14.44704711 14.26014815-28.08581689 26.90616889-37.25114785 6.2137837-4.50499318 13.4227437-7.76722963 21.03341511-9.00998637z m166.31216356 12.89360117c7.98568297-1.74034489 16.15583763 0.46603378 23.363584 3.94550993 10.190848 4.97102697 18.85980445 12.64602075 25.85031111 21.53100327 9.7854957 12.42756741 16.55876267 27.40375703 18.64135111 43.18579673 1.61412741 10.93601659-0.15655822 22.05893215-3.2318957 32.62236445a121.23067733 121.23067733 0 0 1-16.83911111 35.82270578 80.43694459 80.43694459 0 0 1-24.98013867 23.89151289 54.99198578 54.99198578 0 0 1-31.00580978 7.48809481c-13.20429037-0.87017245-26.53358459-5.40672-36.28873955-14.57205096-9.78670933-9.13377659-15.34877392-21.90358755-17.89618252-34.85908385a134.62186667 134.62186667 0 0 1-0.99396267-41.78769541c1.77189925-12.30256355 6.9589523-23.82961778 13.26618548-34.42460444 6.64947675-10.9979117 14.85118578-21.15720533 24.66944949-29.42202312 7.33153659-6.2137837 15.90704355-11.49549985 25.44495881-13.42153008z m-298.75920592 118.06189038c12.05498311-2.1748243 24.73134459 0.34224355 35.38822636 6.27567882 15.78325333 8.69929718 27.96202667 22.9909997 35.85304652 39.05460147 3.16878697 6.61670875 5.6239597 13.73221925 6.30723318 21.09531023 1.95758459 18.48600652 1.5850003 37.5314963-3.75982458 55.45801955-3.60448 12.17877333-10.00394903 23.79927703-19.63531378 32.24978015-11.89963852 10.59498667-27.99236741 15.65824948-43.77562075 15.9373843a54.18370845 54.18370845 0 0 1-36.16494933-13.42153007c-13.11084089-11.30860089-21.25065482-27.43409778-25.50685392-44.02441483-2.79620267-11.27826015-4.10206815-23.08323555-2.23671942-34.61028977 2.67119882-19.26272948 8.32549925-38.5885677 19.41807408-54.71285096 7.95291497-11.58894933 20.00789808-20.90962489 34.11270164-23.30168889z m388.05079228 42.56441837c14.32325689-1.77189925 29.48513185 0.15534459 42.31683793 7.20896 11.80618903 6.42980978 21.09531022 16.90100622 27.27753957 28.76909037 5.1894803 9.87894518 8.73085155 20.69238518 9.69447347 31.81408711 0.49758815 15.90704355 0.74516859 32.00098608-2.57896297 47.62889482-2.33016889 10.93601659-6.43223703 21.71668859-13.48342517 30.51064888a50.42509748 50.42509748 0 0 1-26.50203023 17.18014104c-10.43964208 2.88843852-21.37565867 2.95154725-32.03254044 2.08137481-12.70670222-1.21120237-25.60030341-4.784128-35.7292563-12.83170606a55.20922548 55.20922548 0 0 1-18.14376296-27.74357334c-4.47465245-14.41670637-4.87879111-29.64047645-4.62999704-44.55234371 0.49758815-15.597568 2.67241245-31.44271645 8.91653689-45.92131792 4.66033778-10.74911763 12.2103277-20.59772208 22.4011757-26.65616118a56.85612089 56.85612089 0 0 1 22.49341155-7.48809482zM549.00356741 246.57798637a78.60436385 78.60436385 0 0 1 42.65665422 7.11551052c20.47393185 9.63136475 36.35063467 26.87461452 48.43595852 45.70165096 15.06963911 21.74824297 32.7473683 41.53890133 51.23337482 60.3671514a754.44679111 754.44679111 0 0 0 55.27233421 50.61078283c3.1991277 2.73430755 6.64826311 5.1894803 9.59981037 8.2332634a91.96399882 91.96399882 0 0 1 25.3211686 55.67647289c2.08137482 21.9339283-3.16878697 43.9625197-12.02342874 63.93886341-6.67981748 14.63394608-18.17531733 27.02995911-32.37357038 34.64184414-19.66686815 10.59498667-42.56441837 13.14360889-64.5614554 12.33533156a243.20773689 243.20773689 0 0 1-63.10145896-11.2479194 201.38970075 201.38970075 0 0 0-76.55332978-5.59240533c-11.89963852 1.30586548-23.45703348 4.62999703-35.29477689 6.46257777-26.62582045 4.38120297-53.74922903 5.84119941-80.71729303 4.07051378a78.60436385 78.60436385 0 0 1-57.91197867-29.360128 107.21932325 107.21932325 0 0 1-18.60979675-36.19529008c-3.72827022-12.14843259-5.996544-24.85513482-5.34482488-37.56183704a97.24571497 97.24571497 0 0 1 12.33533155-42.90666193c10.81101275-19.72876325 27.21564445-35.79115141 44.95648237-49.3692397 5.03292208-4.03895941 10.65566815-7.42498608 14.974976-12.30256355 8.35705363-7.73688889 17.18135467-15.00653037 25.38306371-22.86720948a274.432 274.432 0 0 0 41.44545185-48.529408c3.35568592-5.06447645 6.18344297-10.46998282 9.91171318-15.22377007 15.65824948-20.44359111 39.3337363-35.10787792 64.96559408-37.99753008m-46.23079349 91.06348563v54.55629275h-38.99149274a43.68338489 43.68338489 0 0 0-12.8001517 2.29982814 67.108864 67.108864 0 0 0-27.43409778 16.55997629c-9.13499022 9.07188148-15.53445925 20.69238518-19.13893925 33.02528949-1.86413511 11.18481067-2.08137482 22.74341925-0.09344948 33.95857066 1.95758459 10.71877689 5.96620325 21.31376355 12.89360118 29.88805689 9.04154075 11.6205037 21.84169245 20.72393955 36.4137434 23.70582756 6.89705718 1.61534103 14.01135408 0.80827733 21.00186075 1.02551704 21.77979733-0.06189511 43.5280403 0.03155437 65.306624-0.06189512l0.03155437-194.98901807-37.18925275 0.03155437m57.16681008 57.41560415l-0.03155437 97.95932918c-0.46603378 10.84378075 4.22585837 21.77979733 12.30377719 29.04943882 7.176192 6.40068267 16.71532089 9.78670933 26.22168177 10.68843615 29.91961125 0 59.83922252 0.03034075 89.78917452-0.03155438V395.11897125c-12.33411792 0-24.66823585-0.09344948-37.03390814 0.03034075 0.06189511 35.356672 0 70.713344 0 106.070016h-39.08494222a15.22377008 15.22377008 0 0 1-11.40205038-4.62999703 16.15583763 16.15583763 0 0 1-3.72827022-10.71877689c-0.03155437-30.29219555 0.03155437-60.55283675-0.03155437-90.81347793H559.93837037z" fill="#306CFF" p-id="2754"></path><path d="M461.57490252 426.03254518c2.54862222-1.05585778 5.12637155-2.42361837 7.95412859-2.36172326h33.3371923v77.51695171h-29.76426666a30.69633422 30.69633422 0 0 1-26.00444208-13.23463111 42.87510755 42.87510755 0 0 1-7.45654045-24.48255052c0.15534459-7.11551052 1.39810133-14.22980741 3.85206045-20.87807052 3.54137125-7.64343941 10.5634323-13.11205452 18.08308148-16.5599763z" fill="#306CFF" p-id="2755"></path></svg>