<?xml version="1.0" standalone="no"?>
<!DOCTYPE svg PUBLIC "-//W3C//DTD SVG 20010904//EN"
 "http://www.w3.org/TR/2001/REC-SVG-20010904/DTD/svg10.dtd">
<svg version="1.0" xmlns="http://www.w3.org/2000/svg"
 width="98.000000pt" height="100.000000pt" viewBox="0 0 98.000000 100.000000"
 preserveAspectRatio="xMidYMid meet">

<g transform="translate(0.000000,100.000000) scale(0.100000,-0.100000)"
fill="#000000" stroke="none">
<path d="M420 984 c-336 -72 -513 -440 -361 -749 30 -61 133 -185 154 -185 6
0 1 10 -10 22 -90 102 -135 297 -99 438 48 192 188 339 375 394 110 32 267 17
376 -36 l40 -19 -35 31 c-51 44 -145 88 -225 105 -85 18 -130 18 -215 -1z"/>
<path d="M583 828 c-24 -16 -43 -31 -43 -34 0 -3 57 30 89 53 2 2 2 5 0 7 -2
2 -23 -9 -46 -26z"/>
<path d="M466 793 c-35 -32 -62 -59 -61 -61 4 -5 154 102 154 111 2 21 -35 1
-93 -50z"/>
<path d="M593 799 c-29 -17 -53 -33 -53 -35 0 -5 47 19 94 47 52 31 15 21 -41
-12z"/>
<path d="M637 791 c-69 -40 -71 -47 -4 -15 31 16 57 32 57 36 0 10 2 11 -53
-21z"/>
<path d="M678 779 c-50 -26 -48 -31 2 -12 22 9 40 20 40 25 0 10 2 11 -42 -13z"/>
<path d="M655 731 c-27 -10 -76 -30 -109 -45 -32 -14 -65 -26 -72 -26 -12 0
-14 -45 -14 -251 l0 -251 30 7 c56 12 182 65 225 95 97 67 147 164 149 290 1
156 -83 229 -209 181z m-155 -315 c0 -146 -4 -237 -10 -241 -7 -4 -10 77 -10
234 0 154 4 241 10 241 6 0 10 -85 10 -234z m208 188 c12 -4 29 -19 37 -35 41
-79 -9 -182 -108 -224 l-38 -16 3 127 3 127 35 13 c43 15 40 15 68 8z"/>
<path d="M408 518 c4 -323 8 -354 10 -90 1 144 -1 262 -5 262 -5 0 -7 -78 -5
-172z"/>
<path d="M159 615 c-42 -89 -56 -176 -41 -256 34 -183 174 -317 363 -349 175
-30 362 59 452 213 38 64 34 81 -5 22 -44 -66 -134 -130 -220 -156 -203 -62
-413 31 -508 225 -30 60 -35 81 -38 160 -3 73 0 102 16 149 11 31 18 57 16 57
-3 0 -19 -29 -35 -65z"/>
<path d="M430 415 c0 -163 4 -255 10 -255 6 0 10 92 10 255 0 163 -4 255 -10
255 -6 0 -10 -92 -10 -255z"/>
</g>
</svg>
