<?xml version="1.0" standalone="no"?><!DOCTYPE svg PUBLIC "-//W3C//DTD SVG 1.1//EN" "http://www.w3.org/Graphics/SVG/1.1/DTD/svg11.dtd"><svg t="1727345322928" class="icon" viewBox="0 0 1024 1024" version="1.1" xmlns="http://www.w3.org/2000/svg" p-id="5401" xmlns:xlink="http://www.w3.org/1999/xlink" width="16" height="16"><path d="M613.148444 820.423111c-139.036444 36.465778-245.589333-10.126222-320.568888-80.497778-50.062222-46.961778-81.493333-103.395556-101.262223-170.439111-17.009778-57.628444-15.246222-120.206222-15.246222-181.589333 0-31.857778 19.057778-104.021333 25.116445-132.721778-39.253333 61.269333-86.613333 174.136889-86.613334 252.302222 0 217.6 176.384 393.955556 393.955556 393.955556 96.995556 0 203.576889-73.841778 254.464-148.650667-97.706667 43.747556-80.924444 49.550222-149.845334 67.640889zM746.382222 167.708444a394.467556 394.467556 0 0 0-149.902222-50.972444c-179.086222-22.897778-382.378667 92.814222-401.777778 271.189333 84.48-166.456889 214.215111-230.769778 369.351111-210.944 49.351111 6.314667 95.431111 21.475556 136.817778 43.662223l45.511111-52.906667z m-169.557333 565.76a7.850667 7.850667 0 0 0-2.759111 2.048c-1.706667 2.190222-2.56 8.334222-3.754667 11.150223-0.739556 1.792-6.286222 8.903111-6.286222 10.325333 0 1.28 1.848889 3.185778 3.612444 5.006222-10.012444 1.991111-20.224 3.356444-30.606222 4.209778 1.934222-2.446222 2.417778-4.579556-3.783111-4.892444 1.678222-4.494222 5.546667-7.054222 7.196444-11.406223 0.796444-2.076444 0.142222-2.872889 0.796445-4.920889 2.275556-7.025778 1.28-4.380444 0-9.841777a51.427556 51.427556 0 0 1-0.369778-1.706667h-148.024889v-257.109333a17.92 17.92 0 0 1-4.864-5.063111c-6.712889-9.102222-14.478222-18.147556-20.280889-27.790223-2.190222-3.640889-1.763556-5.973333-5.404444-9.443555-3.498667-3.356444-8.078222-4.977778-11.605333-8.163556-12.657778-11.377778-14.961778-26.624-13.539556-42.865778 0.483556-5.319111 2.389333-9.557333 1.536-14.648888a20.280889 20.280889 0 0 0-6.286222-10.808889l-3.697778-5.831111c-2.844444-4.778667-5.12-9.472-9.671111-13.368889a233.244444 233.244444 0 0 0-15.815111-12.003556 272.554667 272.554667 0 0 1 109.397333-81.806222 16.071111 16.071111 0 0 0 2.673778 6.4c3.555556 5.262222 6.912 4.835556 13.824 6.286222-0.739556 8.049778-10.126222 8.106667-16.469333 7.224889-7.594667-1.024-15.559111-3.555556-22.129778 3.100444 3.640889 2.161778 13.596444 10.666667 12.259555 1.792 7.281778-0.369778 14.279111-0.568889 21.390223 0.284445 2.844444 0.341333 12.401778 3.555556 14.990222 2.104889 1.080889-0.625778 2.247111-5.973333 3.384889-7.623111-2.019556 0-4.209778-1.024-6.229334-0.824889 4.721778-6.030222 9.386667-1.28 15.388445 1.479111-6.599111 3.982222-2.673778 13.596444 3.783111 5.802667 5.290667-6.4-1.308444-11.064889-8.021333-14.791112 6.769778-8.476444 10.951111-9.244444 17.351111 0.312889 1.024-5.888 5.802667-3.527111 10.780444-3.128889v-1.422222c-2.190222 0.028444-4.551111-1.223111-6.712889-0.995555 5.091556-8.106667 1.848889-9.955556 9.102222-12.600889 5.774222-2.104889 22.243556-0.142222 24.263112-5.575111-11.52 2.247111-25.457778 2.787556-35.84 8.021333-4.494222 2.275556-9.841778 9.386667-14.336 4.778667-4.551111-4.778667 3.299556-12.430222 7.338666-14.762667h-0.967111a271.303111 271.303111 0 0 1 93.44-3.384889c-4.181333 2.190222-1.109333 3.697778-4.152889 5.916445-5.802667 4.266667-16.128 7.850667-23.04 10.552888 8.789333 0 30.094222 8.248889 34.190222-4.096l-8.533333-1.308444c5.319111-3.498667 11.235556-6.343111 17.436445-8.448a271.217778 271.217778 0 0 1 143.758222 79.416889h-0.796445c-10.524444 0.284444-17.92 0.312889-26.396444 6.172444-3.413333 2.360889-5.745778 5.489778-10.069333 6.712889-3.896889 1.080889-8.106667 0.142222-11.946667 1.422222-13.937778 4.750222-11.719111 34.588444-30.065778 30.065778-8.647111-2.104889-14.705778-12.288-19.057778-18.944-3.811556-5.859556-10.780444-10.695111-6.058666-18.033778-2.161778 0.568889-4.437333-0.056889-6.542223 0.341334 2.929778-6.456889 12.8-5.888 14.421334-9.187556 4.096-8.277333-11.235556-9.130667-15.587556-10.296889 5.233778-5.575111 7.879111 1.877333 13.056 0.625778 4.949333-1.223111-2.616889-7.765333-5.603555-8.504889-1.052444-0.256-18.545778 4.835556-8.419556-4.209778l-37.461333-23.893333c-2.104889 8.846222 16.611556 13.880889 22.727111 17.009778-0.938667 3.669333-6.627556 8.988444-10.979556 7.424-4.124444-1.479111-2.446222-8.248889-8.647111-7.594667-4.408889 10.296889 9.358222 7.281778 10.638222 13.596445 1.422222 7.168-5.205333 4.124444-7.765333 4.010666-0.625778-0.028444-5.404444-4.977778-5.660444-1.223111-0.284444 4.437333 7.623111 2.702222 8.192 7.196445-9.244444 0.369778-13.937778-2.958222-21.475556-7.964445-8.760889-5.802667-13.283556-5.290667-24.035555-5.290666 3.242667-1.308444 7.651556-2.275556 10.410666-4.437334 1.479111-1.137778 7.395556-6.883556 7.765334-8.163555 1.678222-5.518222-0.085333-5.091556-5.347556-8.704-4.693333-3.214222-10.382222-8.96-16.071111-10.097778-20.593778-4.124444-6.343111 18.574222-21.987556 21.731555h0.796445-0.910222 0.113777c-3.612444-0.142222-10.410667-1.024-12.743111 0.881778-1.649778 1.336889-1.763556 6.741333-3.612444 8.704-3.271111 3.498667-8.135111 4.181333-12.060445 6.684445-3.811556 2.474667-12.231111 8.789333-14.449777 13.056-8.248889 15.758222 18.602667 20.650667 28.757333 25.258666 4.608 2.076444 18.033778 4.949333 20.536889 8.419556 3.356444 4.664889-2.872889 9.045333 4.124444 12.344889 2.247111 1.024 6.855111 1.251556 8.789334-0.910222 3.128889-3.527111-1.28-4.323556-2.019556-8.419556-1.479111-7.850667 0.938667-4.721778 4.892444-7.651556 8.049778-5.944889 6.229333-6.286222 3.328-15.758222-1.336889-4.408889-6.428444-16.725333-1.962666-19.968 5.831111-4.266667 18.204444 2.275556 22.698666 2.844445 5.176889 0.625778 8.135111 7.822222 10.951112 10.780444 1.877333 1.934222 5.262222 6.087111 8.533333 5.632 5.205333-0.711111 3.015111-5.262222 6.058667-7.367111 8.106667-5.603556 10.24 2.019556 13.454222 9.671111 3.043556 7.168 5.916444 9.841778 11.349333 14.421333 2.503111 2.161778 13.511111 9.813333 12.487111 14.506667-0.711111 3.185778-13.283556 7.992889-16.668444 9.073778-12.288 3.896889-35.356444-6.371556-37.831111 13.112889 4.778667-1.763556 18.346667-12.856889 22.414222-7.594667 1.848889 2.360889-1.479111 5.831111-0.682667 8.220445 2.304 7.111111 7.793778 4.608 13.539556 3.470222a10.040889 10.040889 0 0 1-1.223111 0.654222c7.850667-4.039111 7.025778-3.214222 10.609777-9.728 1.194667-2.133333 2.929778-7.310222 4.579556-8.846222 5.688889-5.233778 6.599111-1.621333 10.126222 2.417778 0.910222 1.052444 9.671111 13.653333 6.542222 12.999111-10.154667-2.019556-19.911111-1.763556-28.330666 3.811555-4.835556 3.185778-9.443556 7.509333-15.246222 9.671111-1.393778 0.483556-11.662222 1.450667-10.467556-0.284444 1.792-2.56 7.907556-4.266667 10.296889-7.025778-6.656-2.759111-12.231111 3.328-17.493333 6.883556-3.811556 1.792-5.632 4.664889-7.907556 7.68h254.862222c-41.244444-120.519111-155.534222-207.160889-290.048-207.160889-169.301333 0-306.517333 137.216-306.517333 306.517333 0 169.272889 137.216 306.517333 306.517333 306.517333 73.415111 0 140.8-25.827556 193.592889-68.892444H576.853333z m-200.874667-289.336888c-1.052444-0.227556 2.218667 7.623111 2.56 8.248888 3.242667 6.001778 8.106667 11.491556 12.032 17.066667 0.995556 1.450667 1.763556 2.702222 2.275556 3.697778v-13.511111l-0.085334-0.113778c-5.859556-7.253333-7.708444-13.454222-16.782222-15.36z m289.934222 257.934222h-71.594666v-137.557334c0-39.822222-14.336-59.733333-43.008-59.733333-13.681778 0-25.059556 5.290667-34.133334 15.928889-9.073778 10.609778-13.596444 24.177778-13.596444 40.675556v140.686222h-72.021333v-246.613334h72.021333v39.253334h0.881778c18.005333-30.151111 44.458667-45.226667 79.388444-45.226667 54.698667 0 82.062222 33.848889 82.062222 101.660445v150.926222z m56.376889-129.422222l88.206223-117.646223h-62.72l-70.712889 103.338667c-2.332444 3.697778-4.664889 8.106667-6.997334 13.226667h-0.739555v9.386666h0.739555c2.446222 5.831111 4.608 10.126222 6.542223 12.885334l74.666666 107.804444h66.56l-95.544889-128.967111z m106.353778-72.675556c0-11.918222 3.555556-21.617778 10.666667-29.070222 7.111111-7.480889 16.213333-11.235556 27.306666-11.235556 11.406222 0 20.622222 3.84 27.676445 11.463111 7.025778 7.651556 10.552889 17.265778 10.552889 28.842667 0 11.719111-3.584 21.504-10.780445 29.297778a35.669333 35.669333 0 0 1-27.420444 11.690666 35.271111 35.271111 0 0 1-27.249778-11.804444c-7.168-7.879111-10.752-17.635556-10.752-29.184z m18.830222 200.760889v-141.340445h41.130667v141.340445h-41.130667z" fill="#1A7BFF" p-id="5402"></path></svg>