<?xml version="1.0" standalone="no"?><!DOCTYPE svg PUBLIC "-//W3C//DTD SVG 1.1//EN" "http://www.w3.org/Graphics/SVG/1.1/DTD/svg11.dtd"><svg t="1727337073811" class="icon" viewBox="0 0 1024 1024" version="1.1" xmlns="http://www.w3.org/2000/svg" p-id="5788" xmlns:xlink="http://www.w3.org/1999/xlink" width="16" height="16"><path d="M476.174927 969.963848c-185.394752-18.808163-319.440233-129.865889-362.430321-300.333527-11.643149-45.97551-14.628571-77.023907-12.837317-134.941108 1.194169-42.990087 2.985423-57.917201 9.25481-82.397668 18.211079-71.351603 50.453644-134.344023 97.921866-191.365597 18.808163-22.390671 59.11137-59.11137 59.11137-53.73761 0 0.895627-5.075219 8.657726-11.643148 17.01691-34.929446 45.97551-57.021574 106.878134-65.977843 182.409329-4.478134 36.7207-2.388338 120.611079 3.88105 154.644898 24.480466 130.462974 94.936443 228.38484 203.60583 282.719534 58.812828 29.555685 134.941108 45.079883 204.501458 41.795918 100.608746-4.776676 205.098542-49.85656 296.452478-128.074635 9.25481-8.060641 17.01691-13.434402 17.01691-11.941691 0 4.478134-31.944023 53.737609-47.766764 73.739941-8.060641 10.44898-26.27172 29.555685-40.303207 42.691545-88.965598 84.188921-211.36793 121.805248-350.787172 107.773761z" fill="#3B2275" p-id="5789"></path><path d="M482.145773 794.122449c0-8.060641 6.866472-14.927114 14.628571-14.927114 5.075219 0 6.269388 1.791254 6.269388 9.851895 0 9.25481-0.895627 9.851895-10.44898 10.44898-8.956268 0.597085-10.44898-0.298542-10.448979-5.373761zM532.897959 792.92828c0-5.672303 1.492711-7.762099 5.970846-7.762099 3.283965 0 5.970845-2.089796 5.970845-4.478134s1.492711-4.478134 3.582507-4.478134c1.791254 0 5.672303-2.089796 8.657726-4.776677 2.68688-2.388338 12.538776-5.373761 21.793586-6.269388s16.718367-2.985423 16.718368-4.179591c0-1.492711 4.179592-6.56793 8.956268-11.643149 7.165015-7.463557 8.956268-11.643149 8.956268-22.390671 0-9.851895 1.194169-13.434402 4.478134-13.434402 2.985423 0 4.478134-3.283965 4.478134-10.44898 0-9.553353 0.597085-10.44898 8.956269-10.448979 6.866472 0 8.956268-1.194169 8.956268-5.970846 0-3.283965 1.194169-5.970845 2.68688-5.970845s1.791254-5.970845 0.895627-13.434402c-1.492711-14.330029-0.597085-15.225656 8.956268-10.150438 9.25481 5.075219 24.779009 0.895627 28.660059-7.762099 5.373761-11.344606 12.538776-9.553353 12.538775 2.985423 0 9.553353-0.597085 10.44898-8.956268 10.448979-7.762099 0-8.956268 1.194169-8.956268 7.7621 0 6.866472-0.895627 7.463557-8.060642 5.970845-6.269388-1.492711-7.165015-1.194169-3.881049 1.194169 2.388338 1.492711 9.553353 2.985423 15.82274 2.985423 8.956268 0 11.046064-1.194169 11.046064-5.970846 0-4.478134 2.089796-5.970845 8.657726-5.970845 8.359184 0 8.657726-0.597085 9.851895-14.927114 0.895627-14.628571 0.597085-14.927114-7.165014-14.927114s-8.060641-0.895627-7.762099-12.538775c0.298542-7.165015-0.597085-15.822741-1.791254-19.405248-2.089796-6.269388-1.194169-6.866472 8.359184-6.866472 8.657726 0 10.747522 1.194169 10.747522 5.970845 0 3.283965 1.492711 5.970845 2.985422 5.970846 1.791254 0 2.985423-4.776676 2.985423-10.44898v-10.448979l26.27172-0.298543c20.897959 0 24.779009-0.597085 19.405248-3.283965-5.075219-2.388338-6.866472-5.970845-6.866472-12.837317 0-8.956268 0.895627-9.851895 11.344606-11.643149 5.970845-0.895627 14.031487-1.791254 17.912537-1.791254 7.165015 0 15.524198-6.269388 15.524198-11.643148 0-1.791254 1.492711-3.283965 2.985423-3.283965 1.791254 0 2.985423-5.373761 2.985422-11.941691 0-9.851895 0.895627-11.941691 5.970846-11.941691 3.283965 0 5.970845-1.492711 5.970845-3.283965s4.776676-2.985423 11.344607-2.686881c18.808163 0.895627 24.181924-2.089796 25.077551-14.628571 0.895627-10.150437 1.492711-10.747522 11.643148-11.643149l11.046065-0.895627 1.492711 23.286298c2.388338 42.691545 2.089796 51.946356-2.388338 70.455976-15.225656 59.708455-42.691545 106.28105-88.667056 149.868222-26.868805 25.674636-35.825073 31.944023-51.349271 35.52653l-8.956268 2.089796 7.463557-6.269387c6.269388-5.373761 6.269388-5.970845 0.895627-3.283965-10.44898 5.075219-27.167347 6.56793-115.237318 10.150437-11.046064 0.597085-20.897959 1.791254-22.092128 2.985423s-4.179592 2.089796-6.56793 2.089796c-6.269388 0-35.825073 14.330029-37.019242 17.912536-0.597085 1.791254-5.970845 3.88105-12.240234 5.075219-10.44898 1.492711-11.046064 1.194169-11.046064-6.269388z m124.790671-77.023907c1.791254-1.791254 3.582507-5.672303 3.582507-8.657726 0-4.179592-2.089796-5.672303-8.956268-5.672303-7.463557 0-8.956268 1.194169-8.956268 7.463557 0 4.776676-1.791254 7.463557-4.478135 7.463557-2.388338 0-4.478134 1.492711-4.478134 3.283965 0 3.582507 17.315452 0.597085 23.286298-3.88105z m76.725364-28.660058c3.283965-2.68688 8.060641-7.762099 10.44898-11.046064s0.298542-2.388338-4.776677 2.388338c-5.075219 4.478134-10.44898 8.060641-12.538775 8.060641s-3.582507 1.492711-3.582507 2.985423c0 4.478134 3.582507 3.582507 10.448979-2.388338z m25.973178-21.196502c4.179592-5.075219 4.179592-5.970845 0.597085-7.463556-2.68688-0.895627-3.582507-0.298542-2.686881 1.194169 0.895627 1.791254 0.597085 2.985423-0.895627 2.985422s-2.68688 2.089796-2.68688 4.478135c0 5.672303-0.298542 5.672303 5.672303-1.19417zM643.358601 550.810496c0-8.657726 1.194169-10.44898 6.269387-10.44898 3.283965 0 8.060641 1.791254 10.44898 4.179592s4.179592 7.165015 4.179592 10.448979c0 5.075219-1.791254 6.269388-10.44898 6.269388-9.851895 0-10.44898-0.597085-10.448979-10.448979zM670.82449 554.691545c1.194169-8.657726 10.44898-10.44898 15.82274-3.283965 6.56793 8.359184 5.373761 9.851895-6.269387 9.851895-9.25481 0-10.44898-0.895627-9.553353-6.56793zM689.632653 549.317784c-4.776676-5.075219-4.776676-6.269388-0.597084-10.448979 2.68688-2.388338 8.657726-4.478134 13.732944-4.478134 8.657726 0 9.25481 0.895627 9.254811 10.448979s-0.895627 10.44898-8.359184 10.44898c-4.776676 0-11.046064-2.68688-14.031487-5.970846zM532.300875 503.342274c-6.269388-4.478134-7.165015-10.747522-1.492712-10.747522 4.478134 0 14.330029 10.747522 11.941691 13.13586-2.68688 2.68688-4.776676 2.089796-10.448979-2.388338zM552.900292 441.842566c-1.791254-6.56793-15.524198-8.657726-17.613995-2.388339-2.089796 5.672303-8.359184-0.597085-8.359183-8.359183 0-5.075219 1.492711-7.165015 5.970845-7.165015 3.283965 0 5.970845-1.194169 5.970846-2.68688s4.179592-3.283965 8.956268-4.179592c5.373761-1.194169 8.956268-3.88105 8.956268-6.56793s2.68688-4.478134 7.165015-4.478134c7.165015 0 10.747522-4.776676 10.747522-15.225656 0-4.776676 2.089796-5.672303 14.628571-5.672303 17.01691 0 18.211079 1.791254 18.211079 25.077551 0 17.613994-8.060641 31.645481-17.912537 31.645481-2.985423 0-6.56793 1.492711-7.463557 2.985422-0.895627 1.791254-7.762099 2.985423-14.628571 2.985423-10.44898 0-13.434402-1.194169-14.628571-5.970845zM258.239067 298.840816c0-7.165015 24.181924-50.752187 42.094461-76.12828 55.230321-77.322449 134.642566-132.851312 225.100874-157.033236 30.15277-8.060641 93.742274-11.046064 130.164432-6.269387 84.487464 11.344606 172.855977 58.514286 228.384839 121.805247 12.240233 14.031487 22.092128 26.27172 22.092129 27.46589 0 0.895627-11.941691 13.732945-26.570263 28.361516l-26.868804 26.570262-22.689213-21.196501c-60.305539-56.125948-133.149854-87.174344-227.190671-96.429155-44.184257-4.179592-84.786006-1.194169-129.567347 9.553353-74.934111 17.912536-154.94344 69.56035-202.411661 130.462974-6.866472 8.956268-12.538776 14.628571-12.538776 12.837317z" fill="#3B2275" p-id="5790"></path><path d="M520.359184 971.158017c8.657726-0.597085 22.092128-0.597085 29.854227 0s0.597085 0.895627-15.82274 0.895627-22.689213-0.298542-14.031487-0.895627zM581.56035 887.566181c2.68688-0.597085 7.463557-0.597085 10.448979 0 2.68688 0.895627 0.298542 1.492711-5.37376 1.492711s-8.060641-0.597085-5.075219-1.492711zM703.067055 763.671137c0-1.492711 2.089796-2.388338 4.776677-2.388338 2.388338 0 6.56793-2.089796 8.956268-4.478134 7.165015-6.866472 11.046064-5.373761 5.373761 2.388338-4.776676 5.970845-19.106706 9.553353-19.106706 4.478134zM184.200583 495.580175c0-5.672303 0.597085-8.060641 1.492711-5.075219 0.597085 2.68688 0.597085 7.463557 0 10.44898-0.895627 2.68688-1.492711 0.298542-1.492711-5.373761zM184.499125 446.3207c0-6.56793 0.597085-8.956268 1.194169-5.075219 0.597085 3.582507 0.597085 8.956268 0 11.941691-0.895627 2.68688-1.492711-0.298542-1.194169-6.866472zM257.34344 298.542274c0.895627-3.283965 2.985423-5.970845 4.478134-5.970845s2.089796-1.194169 1.194169-2.388339c-0.895627-1.492711 0.298542-2.68688 2.686881-2.68688 2.68688 0 2.089796 2.388338-2.388338 8.657726-7.463557 9.851895-8.060641 10.150437-5.970846 2.388338z" fill="#755592" p-id="5791"></path><path d="M528.419825 813.826239c-125.686297-20.599417-226.295044-117.028571-252.566764-242.117784-6.56793-30.749854-7.762099-87.174344-2.388338-115.834403 11.643149-64.783673 42.691545-122.700875 89.861225-168.0793 57.618659-55.230321 122.402332-83.293294 200.91895-86.875802 88.368513-3.88105 166.288047 25.973178 229.877551 88.667056 124.492128 122.10379 123.297959 320.33586-2.68688 441.245481-42.094461 40.303207-84.188921 63.888047-140.613412 78.218076-30.749854 8.060641-89.26414 10.150437-122.402332 4.776676z m126.581924-13.732945c13.13586-3.582507 25.077551-7.762099 25.973178-9.25481s3.582507-2.68688 5.970846-2.686881c7.463557 0 47.766764-20.897959 54.931778-28.361516 3.88105-4.179592 8.657726-7.463557 10.747522-7.463556 5.373761 0 37.616327-31.346939 34.929446-34.03382-1.194169-1.194169-0.298542-1.492711 2.089796-0.597084 2.68688 0.895627 8.060641-3.283965 13.434402-9.553353 5.075219-5.970845 6.866472-9.851895 4.478134-8.657726-2.388338 1.492711-1.492711 0 2.388339-2.68688 9.25481-6.866472 8.359184-8.956268-4.478135-9.553353-20.002332-1.492711-25.674636 1.492711-37.317784 19.70379-5.970845 9.25481-17.315452 23.286297-24.779009 31.048396-13.13586 13.732945-15.524198 22.689213-4.776676 19.106706 3.582507-1.492711 3.283965-0.597085-0.895627 2.68688-6.866472 5.075219-13.434402 5.672303-19.70379 1.492712-3.88105-2.68688-3.88105-3.582507 0.895627-6.269388 6.56793-3.88105 40.601749-43.885714 48.065306-56.42449l5.373761-9.553352-16.419825 1.194169c-8.956268 0.298542-15.822741 0-15.225656-1.194169 0.597085-0.895627-0.597085-2.388338-2.388338-3.283966-5.373761-1.492711-14.330029 0.895627-14.330029 4.179592 0 3.88105 4.179592 3.283965 8.359183-0.895626 2.388338-2.388338 3.582507-2.388338 3.582508-0.298543 0 1.791254-3.283965 5.373761-7.463557 8.060642-6.866472 4.478134-7.463557 4.478134-7.762099-0.298543-0.298542-2.985423-0.298542-6.56793 0-8.359183 0.298542-1.492711-1.791254-0.298542-4.179592 2.68688-2.388338 3.283965-4.478134 8.359184-4.478134 11.046064 0 2.985423-3.88105 11.344606-8.956269 18.509621-4.776676 7.463557-8.956268 14.628571-8.956268 16.121283 0 1.791254-2.68688 5.373761-5.970845 8.359184-3.582507 3.283965-5.373761 7.463557-4.478134 10.150437 0.895627 2.388338 0.895627 3.582507-0.298543 2.388338s-3.88105 0.298542-5.970845 3.283965c-3.283965 4.478134-2.68688 5.373761 7.165014 6.866473 7.165015 1.492711 1.492711 2.089796-15.82274 2.089796-14.628571 0-33.138192 0.895627-40.900292 1.791253-11.643149 1.791254-14.031487 1.194169-12.538775-2.388338 0.895627-2.388338 0.298542-5.075219-1.492712-6.269388-2.089796-0.895627-2.388338 0-1.492711 2.686881 1.492711 4.179592-2.388338 6.56793-5.672303 4.179592-0.597085-0.597085-3.283965 0.895627-5.970846 3.283965-2.985423 2.388338-8.359184 3.283965-13.13586 2.388338-4.776676-1.194169-6.56793-1.194169-4.478134-0.298543 2.388338 1.194169-2.089796 4.776676-11.046064 8.956269-8.359184 4.179592-15.225656 8.657726-15.225656 10.150437s-4.776676 3.582507-10.448979 4.776676c-8.060641 1.492711-12.240233 0.597085-16.419826-3.283965-3.582507-3.283965-7.762099-4.179592-11.941691-2.985422-5.970845 1.791254-6.269388 2.089796-0.895626 6.269387 5.075219 4.179592 4.776676 4.478134-2.089796 2.686881-6.269388-1.492711-6.56793-1.194169-2.089796 1.492711 7.463557 4.776676 58.514286 7.762099 90.458309 5.373761 14.927114-0.895627 38.213411-4.776676 51.647813-8.359184z m-174.348688-12.538775c4.179592-1.791254 7.463557-4.478134 7.463557-5.672303 0-6.866472-7.762099-17.613994-12.538775-17.613994-2.985423 0-5.373761-2.089796-5.373761-4.478135s0.895627-4.478134 2.388338-4.478134c1.194169 0 3.88105-2.68688 5.970845-6.269387 3.582507-5.672303 3.283965-5.672303-2.388338-2.686881-3.582507 1.791254-8.060641 7.463557-10.150437 12.240233s-4.776676 7.762099-6.269388 6.56793c-1.194169-1.492711-1.492711 1.194169-0.298542 5.672304 1.791254 7.463557 1.194169 7.762099-6.269388 6.56793l-8.359184-1.194169 7.463557 5.970845c4.179592 3.283965 9.851895 5.373761 12.837318 4.776676 2.68688-0.597085 5.075219 0 5.075219 1.492712 0 3.582507 1.194169 3.283965 10.448979-0.895627z m194.351021-35.227988c11.344606-16.121283 32.83965-55.230321 28.660058-52.543441-1.791254 0.895627-3.88105-0.298542-4.776676-2.985422-1.194169-3.582507-0.597085-4.478134 2.68688-3.283965 2.388338 1.194169 5.075219 0.597085 5.970846-0.895627 1.194169-1.791254-1.791254-2.985423-5.970846-2.985423-6.269388 0-7.762099 1.194169-6.269388 4.776676 1.194169 2.985423-0.895627 6.866472-5.672303 10.747522-5.970845 4.478134-6.866472 6.866472-4.478134 11.344607 2.089796 3.88105 2.089796 6.269388 0 7.463557-1.492711 0.895627-4.478134-1.492711-6.56793-5.672304-1.791254-4.179592-4.776676-7.762099-6.269388-7.762099-1.791254 0-1.791254 1.492711 0 3.88105 1.791254 1.791254 3.88105 6.269388 5.075219 9.25481 1.492711 4.776676 1.194169 5.075219-2.388338 2.089796-2.388338-2.089796-5.970845-2.985423-7.762099-1.791253-3.88105 2.388338-3.88105 10.44898 0.298542 10.448979 1.791254 0 1.194169 2.089796-1.492712 4.478134-2.388338 2.388338-6.269388 3.582507-8.956268 2.686881-2.388338-0.895627-7.463557 0.298542-11.046064 2.68688l-6.269388 4.478134 8.359184 4.776677c4.776676 2.388338 7.165015 4.478134 5.075219 4.776676-1.791254 0-5.970845 0.895627-8.956269 1.791254-4.478134 1.492711-4.776676 1.194169-0.895626-1.791254s3.88105-3.283965-0.597085-1.791254c-3.88105 1.194169-5.373761 0-5.373761-4.179591 0-2.985423-1.194169-6.56793-2.985423-7.463557-3.88105-2.388338-3.88105 4.478134 0.597085 13.732944 2.68688 5.970845 5.373761 7.165015 16.718367 7.165015 12.837318 0 14.330029-0.895627 23.286298-13.434402z m62.395335-74.635569c0.895627 0 0.895627 1.492711 0 2.985423-0.895627 1.791254-0.597085 2.985423 0.597084 2.985423 1.492711 0 4.179592-2.985423 6.56793-6.56793 3.88105-6.269388 3.88105-6.56793-0.298542-2.985423-3.88105 2.985423-5.075219 2.985423-6.56793-1.194169-1.194169-2.985423-0.298542-6.56793 1.492712-8.359184 2.68688-2.388338 2.985423-1.791254 1.492711 2.388338-1.492711 4.478134-1.194169 5.075219 2.089796 2.388338 2.388338-2.089796 4.776676-2.68688 5.672303-1.791253 0.895627 0.597085 2.388338-0.597085 3.283965-2.985423 1.194169-2.68688 0.597085-5.373761-0.895627-6.269388-1.791254-1.194169-2.985423-3.582507-2.985422-5.373761 0-2.089796 1.194169-1.791254 2.985422 0.895627 1.791254 2.985423 2.985423 3.283965 2.985423 0.895627 0-2.089796 2.089796-3.88105 4.776676-3.88105 3.88105 0 4.179592 0.895627 1.492712 3.88105-1.791254 2.388338-2.388338 5.075219-1.194169 5.970845 0.895627 1.194169 0.597085 2.089796-1.194169 2.089796-1.492711 0-2.985423 1.791254-2.985423 3.88105 0 2.388338 1.791254 4.179592 3.881049 4.179592s2.985423-1.791254 2.089796-4.179592c-0.895627-2.089796 0.298542-3.88105 2.388338-3.88105 3.582507 0 3.582507-0.597085 0.298543-2.68688s-3.283965-2.68688 0.597084-4.179592c6.56793-2.68688 8.657726 2.68688 2.985423 8.060641-2.388338 2.68688-3.582507 4.776676-2.388338 4.776677 0.895627 0 0.298542 2.089796-1.791254 4.478134s-4.776676 3.88105-5.970845 2.985423-2.985423 0.597085-4.179592 2.985422c-1.194169 3.582507 1.194169 4.478134 11.046064 4.478135 11.941691 0 13.434402-0.895627 18.509621-11.046065 8.956268-18.808163 25.376093-63.589504 25.376093-70.157434 0-1.492711-15.822741-2.089796-34.929446-1.791254-35.227988 0.597085-35.227988 0.597085-7.463557 1.492712 23.883382 0.895627 27.764431 1.791254 26.271721 5.672303-0.895627 2.68688-1.791254 5.970845-1.791254 7.762099s-1.791254 1.791254-4.478134-0.597084c-3.582507-2.985423-5.373761-2.985423-9.254811 0.298542-4.179592 3.582507-4.179592 4.179592 0.298543 7.463557s4.478134 3.88105-0.895627 6.866472c-3.582507 1.791254-8.060641 2.388338-10.44898 1.492711-4.179592-1.492711-8.956268 2.985423-9.851895 9.254811 0 1.791254-0.597085 4.776676-0.597084 6.866472-0.298542 2.089796-1.791254 3.283965-3.283965 2.388338-3.283965-2.089796-10.44898 5.970845-8.060642 9.553353 0.895627 1.492711-2.089796 2.388338-6.56793 2.089796-6.269388-0.298542-8.956268 1.492711-11.643149 8.359184-4.776676 10.44898-2.68688 15.225656 5.075219 11.046064 2.985423-1.492711 6.269388-2.985423 7.463557-2.985423z m93.742274-7.463557c5.075219-7.463557 10.150437-17.01691 11.046064-20.897959 0.895627-4.179592 3.283965-7.463557 4.776676-7.463557 1.791254 0 2.388338-2.089796 1.19417-4.478134-0.895627-2.388338 0-4.478134 1.791253-4.478134s2.68688-0.895627 1.492712-1.791254c-0.895627-1.194169 0-3.88105 2.388338-6.269387s4.478134-8.060641 4.478134-12.837318 1.791254-9.25481 3.881049-9.851895c1.791254-0.895627-8.359184-1.791254-22.987755-1.791254-14.628571-0.298542-25.973178 0.597085-24.779008 1.492711 0.895627 0.895627-2.089796 12.837318-6.866473 25.973178-4.776676 13.434402-7.762099 25.674636-6.866472 27.46589 1.194169 1.492711 0.895627 2.089796-0.298542 0.895626-2.089796-1.791254-16.718367 21.495044-16.718368 26.27172 0 0.597085 8.657726 1.194169 19.106706 1.19417h19.405248l8.956268-13.434403z m-152.555102-16.419825c0.597085-1.492711 2.68688-2.089796 4.179592-1.194169 2.089796 1.492711 2.388338 0.597085 0.895627-1.492711-1.194169-2.388338 0.298542-7.165015 3.582507-11.643149s6.56793-10.44898 7.762099-13.13586c2.388338-6.56793-2.68688-24.779009-8.657726-30.749854-2.68688-2.388338-3.582507-4.478134-2.089796-4.478134 1.194169 0 0.597085-1.194169-1.492711-2.686881-2.388338-1.492711-4.478134-5.970845-4.478134-10.448979-0.298542-4.179592-1.492711-7.762099-2.686881-7.7621-0.895627 0-2.388338-2.388338-3.283965-5.075218-0.597085-3.582507-2.089796-2.089796-3.881049 4.776676-3.582507 12.837318-7.165015 14.031487-15.524199 5.970846-5.373761-4.776676-6.269388-7.165015-3.283965-10.44898 2.68688-3.283965 2.089796-4.179592-3.881049-4.179592-3.88105 0-9.851895 2.089796-13.13586 4.478134-2.985423 2.388338-8.060641 4.478134-10.747522 4.478134s-7.165015 2.985423-9.553353 6.56793c-2.68688 3.582507-4.776676 5.373761-5.075219 3.88105 0-1.791254-1.194169-0.298542-2.68688 3.283965s-7.165015 7.463557-14.330029 9.553353c-8.359184 2.68688-12.240233 5.672303-13.434403 10.448979-1.492711 6.866472-0.298542 40.900292 1.492712 42.691546 1.194169 0.895627 16.121283-4.179592 32.242565-11.344607 8.956268-4.179592 11.344606-4.179592 18.509621-0.597084 4.776676 2.388338 8.359184 5.672303 8.359184 7.463556 0 2.388338 1.492711 2.089796 4.478134-0.298542 3.88105-2.985423 4.478134-2.68688 4.478134 2.388338 0 10.44898 8.657726 16.419825 20.599417 14.33003 5.970845-0.895627 11.046064-2.985423 11.643149-4.776677z m45.079883-8.956268c0-2.68688-1.194169-2.388338-2.68688 1.492711-1.492711 3.283965-2.68688 8.060641-2.686881 10.44898 0 2.68688 1.194169 2.388338 2.686881-1.492711 1.492711-3.283965 2.68688-8.060641 2.68688-10.44898zM324.515452 614.4c1.492711-4.776676 4.179592-8.359184 5.970845-8.359184 1.492711 0 2.089796-3.582507 0.895627-8.657726-1.492711-7.165015-0.298542-9.553353 7.165015-15.225656 8.956268-6.269388 9.25481-6.866472 8.359183-29.257142l-0.597084-22.987756 11.941691-12.837317c12.837318-14.031487 25.376093-32.83965 25.376093-38.511954 0-2.388338-2.985423-2.68688-10.747522-0.298542-10.150437 2.68688-11.344606 2.388338-19.405248-7.165015-4.478134-5.373761-8.359184-11.344606-8.657725-13.434402 0-1.791254-0.895627-3.88105-2.089796-4.478134-2.388338-0.895627-15.822741-31.944023-15.822741-36.123615 0-4.478134 5.672303-1.791254 7.463557 3.881049 0.895627 3.283965 3.582507 7.762099 5.373761 9.553353 2.089796 2.089796 6.866472 10.747522 11.046064 19.405248 4.179592 8.359184 8.359184 14.628571 9.553353 14.031487 1.194169-0.895627 1.492711 0.597085 0.597084 3.283965-1.492711 3.88105-0.597085 4.179592 5.075219 1.791254 16.718367-6.269388 33.138192-16.419825 37.616327-23.286298 4.478134-6.56793 4.179592-7.463557-1.19417-12.538775-3.88105-3.88105-7.463557-4.776676-12.240233-2.985423-4.478134 1.791254-6.56793 1.492711-6.56793-1.194169 0-2.089796-2.68688-5.373761-5.970845-7.463557-5.970845-3.582507-8.359184-12.538776-3.582508-12.538776 1.492711 0 5.075219 2.68688 8.060642 5.970846s8.359184 5.970845 12.240233 5.970845 7.762099 1.492711 8.657726 2.985423c0.895627 1.791254 6.866472 2.985423 13.434402 2.985423 8.060641 0 13.13586 2.089796 18.211079 7.463557 3.88105 3.88105 9.25481 7.463557 11.643149 7.463557 2.68688 0 4.776676 3.283965 5.075218 8.657726 0.597085 10.150437 12.240233 36.123615 16.121283 36.123615 3.283965 0 6.866472-13.732945 4.478134-17.315452-1.791254-2.985423 20.300875-26.570262 30.15277-32.242566 5.075219-3.283965 6.56793-2.089796 11.643149 9.553353 3.88105 8.956268 7.165015 12.538776 9.851895 11.643149 5.672303-2.089796 9.25481 3.88105 9.25481 16.419825 0.298542 9.553353 0.597085 9.851895 3.283965 3.582507l2.686881-6.866472 8.657726 5.970845c8.060641 5.970845 9.25481 5.970845 13.732944 1.492712 5.075219-5.075219 3.88105-14.330029-3.283965-22.390671-2.388338-2.388338-4.179592-7.762099-4.179592-11.344606 0-4.179592-1.194169-5.970845-3.582507-4.478134-1.791254 1.194169-2.388338 0.895627-1.492711-0.895627 1.194169-1.791254 0-4.179592-2.686881-5.075219-7.463557-2.985423-10.150437-2.089796-10.150437 2.68688 0 2.388338-1.194169 4.478134-2.686881 4.478135-5.075219 0-10.150437-9.25481-10.448979-18.808164s-0.298542-9.553353-17.315452-10.448979c-16.121283-0.895627-17.315452-1.492711-17.315452-8.060642 0-4.179592 1.492711-7.463557 2.985423-7.463557 1.791254 0 7.463557-3.88105 12.837318-8.657725 29.555685-26.868805 30.15277-27.167347 40.303207-25.376094 5.075219 1.194169 9.553353 0.597085 9.553352-0.895627s2.985423-2.68688 6.866473-2.68688c3.582507 0.298542 6.269388-1.194169 5.970845-2.985423s4.179592-4.776676 9.851895-6.866472 9.851895-5.373761 9.254811-7.165015c-0.895627-2.089796-2.985423-3.283965-4.776677-2.985422-5.075219 1.194169-3.88105-4.179592 1.194169-6.269388 2.388338-0.895627 4.478134-4.478134 4.478135-7.762099 0-8.359184 13.732945-8.359184 16.419825 0 1.791254 5.373761 5.672303 7.165015 15.82274 6.866472 8.359184-0.298542-0.895627 26.27172-11.344606 31.944023-5.075219 2.68688-5.672303 4.179592-2.686881 7.762099 1.791254 2.388338 2.388338 4.179592 1.194169 4.179592-1.492711 0-0.298542 2.388338 2.388339 5.373761 2.985423 2.985423 4.179592 6.866472 2.985422 8.359184s-0.298542 1.194169 1.791254-0.895627c3.283965-2.68688 3.582507-5.373761 1.194169-10.44898-3.582507-8.359184 0.597085-19.405248 8.359184-21.793586 6.866472-2.388338 14.330029-14.330029 15.524198-25.376093 1.492711-11.643149 5.075219-15.524198 5.075219-5.075218 0 4.179592 1.194169 8.359184 2.68688 9.553352 2.985423 1.492711 2.388338-5.373761-1.194169-16.419825-1.194169-3.582507-5.672303-6.56793-12.240233-7.762099-14.031487-2.68688-14.927114-5.672303-5.970846-17.315452 7.165015-9.553353 8.657726-10.150437 22.689213-9.25481 12.538776 0.895627 15.524198 0 18.211079-5.075219 2.388338-4.776676 5.075219-5.672303 11.941691-4.179592 5.373761 0.895627 8.657726 0.298542 8.657726-1.791253 0-1.791254 0.895627-2.388338 1.791253-1.492712 1.194169 1.194169-0.298542 5.373761-2.985422 9.553353s-4.179592 9.25481-2.985423 11.046064c1.194169 2.089796 0.895627 2.388338-1.194169 1.194169-5.075219-2.985423-4.478134 13.732945 0.597084 20.599417 3.88105 5.373761 4.478134 5.075219 8.956269-5.672303 3.88105-9.25481 4.179592-12.538776 1.194169-15.822741-2.985423-3.582507-2.089796-5.373761 3.582507-9.851895 4.179592-2.985423 8.359184-4.776676 9.553353-4.179591 1.492711 0.895627 6.56793-1.194169 11.344606-4.776677s10.44898-5.373761 12.240233-4.179592c2.388338 1.492711 2.388338 0.298542 0-4.179592-5.373761-10.150437-4.179592-12.837318 5.075219-10.747521 10.150437 2.68688 8.657726 0.895627-9.254811-8.956269-17.315452-9.553353-35.526531-17.315452-33.735276-14.330029 2.089796 3.582507-28.062974 1.791254-31.645482-1.791253-2.089796-2.089796-7.762099-3.582507-12.837317-3.582508s-10.747522-1.492711-12.538776-3.283965c-2.089796-2.089796-8.657726-3.88105-14.927114-4.776676-5.970845-0.597085-12.240233-2.68688-13.434402-4.776677-1.791254-2.388338-2.985423-1.492711-4.179592 2.985423-1.492711 5.672303-3.582507 6.269388-15.524198 5.373761-19.70379-1.194169-19.405248-0.895627-17.613994-5.672303 2.089796-5.075219-9.553353-10.150437-12.538776-5.672303-0.895627 1.492711-11.941691 2.68688-24.181924 2.68688-16.718367 0-28.361516 2.089796-45.97551 8.060642-25.674636 8.956268-56.42449 23.286297-57.917201 26.868804-0.597085 1.194169-2.388338 2.089796-4.179592 2.089796-3.582507 0-30.15277 18.509621-41.795918 29.257143-4.478134 4.179592-7.463557 8.956268-6.269388 10.44898 0.895627 1.791254 0.597085 2.089796-1.194169 1.194169-2.985423-1.791254-26.570262 21.196501-42.094461 41.497376-10.150437 13.434402-11.344606 16.121283-6.56793 16.121283 1.492711 0 2.68688-1.492711 2.089796-3.283965-0.298542-1.791254 1.194169-4.179592 3.582507-4.776677 2.68688-1.194169 3.283965 0 1.791254 4.776677-1.194169 3.88105-0.597085 6.269388 1.492711 6.269387 4.179592 0 11.941691 7.463557 11.941691 11.643149 0 3.88105 0.597085 3.88105-11.344606 0.597085-11.941691-3.582507-22.689213 0-27.465889 8.657726-4.179592 8.060641-3.283965 8.956268 10.747522 10.747521 6.269388 0.895627 11.643149 1.791254 11.94169 2.089796s-0.298542 4.776676-0.895626 10.150438l-1.492712 9.553352-17.016909-1.492711-16.718368-1.492711-6.56793 23.286297c-10.747522 38.213411-14.330029 76.12828-10.448979 110.460641 3.283965 28.958601 13.13586 68.366181 22.987755 91.951021l5.075218 11.941691 7.463557-8.956268c3.88105-5.075219 8.657726-12.538776 10.44898-17.01691z m46.572595-14.927114c1.791254-5.373761 4.179592-15.822741 5.373761-23.286297l2.089795-13.434402-8.657725 8.060641c-7.165015 6.866472-8.956268 11.046064-9.553353 23.286297-0.597085 17.613994 5.075219 20.599417 10.747522 5.373761z m438.857143-8.956268c-0.597085-1.791254-2.985423-4.179592-4.776677-4.776676-2.089796-0.597085-2.985423 0.597085-1.791254 3.582507 2.089796 5.373761 8.359184 6.56793 6.567931 1.194169z m55.827405-5.970845c-1.492711-7.463557-1.194169-8.956268 1.492711-5.373761 2.388338 3.283965 2.68688 1.492711 1.492711-7.463557-1.492711-8.956268-1.194169-10.747522 1.19417-7.463557 3.88105 5.373761 3.88105 2.985423 0.298542-14.927114-1.492711-8.359184-1.492711-14.628571 0.298542-17.016909 1.791254-2.089796 2.089796-7.165015 0.298542-13.434403l-2.68688-9.851895-2.388338 10.44898c-1.492711 5.672303-2.68688 11.643149-2.686881 12.837318-0.298542 1.492711-3.582507 4.478134-7.762099 6.56793-5.075219 2.68688-7.463557 6.56793-7.463557 12.240233 0 9.851895-6.56793 13.13586-8.060641 3.881049-1.492711-10.150437-8.359184-10.747522-8.060641-0.597084l0.298542 8.359184 2.68688-7.463557c2.089796-6.269388 2.388338-5.672303 1.194169 2.985422-0.895627 5.970845-4.478134 13.13586-8.657726 16.419826-3.88105 3.283965-8.060641 8.956268-9.25481 12.837317-1.791254 6.56793-1.492711 6.56793 23.883382 6.56793h25.973178l-2.089796-9.553352z m-52.841983-8.956269c-0.298542-5.373761 0.597085-12.240233 1.791254-14.927113 1.492711-3.283965 1.194169-5.373761-0.895627-5.373761-1.791254 0-3.283965 2.68688-3.283965 6.269387 0 3.283965-1.194169 5.373761-2.388338 4.478135-1.492711-0.895627-1.194169 2.985423 0.597084 8.657726 4.179592 12.837318 4.776676 13.13586 4.179592 0.895626z m15.822741-20.599417c-2.388338-11.344606-2.68688-11.941691-2.985423-3.582507-0.298542 5.075219 0.597085 11.643149 1.492711 14.330029 3.283965 8.657726 4.179592 2.985423 1.492712-10.747522z m-143.598834-11.344606c-9.553353-12.538776-17.01691-16.121283-30.451312-15.82274-4.478134 0-8.956268-1.194169-9.851895-2.686881-1.194169-1.492711-3.283965-2.68688-4.776676-2.68688-3.88105 0 2.985423 7.165015 11.643148 11.643148 3.582507 1.791254 6.56793 5.373761 6.56793 7.463557 0 5.672303 7.165015 8.060641 17.613994 5.970846 5.970845-1.194169 8.956268-0.298542 10.150438 2.985422 1.194169 2.68688 3.283965 4.776676 5.373761 4.776677 1.791254 0-0.895627-5.373761-6.269388-11.643149z m133.448396-8.359184c-0.895627-2.985423-1.492711-0.597085-1.492711 5.075219s0.597085 8.060641 1.492711 5.373761c0.597085-2.985423 0.597085-7.762099 0-10.44898z m-263.015743-5.373761c0.298542-2.388338-1.492711-4.478134-4.179592-4.478134-2.388338 0-3.582507-0.895627-2.68688-2.089796 1.194169-0.895627 0-4.478134-2.985423-7.463556-2.68688-3.283965-3.283965-5.373761-1.492711-5.373761 6.269388 0 3.88105-10.747522-4.179592-18.211079-7.762099-7.165015-8.060641-7.165015-4.478134-0.298542 4.179592 8.060641 2.089796 12.837318-5.075219 10.448979-4.776676-1.791254-4.776676-1.492711-0.298542 3.88105 2.68688 2.985423 7.463557 10.44898 10.150437 16.121283 7.762099 14.927114 13.732945 17.912536 15.225656 7.463556z m302.721866-1.791253c0-5.373761-0.597085-5.970845-4.478134-2.686881s-3.88105 4.478134-0.895627 6.269388c5.373761 3.582507 5.373761 3.582507 5.373761-3.582507z m-267.493878-5.970846c3.582507-6.866472 4.478134-22.092128 1.492712-25.077551-0.895627-0.895627-5.373761 2.68688-10.150438 7.463557-4.776676 5.075219-10.44898 8.956268-12.538775 8.956268-3.283965 0-3.283965 1.791254 0.895627 8.359184 5.970845 10.44898 14.927114 10.44898 20.300874 0.298542z m15.822741 4.179592c0-2.089796-1.492711-3.582507-3.283965-2.985423-4.478134 1.492711-5.373761 7.165015-0.895627 7.165015 2.388338 0 4.179592-1.791254 4.179592-4.179592z m12.837318-36.7207c0-3.88105-1.492711-5.373761-4.179592-4.179591-2.388338 0.895627-3.582507 3.582507-2.686881 5.970845 2.388338 6.269388 6.866472 5.075219 6.866473-1.791254z m-13.13586-26.868804c0.298542-8.956268-2.985423-12.240233-5.672304-5.075219-1.194169 2.985423 2.68688 14.031487 4.776677 14.031487 0.298542 0 0.597085-4.179592 0.895627-8.956268z m-32.541108-33.436735c0.298542-6.56793-0.597085-7.762099-5.970846-6.866472-15.225656 2.985423-17.912536 17.613994-2.68688 15.82274 6.269388-0.597085 8.060641-2.68688 8.657726-8.956268z m17.613994-2.68688c5.672303-6.269388 5.672303-6.269388-1.791254-5.373761-4.179592 0.597085-7.762099 3.582507-8.359183 6.56793-1.492711 6.866472 3.283965 6.56793 10.150437-1.194169z m6.269388-17.01691c-0.298542-5.672303-2.68688-9.553353-6.866473-11.643149-5.672303-2.68688-6.56793-2.089796-5.672303 3.88105 0.298542 3.88105-0.597085 7.165015-1.791254 7.165014-1.492711 0-2.68688 2.089796-2.68688 4.478135 0 2.985423 2.985423 4.478134 8.657726 4.478134 7.463557 0 8.657726-1.194169 8.359184-8.359184z m33.735277-14.031487c2.089796-2.388338 4.478134-3.88105 5.672303-3.283965 0.895627 0.597085 4.776676 0 8.657726-1.492711 5.373761-2.089796 6.56793-4.776676 6.269388-13.732945 0-6.269388-0.895627-9.25481-1.791254-6.866472-0.597085 2.388338-2.089796 6.56793-2.985423 8.956268-1.194169 2.388338-1.492711 5.672303-1.194169 6.866472 0.298542 1.492711-0.895627 1.791254-2.68688 0.597085s-4.776676-0.597085-6.866473 0.895627c-2.089796 1.791254-4.478134 3.283965-5.672303 3.283965-1.492711 0.298542-2.388338 1.194169-2.089796 2.089796 0 1.194169-1.492711 3.283965-3.881049 4.478134-2.388338 1.492711-2.68688 2.68688-0.597085 2.68688 1.791254 0 5.075219-2.089796 7.165015-4.478134z m25.077551-39.109038c0.895627-2.089796-0.597085-4.478134-2.985423-5.373761s-4.179592-1.194169-4.179592-0.597084c0 0.895627-0.597085 3.283965-1.492711 5.672303-1.194169 2.388338 0 4.179592 2.68688 4.179592 2.388338 0 5.075219-1.791254 5.970846-3.88105z m118.819825-74.635568c-2.68688-3.582507-6.269388-5.672303-8.060642-4.776677-1.492711 0.895627-1.194169 2.089796 0.895627 2.985423 2.089796 0.597085 3.582507 2.68688 3.582507 4.776676s1.791254 3.88105 4.179592 3.88105c3.582507 0 3.283965-1.492711-0.597084-6.866472z" fill="#407AB1" p-id="5792"></path><path d="M700.081633 764.268222c2.388338-1.492711 6.56793-2.985423 8.956268-2.985423 3.88105 0 3.88105 0.298542 0 2.985423-2.388338 1.492711-6.56793 2.985423-8.956268 2.985422-3.88105 0-3.88105-0.298542 0-2.985422zM372.8793 377.655977c-1.194169-2.68688-1.194169-5.672303 0-6.56793 0.895627-1.194169-0.298542-4.179592-2.985422-7.165015-5.672303-6.269388-4.478134-17.315452 2.388338-21.793586 6.56793-4.179592 9.553353-0.895627 5.672303 6.56793-2.089796 3.88105-2.089796 6.56793 0.298542 8.956268 2.089796 2.089796 3.582507 5.970845 3.88105 8.657726 0.298542 2.985423 1.194169 7.165015 1.791253 9.553353 1.791254 6.269388-8.956268 7.762099-11.046064 1.791254zM399.15102 351.085714c0.298542-2.985423 2.388338-5.075219 3.88105-5.075218 4.478134 0.298542 3.582507 7.165015-0.895627 8.657726-2.68688 0.895627-3.88105-0.597085-2.985423-3.582508z" fill="#407AB1" p-id="5793"></path><path d="M214.950437 853.233819l-14.927113-15.82274 15.82274 14.927113c14.330029 13.732945 17.01691 16.419825 14.628572 16.419825-0.298542 0-7.463557-7.165015-15.524199-15.524198zM299.736443 777.105539l-10.150437-11.344606 11.344606 10.150437c5.970845 5.672303 11.046064 10.747522 11.046064 11.344607 0 2.388338-2.388338 0-12.240233-10.150438zM184.499125 471.696793c0-14.031487 0.597085-19.70379 1.194169-12.538776 0.597085 6.866472 0.597085 18.211079 0 25.376094-0.597085 6.866472-1.194169 1.194169-1.194169-12.837318zM226.892128 238.833819c6.269388-6.56793 12.240233-11.941691 13.13586-11.941691s-3.88105 5.373761-10.150437 11.941691-12.240233 11.941691-13.13586 11.941691 3.88105-5.373761 10.150437-11.941691zM341.830904 171.661808c5.672303-5.672303 10.747522-10.44898 11.643148-10.44898s-2.985423 4.776676-8.657725 10.44898-10.747522 10.44898-11.643149 10.448979 2.985423-4.776676 8.657726-10.448979zM865.772595 163.601166l-14.927114-15.82274 15.822741 14.927113c8.359184 8.060641 15.524198 15.225656 15.524198 15.524199 0 2.388338-2.68688-0.298542-16.419825-14.628572z" fill="#9A81B1" p-id="5794"></path><path d="M554.393003 814.721866c2.089796-1.194169-1.194169-2.68688-8.359184-3.283965-6.269388-0.895627 5.075219-1.492711 25.973178-1.791254 20.599417-0.298542 43.28863-1.194169 50.752187-1.791253 9.851895-1.194169 11.344606-0.895627 5.672303 0.895626-4.179592 1.492711-11.344606 2.985423-16.419825 2.985423-6.866472 0.298542-8.060641 1.194169-4.478134 3.283965 2.985423 1.791254-5.672303 2.68688-26.27172 2.388338-16.718367-0.298542-28.958601-1.492711-26.868805-2.68688zM500.058309 800.093294c0-3.283965 9.851895-8.956268 15.524198-8.657725 2.089796 0 0 1.791254-4.776676 3.881049-5.970845 2.68688-7.463557 4.478134-4.478134 5.672303s2.68688 1.791254-0.895627 1.791254c-2.985423 0.298542-5.373761-0.895627-5.373761-2.686881zM529.613994 795.018076c-3.582507-4.776676-3.582507-5.075219 0.298542-1.791254 2.388338 1.791254 7.762099 3.88105 11.941691 4.776677l7.463557 1.194169-7.762099 0.597084c-4.478134 0-9.851895-2.089796-11.941691-4.776676zM625.744606 772.030321c1.194169-1.194169 6.269388-3.283965 11.643149-4.776677 5.672303-1.492711 8.657726-1.791254 7.165015-0.298542-2.985423 2.985423-21.495044 7.762099-18.808164 5.075219zM656.195918 768.149271c4.478134-0.597085 11.046064-0.597085 14.927114 0 3.582507 0.597085 0 1.194169-8.359184 1.194169-8.060641 0-11.344606-0.597085-6.56793-1.194169zM740.38484 767.850729c-5.373761-3.88105-4.179592-8.359184 2.388338-8.657726 4.776676-0.597085 5.373761 0 2.388338 1.791254-2.089796 1.492711-2.985423 4.179592-2.089796 5.970845 2.388338 3.88105 1.492711 4.179592-2.68688 0.895627zM731.130029 690.52828c1.492711-2.388338 0.298542-3.88105-3.283965-4.179592-4.179592 0-4.478134-0.597085-0.895627-1.791254 2.388338-0.895627 8.060641-5.075219 12.538776-8.956268 6.866472-6.56793 7.762099-6.866472 7.165014-2.089796-0.597085 3.283965-2.68688 5.672303-5.075218 5.672303s-4.179592 1.492711-4.179592 3.582508-1.791254 5.373761-4.179592 7.463557c-2.985423 2.985423-3.582507 2.985423-2.089796 0.298542zM639.179009 648.135277c-0.895627-1.492711 0.298542-4.179592 2.68688-6.269388 3.582507-2.985423 4.478134-2.985423 4.478134 0.895627 0 5.672303-4.776676 9.25481-7.165014 5.373761zM586.635569 593.203499c0-0.895627 4.478134-2.985423 9.553352-4.776677 5.373761-1.791254 8.359184-2.089796 6.866473-0.597084-3.582507 2.985423-16.419825 7.463557-16.419825 5.373761zM283.61516 582.157434c-1.194169-5.075219-1.492711-10.150437-0.597084-10.747521 0.597085-0.895627 2.089796 2.985423 3.283965 8.060641 2.388338 12.538776 0 14.927114-2.686881 2.68688zM377.954519 570.812828c-0.298542-4.478134-1.492711-6.269388-3.88105-4.776676-2.089796 1.492711-2.388338 0.895627-0.895626-1.492712 2.985423-5.373761 8.359184 0.597085 6.56793 7.463557-1.194169 4.478134-1.492711 4.179592-1.791254-1.194169zM346.60758 556.482799c-1.194169-10.44898-0.597085-21.196501 0.895627-25.376093 2.68688-5.970845 2.68688-5.075219 1.492711 4.776676-0.895627 6.56793-0.298542 15.225656 1.194169 19.405248s1.791254 10.150437 0.597085 13.434402c-1.492711 3.88105-2.68688 0.298542-4.179592-12.240233zM411.391254 550.810496c0-6.56793 0.597085-8.956268 1.194169-5.075219 0.597085 3.582507 0.597085 8.956268 0 11.941691-0.895627 2.68688-1.492711-0.298542-1.194169-6.866472zM574.693878 546.033819c3.283965-2.089796 1.791254-2.68688-5.075219-1.492711-6.56793 0.895627-9.851895 0-9.851895-2.388338 0-4.776676 16.419825-2.68688 20.599417 2.388338 2.089796 2.388338 1.194169 3.582507-3.582508 3.881049-5.373761 0.597085-5.672303 0-2.089795-2.388338zM684.557434 543.944023c1.194169-3.283965 0.298542-3.88105-2.68688-2.089796-2.388338 1.194169-3.283965 1.492711-2.089796 0 1.194169-1.194169 0.597085-4.478134-1.492711-7.165014-3.283965-4.179592-2.985423-4.179592 1.791253-0.597085 8.060641 6.269388 11.643149 14.330029 6.56793 14.330029-2.089796 0-3.283965-2.089796-2.089796-4.478134zM276.748688 537.376093c0-5.672303 0.597085-8.060641 1.492711-5.075218 0.597085 2.68688 0.597085 7.463557 0 10.448979-0.895627 2.68688-1.492711 0.298542-1.492711-5.373761zM696.499125 534.987755c2.68688-3.283965 6.269388-5.075219 7.762099-4.179592s0.298542 3.283965-2.68688 5.672303c-8.060641 5.672303-11.344606 4.776676-5.075219-1.492711zM408.405831 512c0-11.344606 0.597085-15.822741 1.194169-9.553353 0.597085 5.970845 0.597085 15.524198 0 20.897959-0.597085 5.075219-1.194169 0.298542-1.194169-11.344606zM599.174344 521.851895c2.388338-3.582507 6.269388-7.165015 8.657726-7.762099 3.582507-0.895627 3.582507-0.597085 0 1.791254-2.388338 1.791254-2.68688 3.283965-0.597085 3.881049 1.492711 0.597085-0.298542 2.68688-4.478134 4.776677-7.463557 3.582507-7.463557 3.283965-3.582507-2.686881zM353.772595 521.553353c0-0.597085 4.478134-4.776676 9.851895-9.851895l9.553353-8.657726-8.657726 9.851895c-8.359184 8.956268-10.747522 11.046064-10.747522 8.657726zM886.073469 507.521866c0-7.463557 0.597085-10.44898 1.194169-6.56793 0.597085 3.582507 0.597085 9.553353 0 13.434402-0.597085 3.582507-1.194169 0.597085-1.194169-6.866472zM566.036152 512.597085c0.597085-0.597085 5.373761-3.283965 10.150437-6.56793l8.956268-5.373761-5.672303 6.269387c-3.283965 3.582507-7.762099 6.56793-10.150437 6.56793-2.68688 0-3.88105-0.298542-3.283965-0.895626zM474.682216 494.386006c0.895627-3.283965 0-6.866472-2.089796-8.359184-2.68688-1.492711-2.985423-2.388338-0.298542-2.388338 5.672303 0 7.463557 5.373761 3.881049 11.046064-3.283965 5.075219-3.283965 4.776676-1.492711-0.298542zM497.968513 476.174927c0-11.344606 0.597085-15.822741 1.194169-9.553353 0.597085 5.970845 0.597085 15.524198 0 20.89796-0.597085 5.075219-1.194169 0.298542-1.194169-11.344607zM276.748688 477.667638c0-5.672303 0.597085-8.060641 1.492711-5.075218 0.597085 2.68688 0.597085 7.463557 0 10.448979-0.895627 2.68688-1.492711 0.298542-1.492711-5.373761zM410.794169 471.099708c0-9.25481 0.597085-17.613994 2.089796-18.211078 1.194169-0.895627 1.791254 4.776676 1.194169 12.240233-1.492711 21.793586-2.985423 24.480466-3.283965 5.970845zM607.533528 476.174927c2.089796-2.388338 2.089796-4.478134 0.298542-5.672303-1.492711-0.895627-3.582507 0-4.179592 1.791254-1.194169 2.68688-1.791254 2.985423-1.791254 0.298542-0.597085-6.269388 4.776676-6.866472 11.941691-1.194169l6.56793 5.373761-7.762099 1.492711c-6.269388 1.194169-7.463557 0.597085-5.075218-2.089796zM350.787172 467.517201c-5.075219-6.56793-5.373761-7.762099-1.194169-4.179592 4.776676 4.179592 6.866472 4.478134 9.851895 1.492712 2.985423-2.68688 3.283965-2.388338 1.492711 1.791253-1.791254 4.478134-0.895627 4.776676 6.269388 2.089796 10.44898-3.88105 25.077551-11.941691 32.83965-17.912536 5.373761-4.179592 5.672303-4.179592 1.791254 0.597084-2.089796 2.985423-12.837318 9.851895-23.883382 15.225656l-19.70379 9.851895-7.463557-8.956268zM279.734111 456.769679c0-5.672303 0.597085-8.060641 1.492711-5.075218 0.597085 2.68688 0.597085 7.463557 0 10.448979-0.895627 2.68688-1.492711 0.298542-1.492711-5.373761zM334.068805 435.87172c-1.194169-4.179592-1.791254-9.25481-1.492712-11.643149 0.298542-2.089796-0.597085-2.985423-2.388338-1.791253-1.791254 0.895627-3.283965-0.298542-3.283965-2.686881 0-7.762099 5.075219-5.373761 8.956268 4.179592 2.089796 5.075219 4.776676 8.956268 5.970846 8.956268s2.985423 2.68688 3.881049 5.672304c2.388338 9.25481-8.956268 6.56793-11.643148-2.686881zM437.961516 441.245481c-2.089796-2.089796-3.582507-4.776676-3.582507-6.56793 0-1.492711 1.791254-0.895627 3.881049 1.791254 1.791254 2.68688 6.269388 5.373761 9.553353 6.269387 5.970845 1.492711 5.970845 1.492711 0 1.791254-3.582507 0-7.762099-1.194169-9.851895-3.283965zM389.89621 424.825656c-2.089796-2.388338-5.672303-3.582507-7.762099-2.68688-2.388338 0.895627-5.672303-0.597085-7.762099-2.985423-2.985423-3.582507-2.68688-3.88105 2.089796-2.388338 5.373761 1.492711 5.373761 1.492711 0-2.985423-3.283965-2.68688-4.776676-4.776676-3.283965-4.776677s5.373761 2.68688 8.956268 5.970846c3.283965 3.283965 9.25481 6.269388 12.837318 6.866472s7.463557 2.089796 8.657726 3.88105c1.492711 1.492711 1.194169 1.791254-0.298543 0.597084s-4.179592-1.194169-5.970845 0.298543c-2.089796 1.791254-4.776676 0.895627-7.463557-1.791254zM523.344606 418.556268c-1.791254-6.56793-7.165015-8.060641-26.868804-6.56793-10.747522 0.597085-29.854227-16.419825-23.286298-20.599417 2.388338-1.791254 4.478134-4.776676 4.478134-6.866472 0-5.373761 13.732945-6.866472 16.718368-1.791254 1.791254 2.68688 2.68688 0.895627 2.985423-5.075218l0.298542-8.956269 3.582507 8.657726 3.88105 8.359184 1.791253-6.866472c1.194169-3.88105 2.089796-10.150437 2.089796-13.434403 0-7.165015 7.762099-11.643149 13.13586-7.762099 5.373761 4.179592 29.555685 7.165015 31.346939 3.88105 1.194169-1.791254 3.582507-1.791254 5.970846-0.597085 2.985423 1.791254 1.492711 3.283965-5.075219 4.776677-10.44898 2.089796-42.393003 30.451312-42.393003 37.317784 0 3.88105-0.298542 3.88105-2.985423 0-2.388338-3.88105-2.985423-3.582507-2.985422 0.895627 0 3.283965 2.388338 5.075219 7.165014 5.075218 7.762099 0 14.927114 6.866472 13.13586 12.538776-0.895627 2.089796-2.089796 0.597085-2.985423-2.985423zM302.423324 403.927697l-8.060642-1.194169 5.672303-10.150438c2.985423-5.373761 4.776676-10.747522 3.582508-12.240233-1.194169-1.194169-0.298542-1.194169 2.089796 0.298542 3.88105 2.089796 8.956268 3.283965 22.092128 4.179592 2.68688 0 5.075219 1.791254 5.075219 3.582508s-2.68688 2.388338-6.56793 1.194169c-6.866472-2.089796-6.866472-2.089796-0.895627 2.985422 4.179592 3.582507 4.478134 4.478134 1.194169 3.582508-2.68688-0.895627-4.776676 0.298542-4.776677 2.68688s1.791254 3.88105 4.179592 2.985423c2.089796-0.895627 3.88105-0.298542 3.88105 1.194169 0 3.88105-4.776676 3.88105-12.538776-0.298542-4.478134-2.388338-5.672303-2.388338-4.179592 0 1.194169 1.791254 1.194169 2.985423-0.298542 2.985422-1.194169-0.298542-5.970845-1.194169-10.448979-1.791253zM621.266472 401.539359c-0.895627-2.68688 0.298542-5.373761 2.686881-6.269388 2.388338-1.194169 3.582507-3.283965 2.388338-5.075219-0.895627-1.791254-0.298542-2.089796 1.492711-0.895627 2.089796 1.194169 3.582507 0.895627 3.582508-0.597084s3.582507-4.179592 7.762099-6.269388c6.866472-2.985423 7.762099-4.776676 6.269388-13.434402-1.194169-6.866472-0.298542-9.851895 2.388338-9.851895 4.179592 0 2.985423 16.121283-1.791254 21.793586-1.492711 1.791254-1.492711 4.478134-0.298542 5.672303 1.194169 1.492711 0.298542 1.492711-1.492712 0.298542-6.269388-3.582507-10.747522 1.194169-6.269387 6.56793 2.68688 3.283965 2.68688 4.179592 0.298542 2.686881-2.089796-1.492711-5.373761 0.298542-7.463557 3.881049-4.478134 7.165015-7.165015 7.463557-9.553353 1.492712zM611.71312 391.388921c2.089796-2.985423-5.672303-10.150437-11.941691-11.046064-2.388338-0.298542-4.179592 0.895627-4.179592 2.388338 0 1.791254-2.68688 0.895627-5.970846-2.089796l-6.269388-5.672303 5.970846-5.970845c5.970845-5.672303 6.269388-5.672303 11.941691-0.597085 3.283965 2.985423 5.373761 6.56793 4.776676 7.762099s1.194169 4.478134 4.179592 7.165015c4.478134 3.88105 5.970845 4.179592 7.165015 1.194169 1.194169-2.68688 1.791254-2.388338 1.791253 0.895627 0.298542 2.68688-1.791254 5.970845-4.478134 6.866472-2.388338 0.895627-3.88105 0.597085-2.985422-0.895627z m-12.538776-21.793586c-3.283965-3.283965-9.553353-0.895627-9.553353 3.582508 0 3.582507 10.150437 5.373761 11.643149 2.089795 0.597085-1.492711-0.298542-3.88105-2.089796-5.672303zM312.275219 365.117201c2.388338-3.88105 5.075219-6.866472 6.269387-6.866472 1.492711 0 2.388338-2.68688 2.388339-5.970846 0-3.88105 1.492711-5.373761 4.478134-4.179591s3.88105 0 2.985422-4.478135c-0.597085-3.283965 0.298542-7.165015 2.089796-8.060641 1.791254-1.194169 2.388338-0.895627 1.194169 1.194169-0.895627 1.492711-0.597085 3.582507 0.895627 4.179592 1.492711 0.298542 2.089796 4.478134 1.194169 8.956268-1.194169 5.672303-2.985423 7.463557-6.56793 6.269388s-3.88105-0.895627-0.597084 1.492711c2.089796 1.492711 6.56793 2.089796 9.553353 1.492712 3.582507-0.895627 5.672303 0 5.672303 2.388338 0 3.283965 0.597085 3.283965 2.985423-0.298542 2.388338-3.88105 2.985423-3.582507 2.985422 0.895626 0 5.373761-4.478134 6.866472-7.165014 2.388339-2.388338-3.582507-22.092128-1.492711-27.764432 3.283965-4.478134 3.582507-4.478134 3.283965-0.597084-2.686881zM369.296793 363.62449c-8.060641-8.060641-0.597085-26.27172 8.956268-22.390671 2.388338 1.194169 2.089796 1.791254-1.194169 1.791254-2.985423 0.298542-5.373761 1.791254-5.373761 3.582507 0 1.492711 1.492711 2.089796 3.582507 0.895627 2.089796-1.492711 2.68688-0.597085 1.492712 2.68688-0.895627 2.388338 0.298542 6.269388 2.388338 8.060642 4.776676 3.88105 3.283965 8.956268-2.68688 8.956268-1.791254 0-5.075219-1.492711-7.165015-3.582507z m8.359184-2.089796c0-1.492711-2.089796-4.179592-4.478134-6.269388-3.582507-2.985423-4.478134-2.985423-4.478135 0.597085 0 2.388338 0.895627 5.373761 2.089796 6.269387 2.68688 2.985423 6.866472 2.68688 6.866473-0.597084zM570.514286 355.563848c-5.373761-2.089796-5.373761-2.388338 1.194169-4.179591 8.060641-2.089796 11.643149-0.298542 7.165014 3.582507-1.492711 1.492711-5.373761 1.492711-8.359183 0.597084zM644.55277 338.546939c0.298542-2.388338 1.492711-4.776676 2.388338-5.970846 1.194169-0.895627 1.194169-3.88105 0.597084-6.56793-1.194169-3.582507-0.597085-3.283965 2.089796 0.597085 2.68688 4.776676 2.68688 6.269388 0 7.165014-2.388338 0.895627-2.68688 2.388338-0.597084 4.776677 2.388338 2.68688 2.089796 3.88105-0.895627 3.881049-2.388338 0-3.88105-1.791254-3.582507-3.881049zM638.581924 330.187755c0.597085-4.478134 2.388338-9.553353 4.179592-11.344606 2.68688-2.68688 2.68688-0.895627 0.597085 6.56793-3.582507 12.538776-5.970845 14.927114-4.776677 4.776676zM586.038484 326.306706c0.895627-4.776676 3.283965-6.866472 8.359184-6.866473 3.88105 0 7.165015 0.597085 7.165014 1.194169s0.895627 3.283965 1.791254 5.672304c1.194169 3.283965-1.194169 4.776676-8.657726 5.672303-8.956268 0.895627-9.851895 0.298542-8.657726-5.672303zM680.377843 320.932945c0-8.359184 0.298542-9.25481 3.283965-5.373761 2.089796 2.68688 2.985423 7.463557 2.089795 10.448979-2.089796 8.657726-5.075219 6.269388-5.37376-5.075218zM341.830904 319.141691c0-0.597085 10.44898-11.344606 22.987755-23.58484 12.837318-12.240233 20.002332-18.808163 16.419825-14.628571s-5.970845 8.657726-5.075219 9.553353c0.895627 1.194169 0.597085 1.492711-0.597084 0.597084s-9.25481 5.373761-17.912537 14.031487-15.822741 14.927114-15.82274 14.031487zM631.41691 310.185423c-3.88105-2.68688-3.582507-2.985423 0.597084-1.492712 4.478134 1.194169 5.075219 0 3.88105-8.060641-1.492711-8.956268-1.194169-8.956268 1.194169-1.492711 1.492711 4.179592 3.582507 9.25481 4.776676 11.046064 2.388338 4.179592-4.776676 4.179592-10.448979 0zM693.812245 305.110204c2.985423-5.373761 2.985423-8.060641 0-11.344606-2.68688-3.283965-2.68688-5.373761-0.298542-7.762099 2.68688-2.68688 3.582507-2.089796 3.582507 2.388338 0 3.283965 1.194169 7.165015 2.68688 8.956268 1.492711 1.492711 0.298542 5.075219-3.283965 8.657726l-6.269387 5.970845 3.582507-6.866472zM676.496793 300.930612c-0.298542-8.657726 3.88105-13.434402 7.463557-8.060641 1.194169 2.089796 0.895627 2.68688-1.194169 1.492711-1.791254-1.194169-3.582507 1.492711-4.478134 6.269388l-1.194169 8.359184-0.597085-8.060642zM782.777843 291.377259c-2.388338-2.388338-5.373761-3.582507-6.56793-2.388338s-1.492711 0-0.895627-2.388338-1.492711-4.179592-4.776677-4.478134c-5.672303 0-9.851895-10.44898-4.179592-10.44898 1.791254 0 2.089796 2.089796 1.19417 4.478134-0.895627 2.985423-0.298542 4.478134 2.089796 3.88105 4.179592-0.895627 21.793586 11.941691 19.405247 14.330029-0.895627 0.895627-3.582507-0.597085-6.269387-2.985423zM662.166764 285.107872c0-2.388338 0.895627-3.88105 1.492711-2.985423 0.895627 0.895627 3.283965-0.895627 5.672303-3.88105 3.88105-4.478134 3.88105-4.478134 0.895627 1.492712-3.88105 8.359184-8.060641 11.046064-8.060641 5.373761zM392.58309 270.4793c0-0.597085 4.179592-4.179592 8.956269-7.762099 5.075219-3.582507 8.956268-5.672303 8.956268-4.776676 0 0.597085-3.88105 4.179592-8.956268 7.762099-4.776676 3.582507-8.956268 5.672303-8.956269 4.776676zM667.241983 232.862974c3.88105-2.68688 3.88105-3.283965 0-5.970846-5.373761-3.582507-9.851895-3.88105-7.7621-0.597084s-19.70379 0.597085-24.480466-3.283965c-2.089796-1.492711-8.657726-3.582507-14.628572-4.179592-6.269388-0.597085-12.240233-2.68688-13.434402-4.776677-1.791254-2.388338-2.985423-1.492711-4.179592 3.283966-1.194169 3.582507-4.179592 6.56793-6.866472 6.56793-4.179592 0-4.179592-0.597085-0.298542-2.985423 3.88105-2.68688 3.582507-3.88105-1.492712-7.762099-12.538776-9.851895-15.822741-10.44898-14.330029-3.283965 0.895627 3.582507 2.68688 8.060641 4.179592 9.553352 1.492711 2.089796 0 3.283965-3.582507 3.283965-4.179592 0-5.672303-1.492711-4.776677-5.075218 0.895627-2.68688 0.298542-6.866472-1.194169-8.956268-2.089796-3.283965-2.68688-3.283965-2.68688-0.298543 0 2.68688-2.089796 3.283965-6.269388 2.089796-4.179592-1.492711-7.463557-0.597085-8.956268 1.791254-2.089796 3.283965-2.68688 3.283965-2.686881 0.298542 0-2.68688-1.791254-2.985423-5.075218-1.194169-2.985423 1.194169-10.747522 1.492711-17.315452 0.597085l-11.941691-1.791254 16.121283-2.388338c10.44898-1.492711 14.628571-3.283965 11.941691-5.075219-2.388338-1.492711 10.44898-2.388338 30.152769-2.388338 24.779009 0 33.138192 0.895627 29.854228 2.985423-3.283965 2.388338-0.597085 2.68688 10.448979 1.492711 9.851895-0.895627 12.837318-0.597085 8.956269 1.194169-5.672303 2.388338-5.672303 2.68688 0.597084 2.686881 7.762099 0.298542 40.900292 12.538776 42.094461 15.82274 0.597085 1.194169 3.283965 2.388338 5.970845 2.388338 4.478134 0.298542 4.179592 0.895627-0.597084 4.478134-3.283965 2.388338-7.463557 4.478134-8.956269 4.478135-1.791254 0-1.194169-1.492711 1.19417-2.985423z m-22.390671-14.927114c-18.808163-7.463557-21.793586-7.463557-13.13586 0 4.179592 3.283965 11.643149 5.672303 17.613994 5.672303 10.44898 0 10.44898 0-4.478134-5.672303z" fill="#87BDDA" p-id="5795"></path></svg>