<?xml version="1.0" standalone="no"?><!DOCTYPE svg PUBLIC "-//W3C//DTD SVG 1.1//EN" "http://www.w3.org/Graphics/SVG/1.1/DTD/svg11.dtd"><svg t="1728268558221" class="icon" viewBox="0 0 1024 1024" version="1.1" xmlns="http://www.w3.org/2000/svg" p-id="5406" xmlns:xlink="http://www.w3.org/1999/xlink" width="32" height="32"><path d="M882.102857 1019.245714H141.897143A137.069714 137.069714 0 0 1 4.754286 882.102857V141.897143C4.754286 66.121143 66.194286 4.754286 141.897143 4.754286h740.205714c75.776 0 137.142857 61.44 137.142857 137.142857v740.205714a137.069714 137.069714 0 0 1-137.142857 137.142857z" fill="#FF1810" p-id="5407"></path><path d="M114.834286 297.472a54.857143 54.857143 0 1 0 109.787428 0 54.857143 54.857143 0 0 0-109.714285 0z m72.996571 361.691429c31.451429 44.836571 86.235429 74.605714 148.626286 74.605714 97.572571 0 171.885714-72.630857 171.885714-162.523429 0-89.819429-74.313143-162.523429-171.885714-162.523428-63.780571 0-119.734857 31.158857-150.820572 77.824 0 0-22.089143 20.187429-44.617142 2.121143-25.892571-23.990857-1.462857-62.902857-1.462858-62.902858a257.462857 257.462857 0 0 1 160.402286-84.48l-0.658286-95.963428s10.971429-24.941714 36.790858-24.868572c25.965714 0.292571 36.425143 25.014857 36.425142 25.014858l0.146286 95.670857c122.368 16.091429 206.994286 113.078857 206.994286 230.107428 0 128.365714-103.497143 232.521143-242.907429 232.521143-82.505143 0-155.794286-36.425143-201.874285-92.672 0 0-16.310857-36.937143 6.582857-52.297143 22.308571-15.652571 46.372571 0.365714 46.372571 0.365715z" fill="#FFFFFF" p-id="5408"></path><path d="M458.24 297.472a54.857143 54.857143 0 1 0 109.714286 0 54.857143 54.857143 0 0 0-109.714286 0z m339.017143 0a54.857143 54.857143 0 1 0 109.714286 0 54.857143 54.857143 0 0 0-109.714286 0zM432.420571 574.610286a35.84 35.84 0 0 1-35.84 35.84H129.389714a35.84 35.84 0 0 1 0-71.68h267.337143c19.675429 0.146286 35.84 16.091429 35.84 35.84z" fill="#FFFFFF" p-id="5409"></path><path d="M591.725714 707.803429c27.574857 16.384 60.489143 26.038857 95.817143 26.038857 97.499429 0 171.812571-72.704 171.812572-162.596572 0-89.819429-74.313143-162.523429-171.885715-162.523428-35.108571 0-68.022857 9.508571-95.524571 25.819428l-39.716572-59.538285a265.508571 265.508571 0 0 1 98.596572-33.718858L650.24 245.174857s10.898286-24.868571 36.790857-24.795428c25.892571 0.219429 36.425143 24.868571 36.425143 24.868571l0.146286 95.817143c122.587429 15.945143 206.994286 112.859429 206.994285 230.107428 0 128.292571-103.350857 232.448-242.834285 232.448a267.849143 267.849143 0 0 1-132.242286-34.377142l36.205714-61.44z" fill="#FFFFFF" p-id="5410"></path><path d="M628.077714 538.916571h119.588572a35.84 35.84 0 0 1 0 71.606858H628.589714l-0.512-71.68z" fill="#FFFFFF" p-id="5411"></path></svg>