<?xml version="1.0" standalone="no"?><!DOCTYPE svg PUBLIC "-//W3C//DTD SVG 1.1//EN" "http://www.w3.org/Graphics/SVG/1.1/DTD/svg11.dtd"><svg t="1727343060580" class="icon" viewBox="0 0 1024 1024" version="1.1" xmlns="http://www.w3.org/2000/svg" p-id="7192" xmlns:xlink="http://www.w3.org/1999/xlink" width="16" height="16"><path d="M450.259681 690.223235s223.854214-145.785877 273.056948-200.965832c0 0-141.047836 112.036446-246.232347 165.466971 0 0-158.979499 61.230068-206.287015 145.785877-45.266515 81.202733-45.995444 133.248292-45.995445 133.248291v2.041002c6.633257 4.519362 13.339408 8.820046 20.191344 12.974943 20.993166-71.070615 74.715262-196.446469 205.266515-258.551252z" fill="#50AF74" p-id="7193"></path><path d="M511.927107 0.145786a511.781321 511.781321 0 0 0-374.888383 860.136674c-25.366743-83.899772-21.867882-232.018223 235.006834-356.082004a39.799544 39.799544 0 0 1 6.924829-2.624146c28.428246-7.726651 222.76082-60.646925 261.394078-65.603645a278.888383 278.888383 0 0 0 101.248291-36.446469 38.050114 38.050114 0 0 1 57.731208 37.394077c-9.694761 75.444191-32.656036 181.138952-86.742597 282.314351 0 0-114.660592 216.346241-282.241458 269.703873a253.375854 253.375854 0 0 1-45.266515 19.025057A511.927107 511.927107 0 1 0 511.927107 0z" fill="#50AF74" p-id="7194"></path></svg>