<?xml version="1.0" standalone="no"?><!DOCTYPE svg PUBLIC "-//W3C//DTD SVG 1.1//EN" "http://www.w3.org/Graphics/SVG/1.1/DTD/svg11.dtd"><svg t="1727342750059" class="icon" viewBox="0 0 1024 1024" version="1.1" xmlns="http://www.w3.org/2000/svg" p-id="4312" xmlns:xlink="http://www.w3.org/1999/xlink" width="16" height="16"><path d="M343.61266826 617.10801599a1625.4203902 1625.4203902 0 0 1 100.28162749 196.54126462h139.69713352a1119.72212957 1119.72212957 0 0 0 101.89042365-196.54126462z" fill="#61CD72" p-id="4313"></path><path d="M512-223.21984658A735.21984658 735.21984658 0 1 0 1247.21984658 512 735.21984658 735.21984658 0 0 0 512-223.21984658z m-360.90660594 383.42975223h728.78466193v74.0046235H151.09339406zM896.77041571 887.38577139H129.10651316v-73.73649078h229.52158595A1026.94821748 1026.94821748 0 0 0 270.68057552 655.18285852l58.98919265-38.07484253h-104.5717506v-294.94596325h583.18860914v294.94596325H699.69288571l59.25732534 38.87924062A1061.00106962 1061.00106962 0 0 1 672.87961633 813.64928061h224.96333012z" fill="#61CD72" p-id="4314"></path><path d="M306.61035651 397.50733972H726.50615507v145.05978738H306.61035651z" fill="#61CD72" p-id="4315"></path></svg>