<?xml version="1.0" standalone="no"?><!DOCTYPE svg PUBLIC "-//W3C//DTD SVG 1.1//EN" "http://www.w3.org/Graphics/SVG/1.1/DTD/svg11.dtd"><svg t="1727343136526" class="icon" viewBox="0 0 1024 1024" version="1.1" xmlns="http://www.w3.org/2000/svg" p-id="8633" xmlns:xlink="http://www.w3.org/1999/xlink" width="16" height="16"><path d="M0 0h1024v1024H0z" fill="#3366FF" p-id="8634"></path><path d="M732.5696 246.8864v11.3664h-178.8928v54.4768h178.8928v31.744l-79.872 0.9216-80.2816 1.3824v54.4768l190.5664 1.3824 190.1568 0.9216V344.576h-162.3552v-31.744h178.944V258.3552l-88.2176-0.9216c-88.2176-1.3824-88.6272-1.3824-89.856-11.776-1.2288-9.0624-3.328-9.984-30.3616-9.984-27.904-0.1536-28.7232 0.3072-28.7232 11.2128zM62.72 371.6608V498.688h174.6944v36.3008H46.08v54.4768h41.6256c46.1824 0 46.592 0.4608 25.8048 31.2832-9.984 14.9504-45.7728 36.7616-59.904 36.7616-6.656 0-7.4752 4.5568-7.4752 32.2048v32.6656l19.968-3.1744c51.1488-7.2704 102.7072-53.0944 116.4288-103.0144l7.0656-26.7776h47.8208v136.6016l28.3136-1.3824 27.8528-1.3824 1.2288-67.1744 1.2288-67.1744 22.8864 1.3824 22.8864 1.3824 7.4752 23.6032c13.7216 44.9024 36.608 71.2192 80.2816 92.1088 10.3936 4.9664 27.8528 10.4448 38.7072 11.776l19.1488 3.1744-1.2288-30.8736-1.2288-30.8736-18.7392-6.8096c-10.3936-3.6352-24.9856-11.776-32.4608-17.7152-12.9024-10.4448-29.952-35.3792-29.952-43.5712 0-1.792 18.7392-3.1744 41.6256-3.1744h41.6256v-54.4768H295.7312V498.688h76.9536c76.544 0 77.3632 0 87.3472-11.3664l10.3936-10.9056V244.5312H62.72v127.1296z m174.7456-49.92v22.6816H120.9856v-45.3632h116.48v22.6816z m173.9264 0.9216l1.2288 21.76H295.7312v-45.824l57.3952 1.3824 56.9856 1.3824 1.28 21.2992zM237.4656 421.5296v23.1424l-56.9856-1.3824-57.3952-1.3824-1.2288-21.76-1.2288-21.3504H237.568v22.7328z m173.9264-1.3312l-1.2288 21.76-56.9856 1.3824-57.3952 1.3824V398.848H412.7232l-1.3312 21.3504zM545.3312 485.0688v45.3632h58.2656v-36.2496h320.3072v36.2496h58.2656V439.7056h-436.8384v45.3632zM636.4672 566.3232c-1.2288 27.6992-3.7376 39.0144-10.3936 48.9984-11.6736 17.2544-33.28 32.6656-54.4768 39.0144l-17.8688 4.9664v63.0272l19.5584-3.1744c26.2144-3.6352 59.0848-20.8896 80.2816-41.728 18.3296-18.1248 41.6256-64 41.6256-82.5856 0-9.984 0.4096-9.984 66.56-9.984h66.1504l1.2288 68.9664 1.2288 69.4272 46.592-0.9216c53.248-0.9216 70.2976-6.8096 87.808-32.2048 8.3456-12.2368 11.2128-22.2208 12.4928-44.9024l1.6896-29.0304-28.3136 1.3824-28.7232 1.3824-1.2288 14.5408c-1.6896 16.3328-6.656 22.6816-21.6576 24.9344l-10.3936 1.3824-1.2288-64.8704-1.3312-64.512H637.6448l-1.1776 35.8912z" fill="#FFFFFF" p-id="8635"></path></svg>