<?xml version="1.0" standalone="no"?><!DOCTYPE svg PUBLIC "-//W3C//DTD SVG 1.1//EN" "http://www.w3.org/Graphics/SVG/1.1/DTD/svg11.dtd"><svg t="1727345454325" class="icon" viewBox="0 0 1024 1024" version="1.1" xmlns="http://www.w3.org/2000/svg" p-id="3339" xmlns:xlink="http://www.w3.org/1999/xlink" width="16" height="16"><path d="M56.32 125.6448c0.1536 282.9312 1.9456 565.8624 5.3248 848.7936 184.9856 8.8576 369.92 17.664 554.9056 26.5216 53.1456-16.9472 152.1152-56.5248 240.128-148.5312 38.1952-39.8848 153.4464-160.4096 149.4016-339.5072-0.5632-23.9616-5.7344-160.512-101.376-265.2672-27.392-30.0032-54.0672-48.2816-106.7008-84.8896a1353.6768 1353.6768 0 0 0-192.1024-111.4112C422.7072 49.6128 239.5136 47.872 56.32 46.08v79.5648z" fill="#33CCCC" p-id="3340"></path><path d="M214.6816 215.04l2.9184 627.2c127.488 3.4304 254.976 6.8096 382.5152 10.24 28.2624-8.192 115.0464-37.3248 177.8688-124.5184 12.4928-17.3568 80.9984-112.3328 59.2896-229.0688-16.2304-87.296-74.7008-143.2576-138.3424-204.1856a658.73408 658.73408 0 0 0-93.9008-74.7008L214.6816 215.04z" fill="#FFFFFF" p-id="3341"></path></svg>