<?xml version="1.0" standalone="no"?><!DOCTYPE svg PUBLIC "-//W3C//DTD SVG 1.1//EN" "http://www.w3.org/Graphics/SVG/1.1/DTD/svg11.dtd"><svg t="1727337076364" class="icon" viewBox="0 0 1024 1024" version="1.1" xmlns="http://www.w3.org/2000/svg" p-id="5951" xmlns:xlink="http://www.w3.org/1999/xlink" width="16" height="16"><path d="M33.792 73.216c-7.68 73.728-11.264 196.608 32.256 338.944 17.408 56.32 50.688 162.304 140.288 270.848 114.688 138.752 251.904 198.656 341.504 236.544 117.248 49.664 226.304 70.656 313.344 79.872 13.824-83.456 43.008-332.288-111.616-560.128-77.312-113.664-171.008-178.176-215.04-207.872-199.68-134.144-404.48-155.136-500.736-158.208z" fill="#F59299" p-id="5952"></path><path d="M988.16 59.904c-59.392-10.752-220.672-32.768-392.704 45.568-136.704 62.464-210.432 156.16-244.224 200.192-114.176 149.504-134.656 304.64-139.264 376.832 60.928 12.8 234.496 40.448 422.912-41.472 59.392-26.112 225.792-101.376 310.784-283.136 59.392-126.976 50.688-243.712 42.496-297.984z" fill="#F48F97" p-id="5953"></path><path d="M212.48 688.128c2.56-72.704 16.896-130.56 29.184-168.448 15.872-48.64 34.304-83.456 50.176-113.152 17.408-32.256 43.008-80.384 88.064-133.12C416.256 230.4 439.296 203.776 481.792 184.32c7.68-3.584 43.52-19.456 93.696-20.992 18.944-0.512 50.176 0.512 86.016 12.288 62.976 19.968 99.84 59.392 107.008 67.072 0 0 62.464 67.072 65.024 163.84 1.024 29.696-4.608 55.808-6.144 62.976-4.096 18.944-8.192 39.424-20.48 59.392-12.8 20.992-28.672 31.744-59.392 52.736-9.728 6.656-38.912 26.112-104.448 55.296-31.744 14.336-48.128 21.504-62.464 26.624-80.896 30.208-154.112 32.768-212.992 33.792-39.936 1.024-93.184 0-155.136-9.216z" fill="#EE4D5A" p-id="5954"></path></svg>