<?xml version="1.0" encoding="UTF-8" standalone="no"?>
<!-- Created with Inkscape (http://www.inkscape.org/) -->

<svg
   width="32mm"
   height="32mm"
   viewBox="0 0 32 32"
   version="1.1"
   id="svg1"
   inkscape:version="1.3.2 (091e20e, 2023-11-25)"
   sodipodi:docname="iconfont2.svg"
   xmlns:inkscape="http://www.inkscape.org/namespaces/inkscape"
   xmlns:sodipodi="http://sodipodi.sourceforge.net/DTD/sodipodi-0.dtd"
   xmlns="http://www.w3.org/2000/svg"
   xmlns:svg="http://www.w3.org/2000/svg">
  <sodipodi:namedview
     id="namedview1"
     pagecolor="#ffffff"
     bordercolor="#000000"
     borderopacity="0.25"
     inkscape:showpageshadow="2"
     inkscape:pageopacity="0.0"
     inkscape:pagecheckerboard="0"
     inkscape:deskcolor="#d1d1d1"
     inkscape:document-units="mm"
     inkscape:zoom="2.3786088"
     inkscape:cx="66.63559"
     inkscape:cy="17.447173"
     inkscape:window-width="1440"
     inkscape:window-height="872"
     inkscape:window-x="0"
     inkscape:window-y="28"
     inkscape:window-maximized="0"
     inkscape:current-layer="layer1" />
  <defs
     id="defs1">
    <linearGradient
       id="SVGID_1_"
       gradientUnits="userSpaceOnUse"
       x1="-884.44"
       y1="-1010.656"
       x2="-883.44"
       y2="-1010.656"
       gradientTransform="matrix(8.9724356,8.9724356,8.9724356,-8.9724356,17011.781,-1119.6297)">
      <stop
         offset="0"
         style="stop-color:#00f9e5"
         id="stop7" />
      <stop
         offset=".568"
         style="stop-color:#299df4"
         id="stop8" />
      <stop
         offset="1"
         style="stop-color:#4a54ff"
         id="stop9" />
    </linearGradient>
    <linearGradient
       id="SVGID_2_"
       gradientUnits="userSpaceOnUse"
       x1="-969.35199"
       y1="-1095.568"
       x2="-968.35199"
       y2="-1095.568"
       gradientTransform="matrix(-8.9724356,8.9724356,-8.9724356,-8.9724356,-18497.104,-1119.6481)">
      <stop
         offset="0"
         style="stop-color:#00f9e5"
         id="stop13" />
      <stop
         offset=".568"
         style="stop-color:#299df4"
         id="stop14" />
      <stop
         offset="1"
         style="stop-color:#4a54ff"
         id="stop15" />
    </linearGradient>
  </defs>
  <g
     inkscape:label="图层 1"
     inkscape:groupmode="layer"
     id="layer1">
    <path
       d="m 27.932638,17.234877 c 0.198996,0.260323 0.298493,0.56798 0.273619,0.875635 -0.273619,6.342444 -5.770874,11.406933 -12.511852,11.406933 -6.7409772,0 -12.238232,-5.064489 -12.5118511,-11.406933 C 3.1576799,17.802857 3.2571769,17.4952 3.456173,17.234877 L 14.649678,3.1063726 c 0.572113,-0.7099751 1.691463,-0.7099751 2.263575,0 z"
       style="fill:#00f9e5;stroke-width:0.264583"
       id="path3" />
    <path
       class="st0"
       d="M 11.689617,21.920712 C 9.1524235,24.097968 5.2720083,23.908642 2.9835582,21.518393 0.6951083,19.104477 0.89410396,15.412607 3.406424,13.23535 c 2.5371946,-2.177257 6.4176098,-1.98793 8.706059,0.402319 2.288451,2.39025 2.114329,6.105786 -0.422866,8.283043 z"
       id="path4"
       style="fill:#ffffff;stroke-width:0.264583" />
    <path
       class="st2"
       d="m 7.5604583,23.97964 c -1.8407098,0 -3.6814196,-0.709975 -4.9997658,-2.10626 -2.4874456,-2.626908 -2.28844996,-6.697431 0.4726147,-9.064015 1.3432206,-1.159626 3.0595582,-1.751272 4.850519,-1.656608 1.7909609,0.09466 3.4575488,0.828304 4.6763968,2.106259 2.487446,2.626908 2.288451,6.697431 -0.472614,9.064015 -1.293472,1.112294 -2.9103111,1.656609 -4.5271507,1.656609 z M 7.5355838,12.241385 c -1.3929696,0 -2.7113157,0.473317 -3.7560429,1.372619 -2.28845,1.964264 -2.4625712,5.348478 -0.3979913,7.525736 0.9949782,1.064962 2.3879478,1.680273 3.8804152,1.751271 1.4924674,0.07099 2.9351852,-0.425985 4.0296612,-1.372618 2.288451,-1.964265 2.462571,-5.348479 0.397991,-7.525736 -0.994978,-1.064963 -2.3879468,-1.680275 -3.8804142,-1.751272 z"
       id="path5"
       style="fill:#0c6066;stroke-width:0.264583" />
    <path
       class="st3"
       d="m 5.3217571,15.22328 c -1.3432206,1.159627 -1.4427184,3.12389 -0.2238701,4.37818 1.2188484,1.277955 3.2834283,1.372618 4.6017745,0.212992 0.4477405,-0.378653 0.7462335,-0.85197 0.9203545,-1.348952 z"
       id="path6"
       style="fill:#1e1e1e;stroke-width:0.264583" />
    <path
       class="st2"
       d="M 7.3365881,11.531411 14.152188,2.6093901 c 0.373117,-0.4733168 0.94523,-0.7573068 1.567091,-0.7573068 0.621862,0 1.193974,0.28399 1.567091,0.7573068 l 6.716103,8.9456859 -1.34322,0.09466 -6.243488,-8.3777056 C 16.266518,3.0827067 16.017773,2.9643776 15.744154,2.9643776 c -0.273619,0 -0.497489,0.1183291 -0.646736,0.3076558 L 8.5554365,11.791734 Z M 5.1973849,23.056672 c 0.5721125,1.041296 1.3432206,1.987931 2.2635756,2.839901 2.2138266,2.011595 5.1241375,3.147555 8.1836955,3.147555 3.059558,0 5.969869,-1.112294 8.183696,-3.147555 0.994978,-0.899302 1.790961,-1.9406 2.387948,-3.07656 l 1.61684,-0.828303 c -0.67161,1.751271 -1.766086,3.360548 -3.208805,4.685835 -2.437697,2.224588 -5.621628,3.455212 -8.979679,3.455212 A 12.959591,12.3299 0 0 1 6.6649778,26.701211 C 5.2471338,25.39959 4.1775322,23.86131 3.5059218,22.15737 Z"
       id="path7"
       style="fill:#0c6066;stroke-width:0.264583" />
    <path
       d="m 13.20696,19.932782 c 0.970103,-2.129925 0.572112,-4.709502 -1.268598,-6.48444 -2.2884494,-2.200922 -6.0444923,-2.319251 -8.482189,-0.28399 -0.1741213,0.165662 -0.3482424,0.307657 -0.5223636,0.496983 -0.049749,0.04733 -0.024874,0.118329 0.024874,0.141995 l 10.0741546,6.176783 c 0.04975,0.02367 0.149247,0 0.174122,-0.04734 z"
       style="fill:url(#SVGID_1_);stroke-width:0.264583"
       id="path9" />
    <path
       class="st2"
       d="m 13.20696,19.932782 0.522363,0.212992 c 0.373117,-0.828304 0.572112,-1.70394 0.572112,-2.579576 0,-1.632943 -0.646735,-3.265886 -1.940207,-4.520174 -1.318346,-1.25429 -3.0595578,-1.893267 -4.8007697,-1.893267 -1.5919652,0 -3.208805,0.520649 -4.4774022,1.609277 -0.1989957,0.16566 -0.3979913,0.354987 -0.5721125,0.520648 -0.1243723,0.141995 -0.1741212,0.28399 -0.1741212,0.44965 0,0.212993 0.099498,0.425985 0.3233679,0.544315 L 12.70947,20.429765 c 0.124373,0.071 0.248744,0.09466 0.373117,0.09466 0.124373,0 0.248744,-0.02367 0.373117,-0.09466 0.0995,-0.07099 0.198996,-0.165662 0.273619,-0.283991 l -0.522363,-0.212992 -0.522364,-0.212993 0.422865,0.189327 -0.248744,-0.378654 c -0.07463,0.04734 -0.149247,0.11833 -0.174121,0.189327 l 0.422865,0.189327 -0.248744,-0.378654 0.248744,0.378654 v -0.449651 c -0.0995,0 -0.174121,0.02367 -0.248744,0.071 l 0.248744,0.378653 v -0.449651 0.449651 l 0.248745,-0.378653 c -0.07462,-0.04734 -0.174121,-0.071 -0.248745,-0.071 v 0.449651 L 13.356206,19.530462 3.2820517,13.353679 3.0333072,13.732332 h 0.4726146 c 0,-0.141995 -0.074623,-0.28399 -0.2238701,-0.378653 L 3.0333072,13.732332 H 3.5059218 3.0333072 l 0.3482424,0.307657 c 0.074623,-0.09466 0.1243722,-0.189327 0.1243722,-0.307657 H 3.0333072 l 0.3482424,0.307657 c 0.1492467,-0.141995 0.2984935,-0.307657 0.4726147,-0.449652 1.0447271,-0.875635 2.3630733,-1.325286 3.706294,-1.325286 1.4427184,0 2.9103117,0.520648 3.9799117,1.561945 1.094477,1.041296 1.61684,2.390249 1.61684,3.739202 0,0.733641 -0.149246,1.467282 -0.472614,2.129925 z"
       id="path10"
       style="fill:#0c6066;stroke-width:0.264583" />
    <path
       class="st0"
       d="m 19.649444,21.920712 c 2.537194,2.177256 6.41761,1.98793 8.70606,-0.402319 2.288449,-2.413916 2.089454,-6.105786 -0.422866,-8.283043 -2.537195,-2.177257 -6.41761,-1.98793 -8.70606,0.402319 -2.28845,2.39025 -2.114329,6.105786 0.422866,8.283043 z"
       id="path11"
       style="fill:#ffffff;stroke-width:0.264583" />
    <path
       class="st2"
       d="m 19.251453,22.323031 c -2.761065,-2.366584 -2.960061,-6.437107 -0.472616,-9.064015 1.218849,-1.277955 2.860564,-2.011596 4.676399,-2.106259 1.79096,-0.09466 3.532172,0.496982 4.850519,1.656608 2.761064,2.366584 2.96006,6.437107 0.472614,9.064015 -1.318346,1.396285 -3.159056,2.10626 -4.999766,2.10626 -1.616839,0 -3.233679,-0.544315 -4.52715,-1.656609 z m 4.253532,-10.081646 c -1.492468,0.071 -2.860563,0.686309 -3.880415,1.751272 -2.064581,2.177257 -1.89046,5.561471 0.397991,7.525736 1.11935,0.946633 2.537194,1.443615 4.029662,1.372618 1.492467,-0.07099 2.860562,-0.686309 3.880415,-1.751271 2.06458,-2.177258 1.890458,-5.561472 -0.397991,-7.525736 -1.044727,-0.899302 -2.363074,-1.372619 -3.756044,-1.372619 z"
       id="path12"
       style="fill:#0c6066;stroke-width:0.264583" />
    <path
       class="st3"
       d="m 26.017304,15.199614 c 1.343221,1.159626 1.442719,3.123891 0.22387,4.37818 -1.218848,1.277956 -3.283428,1.372619 -4.601773,0.212993 -0.447741,-0.378654 -0.746234,-0.85197 -0.920356,-1.348953 z"
       id="path13"
       style="fill:#1e1e1e;stroke-width:0.264583" />
    <path
       d="m 18.132102,19.909116 c -0.970104,-2.129926 -0.572113,-4.709502 1.268597,-6.484439 2.28845,-2.200923 6.044493,-2.319252 8.48219,-0.28399 0.174121,0.16566 0.348242,0.307655 0.522363,0.496982 0.04975,0.04733 0.02488,0.11833 -0.02488,0.141995 l -10.074155,6.176783 c -0.07462,0.04734 -0.149247,0.02367 -0.174121,-0.04733 z"
       style="fill:url(#SVGID_2_);stroke-width:0.264583"
       id="path15" />
    <path
       class="st2"
       d="m 18.132102,19.909116 0.522364,-0.212993 c -0.323369,-0.686309 -0.472616,-1.396284 -0.472616,-2.129925 0,-1.348953 0.522364,-2.697906 1.61684,-3.739202 1.069602,-1.041297 2.537195,-1.561945 3.979913,-1.561945 1.318347,0 2.636693,0.449651 3.706295,1.325286 0.17412,0.141995 0.323367,0.28399 0.472614,0.449652 l 0.348243,-0.307657 H 27.83314 c 0,0.09466 0.04975,0.212993 0.124372,0.307657 l 0.348243,-0.307657 H 27.83314 28.305755 L 28.05701,13.353679 c -0.124372,0.09466 -0.22387,0.236658 -0.22387,0.378653 h 0.472615 L 28.05701,13.353679 17.982855,19.506797 18.2316,19.88545 v -0.449651 c -0.07462,0 -0.174121,0.02367 -0.248745,0.07099 l 0.248745,0.378654 v -0.449651 0.449651 l 0.248744,-0.378649 c -0.07462,-0.04734 -0.149247,-0.07099 -0.248744,-0.07099 v 0.44965 l 0.248744,-0.378657 -0.248744,0.378653 0.422866,-0.189327 c -0.04975,-0.09466 -0.0995,-0.165661 -0.174122,-0.189326 l -0.248744,0.378653 0.422866,-0.189327 -0.522364,0.212993 -0.522363,0.212992 c 0.04975,0.11833 0.149246,0.236659 0.273618,0.28399 0.0995,0.07099 0.248745,0.09466 0.373117,0.09466 0.124372,0 0.248745,-0.02367 0.373117,-0.09466 l 10.074155,-6.176783 c 0.198996,-0.118329 0.298493,-0.331321 0.298493,-0.544314 0,-0.141995 -0.04975,-0.307656 -0.174121,-0.425985 -0.174121,-0.189327 -0.373117,-0.354987 -0.572113,-0.520649 -1.268597,-1.064961 -2.885436,-1.609276 -4.477402,-1.609276 -1.741211,0 -3.507298,0.638978 -4.80077,1.893266 -1.293471,1.25429 -1.940207,2.887233 -1.940207,4.520175 0,0.875636 0.198996,1.751272 0.572113,2.579576 z"
       id="path16"
       style="fill:#0c6066;stroke-width:0.264583" />
  </g>
</svg>
