<?xml version="1.0" standalone="no"?><!DOCTYPE svg PUBLIC "-//W3C//DTD SVG 1.1//EN" "http://www.w3.org/Graphics/SVG/1.1/DTD/svg11.dtd"><svg t="1727337090893" class="icon" viewBox="0 0 1024 1024" version="1.1" xmlns="http://www.w3.org/2000/svg" p-id="6754" xmlns:xlink="http://www.w3.org/1999/xlink" width="16" height="16"><path d="M849.92 51.2H174.08c-67.866 0-122.88 55.014-122.88 122.88v675.84c0 67.866 55.014 122.88 122.88 122.88h675.84c67.866 0 122.88-55.014 122.88-122.88V174.08c0-67.866-55.014-122.88-122.88-122.88zM512 819.2c-169.39 0-307.2-137.81-307.2-307.2S342.61 204.8 512 204.8 819.2 342.61 819.2 512 681.39 819.2 512 819.2z" fill="#3D8BFA" p-id="6755"></path><path d="M512 235.52c-152.453 0-276.48 124.027-276.48 276.48S359.547 788.48 512 788.48 788.48 664.448 788.48 512 664.453 235.52 512 235.52z m43.008 294.4l103.424 132.618h-94.208l-78.848-113.162c-13.174-19.968-16.65-35.297-16.108-46.495l-14.842 159.657H383.77l27.709-297.984h70.656L469.617 499.19c1.91-14.065 10.163-20.47 10.163-20.47l114.15-114.166h87.04s-99.333 100.342-121.354 122.358-4.608 43.008-4.608 43.008z" fill="#3D8BFA" p-id="6756"></path></svg>