<?xml version="1.0" standalone="no"?><!DOCTYPE svg PUBLIC "-//W3C//DTD SVG 1.1//EN" "http://www.w3.org/Graphics/SVG/1.1/DTD/svg11.dtd"><svg t="1728268713587" class="icon" viewBox="0 0 1024 1024" version="1.1" xmlns="http://www.w3.org/2000/svg" p-id="11963" xmlns:xlink="http://www.w3.org/1999/xlink" width="32" height="32"><path d="M213.344 64h597.312C910.208 64 960 113.792 960 213.344v597.312C960 910.208 910.208 960 810.656 960H213.344C113.792 960 64 910.208 64 810.656V213.344C64 113.792 113.792 64 213.344 64z" fill="#0304B1" p-id="11964"></path><path d="M496.992 806.816c-39.488-22.528-331.968-203.232-343.104-208.736a26.144 26.144 0 0 1-15.072-20.896v-253.568a27.2 27.2 0 0 1 12.544-23.52l2.176-1.184c28.32-17.28 123.008-74.24 138.016-82.464a22.784 22.784 0 0 1 22.144-0.448s132.512 85.12 152.8 92.704c14.176 6.432 29.76 9.696 45.44 9.44a102.944 102.944 0 0 0 50.848-12.16c19.776-10.336 146.464-89.536 147.84-89.536 3.2-1.92 6.816-2.88 10.528-2.88 3.968 0 7.936 1.152 11.36 3.136 17.216 9.44 134.688 80.224 139.648 83.328a26.88 26.88 0 0 1 13.184 23.296v253.472a25.92 25.92 0 0 1-15.136 20.864c-11.008 5.984-302.624 186.688-342.848 208.736a31.52 31.52 0 0 1-15.296 4.256 30.912 30.912 0 0 1-15.072-3.84z" fill="#F65636" p-id="11965"></path><path d="M721.152 213.6c3.968 0 7.936 1.12 11.36 3.104 17.216 9.44 134.688 80.224 139.648 83.328a26.88 26.88 0 0 1 13.184 23.296v253.472a25.92 25.92 0 0 1-15.136 20.864c-5.472 3.008-81.152 49.664-160.448 98.336l-29.792 18.304c-69.28 42.464-135.008 82.464-152.64 92.096a31.52 31.52 0 0 1-15.2 4.256V318.144l7.36-0.128a102.72 102.72 0 0 0 43.296-12.064c8.192-4.256 34.72-20.32 63.008-37.696l14.272-8.736c35.616-21.888 69.856-43.072 70.56-43.072 3.2-1.92 6.816-2.88 10.528-2.88z" fill="#FB25A9" p-id="11966"></path><path d="M510.528 810.656H512a30.208 30.208 0 0 0 15.136-3.904c39.488-22.56 331.84-203.232 342.848-208.736a25.76 25.76 0 0 0 15.136-20.896v-253.44a26.56 26.56 0 0 0-2.912-12.416l-371.744 201.216v298.176" fill="#F50197" p-id="11967"></path><path d="M509.312 807.136h-1.536a30.624 30.624 0 0 1-14.976-3.84c-39.04-22.304-328.256-201.088-339.2-206.528a25.536 25.536 0 0 1-14.944-20.672v-250.88a26.272 26.272 0 0 1 2.848-12.256l367.808 199.072v295.104z" fill="#F14918" p-id="11968"></path><path d="M330.176 406.56h33.92v160.704h58.368v31.776h-92.128l-0.224-192.48h0.064z m170.848 48.16a57.632 57.632 0 0 1 45.92 21.76v-18.976h31.744v141.696h-31.744v-19.008a57.504 57.504 0 0 1-45.92 21.76c-39.456 0-69.344-33.248-69.344-73.76 0-40.192 29.888-73.408 69.344-73.408v-0.064z m5.76 28.544c-25.6 0-42.624 19.872-42.624 45.28 0 25.376 17.216 45.28 42.624 45.28 25.376 0 42.56-19.904 42.56-45.28s-16.992-45.28-42.56-45.28z m96.544 91.456l75.392-88.736H604.48v-28.256h115.04v24.96l-75.04 88.416h76.736v28.288h-117.856v-24.672z" fill="#FFFFFF" p-id="11969"></path></svg>