<?xml version="1.0" standalone="no"?><!DOCTYPE svg PUBLIC "-//W3C//DTD SVG 1.1//EN" "http://www.w3.org/Graphics/SVG/1.1/DTD/svg11.dtd"><svg t="1727337085261" class="icon" viewBox="0 0 1024 1024" version="1.1" xmlns="http://www.w3.org/2000/svg" p-id="6431" xmlns:xlink="http://www.w3.org/1999/xlink" width="16" height="16"><path d="M0 0h1024v1024H0z" fill="#FFFFFF" fill-opacity="0" p-id="6432"></path><path d="M486.944 893.048c-46.36-26.504-391.56-240.72-405.12-247.176C71.856 641.576 65.432 631.544 64 620.8V320.6c0-11.456 4.992-21.488 14.976-27.936l2.856-1.44c33.52-20.768 144.784-88.12 162.616-97.44 7.84-5.008 17.832-5.008 26.384-0.712 8.56 4.304 156.2 101.024 180.448 109.624 16.4 7.88 34.952 11.456 53.496 11.456 20.68 0.72 41.36-4.296 59.912-14.32 23.536-12.184 172.6-106.04 174.736-106.04 3.568-2.152 7.84-3.584 12.128-3.584 4.992 0 9.272 1.44 13.552 3.584 19.968 11.464 159.04 95.288 164.752 98.872 9.984 5.728 15.696 16.48 15.696 27.936V620.8a32.576 32.576 0 0 1-17.84 25.072c-12.832 7.168-357.32 221.384-404.4 247.176-5.696 2.864-11.408 5.016-17.824 5.016-6.416 0-12.84-2.152-18.544-5.016z" fill="#F65636" p-id="6433"></path><path d="M762.184 189.936c5.088 0 9.456 1.44 13.816 3.584 20.36 11.464 162.184 95.328 168 98.904 10.184 5.736 16 16.488 16 27.96v300.304a32.624 32.624 0 0 1-18.184 25.088c-6.544 3.584-97.456 58.768-192.72 116.824l-35.64 21.504c-83.64 50.168-162.184 97.472-183.28 108.944-5.816 2.864-11.632 5.016-18.176 5.016V313.928h8.72c18.192-0.72 35.64-5.736 52.368-14.336 10.184-5.016 41.456-24.368 75.64-44.432l17.456-10.04c42.904-25.8 84.36-50.88 85.088-50.88 2.184-3.584 6.544-4.304 10.912-4.304z" fill="#FB25A9" p-id="6434"></path><path d="M512 898.064h1.44c6.52 0 12.312-1.44 18.104-4.312 47.04-26.568 397.336-241.312 410.36-247.776 10.136-4.312 16.648-13.648 18.096-25.136V319.912c0-5.024-1.44-10.056-3.616-14.36L512 543.992v354.08" fill="#F50197" p-id="6435"></path><path d="M512 898.064h-2.12c-6.352 0-12-1.448-17.648-4.352-45.896-26.832-383.416-241.504-396.128-248.032-9.888-4.352-16.24-13.776-17.656-24.656V320.056c0-5.08 1.416-10.16 3.536-14.504l429.312 238.6 0.704 353.92z" fill="#F14918" p-id="6436"></path></svg>