<?xml version="1.0" standalone="no"?><!DOCTYPE svg PUBLIC "-//W3C//DTD SVG 1.1//EN" "http://www.w3.org/Graphics/SVG/1.1/DTD/svg11.dtd"><svg t="1727342912280" class="icon" viewBox="0 0 1024 1024" version="1.1" xmlns="http://www.w3.org/2000/svg" p-id="5357" xmlns:xlink="http://www.w3.org/1999/xlink" width="16" height="16"><path d="M511.531232 0h259.858741c122.661141 0 221.739613 79.77468 247.705948 199.602774A210.036201 210.036201 0 0 1 1023.882793 244.22814v535.348083c0 115.275682-89.055349 220.782239-202.748433 240.32049a284.848164 284.848164 0 0 1-48.552554 4.103033q-263.766391-0.175844-527.532783 0C124.029095 1023.804363 16.764096 928.711695 2.032255 808.453759a272.089686 272.089686 0 0 1-1.953825-33.097798v-527.532783C0.07843 125.044808 91.341601 19.655481 212.79137 2.403205A232.72011 232.72011 0 0 1 245.850092 0q132.84057 0.195383 265.68114 0zM183.464455 512.566482q0 168.47834-0.21492 336.976219c0 9.085287 1.699828 12.641249 11.547106 12.016024 14.262923-0.918298 28.643076-0.214921 42.984153-0.273535 15.142145 0 13.227396 1.387216 13.246934-12.778016 0-60.568579 0.175844-121.137158-0.175844-181.705737 0-8.245142 1.504445-11.371262 10.550656-11.019573 19.538251 0.742454 39.076502 0.136768 58.614753 0.253997 15.41568 0 13.676776-2.051516 13.676776 13.286011 0 59.904278 0.195383 119.808556-0.214921 179.751911 0 9.358822 1.504445 13.325087 12.016025 12.543557a330.450443 330.450443 0 0 1 43.921988 0c9.554205 0.586148 11.722951-2.325052 11.722951-11.722951q-0.429842-328.672462 0-657.344923c0-19.167024-9.554205-28.428156-27.920161-28.213235-59.572128 0.683839-119.183332 0.468918-178.735922 0-9.04621 0-11.254033 2.364128-11.234494 11.273571q0.488456 168.47834 0.21492 336.95668zM686.164121 562.701635l2.149207-0.625224c4.513336 8.342833 9.182978 16.607514 13.540009 25.0285 13.52047 26.14218 26.806481 52.421128 40.385565 78.524231 14.575535 28.017852 29.424606 55.898937 44.078295 83.897251 13.364164 25.536494 26.611098 51.131603 40.014338 76.629021 2.149208 4.103033 4.591489 5.861475 9.94497 2.79397 13.911235-7.8153 28.291388-14.927224 42.749694-21.726535 7.639456-3.595038 10.843729-5.333943 5.177636-15.259374-16.216749-28.350003-30.030292-58.087221-45.13336-87.081986-20.495626-39.369576-41.34294-78.54377-61.936257-117.87427-15.630601-29.913063-31.124434-59.962893-46.891802-89.875955-2.285975-4.337492-2.598587-6.721158 1.660751-10.257582 39.193732-32.492112 78.153005-65.35545 117.229507-97.886639 4.943178-4.103033 4.982254-6.857926 0.840145-11.488491-11.722951-13.149243-23.445901-26.396177-34.270093-40.22926-3.360579-4.278877-5.236251-3.731806-8.381909-1.074603q-20.515164 17.252276-41.030328 34.563166l-64.847456 54.707103c-2.735355 2.305514-6.408546 5.509787-8.635907 0.742454-3.145658-6.799311-7.190076-13.051552-6.994694-21.648382 0.78153-31.886426 0.351689-63.79239 0.293074-95.737431 0-14.653688-8.030221-22.976983-22.879292-23.01606-55.996628-0.156306-111.993256 0-168.02896-0.234459-6.193626 0-7.8153 2.266437-7.639457 8.010683 0.293074 16.587975 0.683839 33.215027-0.117229 49.803002-0.429842 9.085287 2.911199 10.667885 11.097726 10.570194 37.122677-0.410303 74.245355 0 111.368032-0.390765 7.8153 0 9.769126 2.305514 9.651896 9.769126-0.293074 66.078366-0.175844 132.176269-0.156306 198.254635q0 145.032439-0.156306 290.045339c0 7.502688 1.699828 10.159891 9.632358 9.769125 15.923675-0.644762 31.905964-0.664301 47.829639 0 7.952068 0.33215 9.573743-2.34459 9.534667-9.769125-0.293074-61.193803-0.156306-122.407144-0.156306-183.659562q0.078153-52.518819 0.078153-105.272097z m-169.982786-154.352185c-21.824227 0-43.628915 0.253997-65.453141-0.156306-6.603929-0.136768-8.284219 1.953825-8.147451 8.264681 0.371227 16.607514 0.468918 33.215027 0 49.803002-0.195383 6.857926 1.953825 8.870366 8.71406 8.753136 21.492076-0.410303 42.984153-0.195383 64.476229-0.136767 3.282426 0 7.698071-1.289525 5.861475 5.275328-4.161648 14.614612-7.971606 29.307377-11.72295 44.058756-3.555962 14.087079-6.955617 28.213235-10.882806 42.222161-5.861475 20.827776-9.476052 42.280776-15.493833 63.030398-6.936079 23.934358-12.973399 48.122713-19.22564 72.1743-9.573743 36.907757-18.600415 74.030434-28.525846 110.860038-1.289525 4.80641-0.273536 5.333943 4.063956 6.838388 14.75138 5.13856 30.264751 7.03377 45.13336 11.488491s15.630601 3.90765 19.186563-10.980497c6.955617-29.541836 14.399691-58.98598 21.863303-88.410587 5.568402-21.960994 12.328637-43.628915 16.998278-65.765753 5.001792-23.738975 12.465404-46.774573 17.975192-70.337705 5.158098-22.019609 12.133254-43.628915 17.115508-65.6876 6.838388-30.303828 14.692765-60.33412 22.937907-90.247183 4.650104-16.920126-3.634115-32.238114-22.410375-31.261201-20.710546 1.211372-41.596937 0.214921-62.44425 0.21492z m138.721584-177.348706c37.728363 0 75.437188-0.136768 113.165551 0.136768 6.271779 0 8.596831-1.602137 8.323295-8.088836-0.468918-11.371262 0-22.762063-0.136768-34.133325 0-17.447658-6.584391-24.442352-23.953896-24.481429-70.572163-0.156306-141.124789 0-211.696952-0.195382-7.190076 0-8.792213 2.79397-8.655445 9.261131 0.33215 15.923675 0.44938 31.866888 0 47.790562-0.234459 7.561303 1.953825 10.003585 9.769126 9.925432 37.826054-0.351689 75.554417-0.11723 113.28278-0.136768z" fill="#2E56F9" p-id="5358"></path><path d="M183.464455 512.566482q0-168.47834-0.21492-336.976218c0-8.909443 2.188284-11.332186 11.234494-11.273571 59.572128 0.429842 119.183332 0.644762 178.735922 0 18.365956-0.214921 27.959237 9.04621 27.920161 28.213234q-0.664301 328.672462 0 657.344924c0 9.378361-2.110131 12.28956-11.722951 11.722951a330.450443 330.450443 0 0 0-43.921988 0c-10.511579 0.761992-12.074639-3.204273-12.016025-12.543557 0.410303-59.904278 0.253997-119.808556 0.214921-179.751911 0-15.337527 1.719366-13.207858-13.676776-13.286011-19.538251-0.097691-39.076502 0.507995-58.614753-0.253998-9.04621-0.351689-10.589732 2.774432-10.550656 11.019574 0.351689 60.568579 0.234459 121.137158 0.175844 181.705736 0 14.165232 1.953825 12.719402-13.246934 12.778017-14.321538 0-28.701691-0.644762-42.984153 0.273535-9.769126 0.644762-11.586183-2.911199-11.547106-12.016024q0.488456-168.458802 0.21492-336.956681z m150.210076-208.727137c0-21.78515-0.156306-43.5703 0.097691-65.335912 0-5.861475-1.602137-7.93253-7.717609-7.815301q-33.644869 0.488456-67.289737 0c-5.861475 0-7.8153 1.660751-7.815301 7.678533q0.33215 64.847456 0 129.71445c0 6.213164 1.56306 8.596831 8.166989 8.499139q33.215027-0.527533 66.312825 0c6.447623 0.097691 8.420986-1.953825 8.323295-8.342833-0.273536-21.472538-0.078153-42.945076-0.078153-64.398076z m-0.371227 211.657875c0-21.492076-0.175844-42.984153 0.117229-64.359 0-5.861475-1.309063-7.8153-7.502688-7.8153-22.429912 0.371227-44.937978 0.33215-67.289737 0-5.978705 0-7.8153 1.699828-7.815301 7.678533q0.351689 64.847456 0 129.694911c0 6.25224 2.34459 7.561303 8.010683 7.502689 22.097762-0.273536 44.215062-0.33215 66.312825 0 6.545314 0.097691 8.284219-2.110131 8.186527-8.401448-0.214921-21.374847 0-42.827847-0.019538-64.300385zM686.164121 562.701635v105.506556c0 61.193803-0.136768 122.407144 0.156306 183.659562 0 7.463612-1.602137 10.140352-9.534667 9.769125-15.923675-0.664301-31.905964-0.644762-47.829639 0-7.93253 0.312612-9.651896-2.34459-9.632358-9.769125q0.351689-145.032439 0.156306-290.045339c0-66.078366-0.11723-132.176269 0.156306-198.254635 0-7.541765-1.758443-9.94497-9.651896-9.769126-37.122677 0.429842-74.245355 0-111.368032 0.390765-8.186527 0-11.527568-1.504445-11.097726-10.570194 0.78153-16.568437 0.410303-33.215027 0.117229-49.803002-0.097691-5.763784 1.445831-8.030221 7.639457-8.010683 55.996628 0.214921 111.993256 0 168.02896 0.234459 14.829533 0 22.840216 8.362372 22.879292 23.01606 0 31.905964 0.488456 63.811928-0.293074 95.737431-0.214921 8.616369 3.90765 14.849071 6.994694 21.648382 2.207822 4.767333 5.861475 1.56306 8.635907-0.742454l64.847456-54.707103q20.495626-17.271814 41.030328-34.563166c3.145658-2.637664 5.021331-3.184735 8.381909 1.074603C826.546456 351.121913 838.269407 364.368847 849.992357 377.51809c4.142109 4.650104 4.103033 7.385459-0.840145 11.488492-39.076502 32.531188-78.055314 65.394527-117.229507 97.886638-4.278877 3.536423-3.90765 5.861475-1.660751 10.257582 15.786907 29.873986 31.261202 59.904278 46.891803 89.875956 20.593317 39.310961 41.460169 78.485155 61.936256 117.874269 15.103068 29.014303 28.916612 58.731983 45.13336 87.081986 5.685631 9.925432 2.46182 11.722951-5.177636 15.259374-14.458306 6.799311-28.838459 13.891697-42.749694 21.726535-5.373019 3.028429-7.8153 1.309063-9.94497-2.79397-13.422779-25.497418-26.650175-51.112065-40.014338-76.629021-14.653688-27.978776-29.502759-55.85986-44.078295-83.89725-13.676776-26.103104-26.865095-52.382051-40.385565-78.524232-4.35703-8.420986-9.026672-16.685667-13.540008-25.0285z" fill="#FEFEFE" p-id="5359"></path><path d="M516.200874 408.34945c20.847314 0 41.733705 0.918298 62.522403-0.253997 18.776259-1.055066 27.060478 14.282462 22.410375 31.261202-8.245142 29.932601-16.079981 59.943355-22.937907 90.247182-4.982254 22.058686-11.95741 43.667991-17.115508 65.687601-5.509787 23.582669-12.973399 46.618267-17.975192 70.337704-4.669642 22.136839-11.449415 43.824297-16.998278 65.765754-7.463612 29.424606-14.907686 58.868751-21.863303 88.410587-3.497347 14.868609-4.278877 15.435218-19.186563 10.980497s-30.381981-6.330393-45.13336-11.488492c-4.317954-1.504445-5.353481-1.953825-4.063956-6.838388 9.769126-36.829604 18.873951-73.874128 28.48677-110.762346 6.271779-24.071125 12.28956-48.25948 19.225639-72.1743 6.017781-20.769161 9.651896-42.222161 15.493833-63.030398 3.90765-14.008926 7.326844-28.135082 10.882806-42.222161 3.712268-14.731841 7.541765-29.444145 11.722951-44.058757 1.953825-6.564852-2.539973-5.275328-5.861475-5.275328-21.492076 0-42.984153-0.273536-64.476229 0.136768-6.838388 0.136768-8.909443-1.953825-8.714061-8.753136 0.468918-16.587975 0.390765-33.215027 0-49.803003-0.136768-6.271779 1.543522-8.401448 8.147451-8.26468 21.804688 0.429842 43.628915 0.097691 65.433604 0.097691z" fill="#FEFEFE" p-id="5360"></path><path d="M655.00061 231.078897c-37.728363 0-75.437188-0.214921-113.165551 0.195383-7.8153 0-10.062199-2.364128-9.769125-9.925432 0.488456-15.923675 0.371227-31.866888 0-47.790562-0.136768-6.467161 1.465369-9.280669 8.655445-9.261132 70.572163 0.214921 141.124789 0 211.696952 0.195383 17.369505 0 23.875743 7.03377 23.953896 24.481429 0 11.3908-0.33215 22.781601 0.136767 34.133325 0.253997 6.506238-2.051516 8.147451-8.323295 8.088836-37.747901-0.253997-75.476264-0.11723-113.185089-0.11723z" fill="#F2A019" p-id="5361"></path><path d="M333.674531 303.839345c0 21.492076-0.195383 42.984153 0.117229 64.358999 0 6.349932-1.953825 8.440525-8.323295 8.342833q-33.215027-0.527533-66.312824 0c-6.603929 0.097691-8.206066-2.285975-8.166989-8.499139q0.33215-64.847456 0-129.71445c0-6.017781 1.817057-7.8153 7.8153-7.678532q33.644869 0.44938 67.289737 0c6.115473 0 7.8153 2.051516 7.717609 7.8153-0.293074 21.824227-0.136768 43.589838-0.136767 65.374989zM333.303304 515.49722c0 21.492076-0.195383 42.984153 0.136768 64.358999 0.097691 6.291317-1.641213 8.518678-8.186528 8.401448-22.097762-0.351689-44.215062-0.293074-66.312824 0-5.685631 0-8.049759-1.250448-8.010683-7.502688q0.33215-64.847456 0-129.694912c0-5.978705 1.738904-7.8153 7.8153-7.678532 22.429912 0.33215 44.937978 0.351689 67.289738 0 6.213164-0.097691 7.60038 1.953825 7.502688 7.8153-0.410303 21.394385-0.234459 42.847385-0.234459 64.300385z" fill="#2E56F9" p-id="5362"></path></svg>