<?xml version="1.0" standalone="no"?><!DOCTYPE svg PUBLIC "-//W3C//DTD SVG 1.1//EN" "http://www.w3.org/Graphics/SVG/1.1/DTD/svg11.dtd"><svg t="1728530349540" class="icon" viewBox="0 0 1024 1024" version="1.1" xmlns="http://www.w3.org/2000/svg" p-id="2621" xmlns:xlink="http://www.w3.org/1999/xlink" width="32" height="32"><path d="M97.28 464.896c0 236.544 184.32 428.032 412.16 428.032 33.28 0 66.048-4.096 97.28-12.288 38.912 72.704 98.816 124.416 225.28 99.84v-72.704s-81.408-20.992-105.984-79.36c117.248-75.264 195.584-210.432 195.584-364.032 0-236.544-184.832-428.032-412.16-428.032C281.6 36.864 97.28 228.352 97.28 464.896z m204.8-53.76c0-147.456 94.208-267.264 210.432-267.264 116.224 0 210.432 119.296 210.432 267.264v110.08c0 71.68-22.016 136.192-58.368 184.32-45.056-49.664-116.224-90.112-206.336-84.992v83.968s60.928 2.56 102.912 76.288c-15.872 4.608-32.256 7.168-48.64 7.168-116.224 0.512-210.432-118.784-210.432-266.24V411.136z" fill="#B92B27" p-id="2622"></path></svg>