<?xml version="1.0" standalone="no"?><!DOCTYPE svg PUBLIC "-//W3C//DTD SVG 1.1//EN" "http://www.w3.org/Graphics/SVG/1.1/DTD/svg11.dtd"><svg t="1728529736304" class="icon" viewBox="0 0 1024 1024" version="1.1" xmlns="http://www.w3.org/2000/svg" p-id="2591" xmlns:xlink="http://www.w3.org/1999/xlink" width="32" height="32"><path d="M543.06133333 106.26844445h-0.56888888c0 0.56888889 0 0.56888889 0.56888888 0zM1.13777778 618.04088889c0.56888889 1.13777778 1.13777778 1.82044445 1.13777777 2.95822222 0-1.25155555-0.56888889-2.38933333-1.13777777-2.95822222z m732.04622222 9.44355556c34.92977778 0 62.80533333 28.44444445 62.80533333 62.80533333 0 13.65333333-4.096 26.05511111-11.83288888 36.18133333h0.56888888c34.92977778-58.59555555 55.06844445-127.31733333 55.06844445-200.24888889 0-216.17777778-174.76266667-390.94044445-390.94044445-390.94044444-216.17777778 0-390.94044445 174.76266667-390.94044444 390.94044444 0 70.42844445 19.00088889 136.87466667 51.54133333 193.64977778h0.56888889c-4.77866667-8.87466667-7.73688889-19.00088889-7.73688889-29.58222222 0-34.92977778 28.44444445-62.80533333 62.80533333-62.80533333 23.09688889 0 42.66666667 12.40177778 53.93066667 30.83377777-21.95911111-38.45688889-34.92977778-83.51288889-34.92977777-131.52711111 0-146.31822222 118.44266667-264.76088889 264.76088888-264.76088889S714.29688889 380.47288889 714.29688889 526.79111111c0 48.58311111-13.08444445 93.63911111-35.49866667 132.66488889 11.15022222-18.88711111 31.28888889-31.97155555 54.38577778-31.97155555z" fill="#28B75A" p-id="2592"></path><path d="M221.52533333 660.70755555c-0.56888889-1.13777778-1.13777778-1.82044445-1.82044444-2.38933333 0.56888889 0.56888889 0.56888889 1.70666667 1.82044444 2.38933333z" fill="#28B75A" p-id="2593"></path><path d="M796.55822222 690.85866667c0-34.92977778-28.44444445-62.80533333-62.80533333-62.80533334-23.66577778 0-43.80444445 13.08444445-54.49955556 31.97155556-45.51111111 78.848-130.84444445 132.096-229.14844444 132.096-97.16622222 0-181.81688889-52.67911111-228.01066667-130.84444444h-0.56888889c-10.69511111-19.56977778-31.40266667-33.22311111-55.06844444-33.22311112-34.92977778 0-62.80533333 28.44444445-62.80533334 62.80533334 0 13.08444445 4.096 25.48622222 11.264 35.49866666 66.90133333 114.34666667 191.94311111 191.26044445 334.62044445 191.26044445 142.79111111 0 267.15022222-76.45866667 335.872-190.69155556h-0.56888889c7.05422222-10.01244445 11.71911111-22.41422222 11.71911111-36.06755555z m-642.048 61.66755555c3.52711111 0.56888889 7.05422222 1.13777778 11.264 1.13777778-3.52711111 0-7.62311111-0.56888889-11.264-1.13777778z m-20.13866667-7.73688889c1.13777778 0.56888889 2.95822222 1.82044445 4.096 2.38933334-1.70666667-0.56888889-2.84444445-1.25155555-4.096-2.38933334z m8.30577778 4.77866667c2.95822222 1.13777778 5.91644445 2.38933333 9.44355556 2.95822222-3.52711111-1.25155555-6.48533333-1.82044445-9.44355556-2.95822222z m85.33333334-69.40444445c0.56888889 3.52711111 1.13777778 7.05422222 1.13777778 10.69511112 0-3.52711111-0.56888889-7.05422222-1.13777778-10.69511112z m-2.38933334-7.6231111c0.56888889 1.13777778 0.56888889 2.38933333 1.13777778 3.5271111 0-1.13777778-0.56888889-2.38933333-1.13777778-3.5271111z m446.00888889 7.6231111c-0.56888889 3.52711111-1.13777778 7.05422222-1.13777777 10.69511112 0-3.52711111 0-7.05422222 1.13777777-10.69511112z m1.82044445-8.87466666c-0.56888889 1.82044445-1.13777778 2.95822222-1.13777778 4.77866666 0.45511111-1.82044445 1.13777778-3.52711111 1.13777778-4.77866666z m70.99733333 81.23733333c-3.52711111 0.56888889-7.73688889 1.13777778-11.264 1.13777778 4.20977778 0 7.73688889-0.56888889 11.264-1.13777778z m31.97155555-16.04266667c-2.38933333 1.82044445-4.77866667 4.096-7.05422222 5.91644445 2.38933333-1.82044445 4.77866667-3.52711111 7.05422222-5.91644445z m-9.44355555 7.7368889c-2.38933333 1.13777778-4.77866667 2.95822222-7.05422222 4.096 2.27555555-1.70666667 4.66488889-2.95822222 7.05422222-4.096z m-10.01244445 4.66488888c-2.95822222 1.13777778-6.48533333 2.38933333-10.01244444 2.95822222 3.41333333-0.56888889 7.05422222-1.13777778 10.01244444-2.95822222z m22.41422223-15.36c1.82044445-2.38933333 4.096-4.096 5.34755555-6.48533333-1.70666667 2.38933333-3.52711111 4.66488889-5.34755555 6.48533333z" fill="#F8B616" p-id="2594"></path><path d="M676.97777778 677.888c0 34.70222222 28.10311111 62.80533333 62.80533333 62.80533333 34.70222222 0 62.80533333-28.10311111 62.80533334-62.80533333 0-34.70222222-28.10311111-62.80533333-62.80533334-62.80533333-34.70222222 0-62.80533333 28.10311111-62.80533333 62.80533333" fill="#289349" p-id="2595"></path><path d="M670.49244445 690.85866667c0 34.70222222 28.10311111 62.80533333 62.80533333 62.80533333 34.70222222 0 62.80533333-28.10311111 62.80533333-62.80533333S767.88622222 628.05333333 733.184 628.05333333c-34.58844445 0-62.69155555 28.10311111-62.69155555 62.80533334" fill="#F8B616" p-id="2596"></path><path d="M96.48355555 677.888c0 34.70222222 28.10311111 62.80533333 62.80533334 62.80533333 34.70222222 0 62.80533333-28.10311111 62.80533333-62.80533333 0-34.70222222-28.10311111-62.80533333-62.80533333-62.80533333-34.70222222 0-62.80533333 28.10311111-62.80533334 62.80533333" fill="#289349" p-id="2597"></path><path d="M102.96888889 690.85866667c0 34.70222222 28.10311111 62.80533333 62.80533333 62.80533333 34.70222222 0 62.80533333-28.10311111 62.80533333-62.80533333S200.47644445 628.05333333 165.77422222 628.05333333c-34.70222222 0-62.80533333 28.10311111-62.80533333 62.80533334M897.25155555 854.92622222c0 22.41422222 11.94666667 43.12177778 31.40266667 54.38577778 19.456 11.264 43.34933333 11.264 62.80533333 0s31.40266667-31.97155555 31.40266667-54.38577778-11.94666667-43.12177778-31.40266667-54.38577777a62.58915555 62.58915555 0 0 0-62.80533333 0c-19.34222222 11.264-31.40266667 31.97155555-31.40266667 54.38577777" fill="#F8B616" p-id="2598"></path></svg>