<?xml version="1.0" standalone="no"?>
<!DOCTYPE svg PUBLIC "-//W3C//DTD SVG 20010904//EN"
 "http://www.w3.org/TR/2001/REC-SVG-20010904/DTD/svg10.dtd">
<svg version="1.0" xmlns="http://www.w3.org/2000/svg"
 width="180.000000pt" height="180.000000pt" viewBox="0 0 180.000000 180.000000"
 preserveAspectRatio="xMidYMid meet">

<g transform="translate(0.000000,180.000000) scale(0.100000,-0.100000)"
fill="#000000" stroke="none">
<path d="M392 1443 c-120 -42 -174 -192 -113 -311 27 -52 54 -74 161 -132 104
-56 130 -79 130 -117 0 -81 -95 -102 -222 -48 -21 8 -40 15 -43 15 -2 0 -19
-28 -36 -61 -37 -75 -35 -77 73 -113 177 -59 339 -11 392 116 9 21 16 65 16
99 0 111 -41 162 -192 239 -54 28 -102 59 -108 70 -16 30 -12 64 10 88 26 28
95 29 166 3 l51 -18 31 63 32 64 -28 14 c-88 45 -236 59 -320 29z"/>
<path d="M870 1060 l0 -390 80 0 80 0 1 268 0 267 34 -70 c66 -135 177 -371
197 -417 l20 -48 104 0 104 0 0 390 0 390 -80 0 -80 0 -2 -267 -3 -266 -124
266 -125 267 -103 0 -103 0 0 -390z"/>
<path d="M1045 224 c-806 -231 -810 -232 -900 -190 -76 35 -118 89 -138 181
-3 11 -5 -33 -6 -97 l-1 -118 900 0 900 0 0 220 c0 121 -3 219 -7 219 -5 -1
-341 -97 -748 -215z"/>
</g>
</svg>
