<?xml version="1.0" standalone="no"?><!DOCTYPE svg PUBLIC "-//W3C//DTD SVG 1.1//EN" "http://www.w3.org/Graphics/SVG/1.1/DTD/svg11.dtd"><svg t="1727336963890" class="icon" viewBox="0 0 1024 1024" version="1.1" xmlns="http://www.w3.org/2000/svg" p-id="2418" xmlns:xlink="http://www.w3.org/1999/xlink" width="16" height="16"><path d="M620.715 895.83l-407.339 0.17-0.043-87.168 407.339-0.213 0.043 87.21zM896 402.132L826.325 0l-85.76 14.933 69.675 402.091L896 402.091zM630.528 696.832l-405.632-37.419-7.979 86.827 405.632 37.376 7.979-86.784z m26.752-113.75l-393.387-105.94-22.613 84.18 393.43 105.985 22.613-84.224z m51.37-99.711L357.76 276.053l-44.16 75.094 350.89 207.36 44.203-75.094z m86.017-61.014L565.163 85.12l-71.894 49.067 229.547 337.237 71.85-49.067z" fill="#FF810F" p-id="2419"></path><path d="M697.77 597.333v357.974H155.905V597.333h-70.57V1024H768V597.333z" fill="#BEBCBC" p-id="2420"></path></svg>