<?xml version="1.0" standalone="no"?><!DOCTYPE svg PUBLIC "-//W3C//DTD SVG 1.1//EN" "http://www.w3.org/Graphics/SVG/1.1/DTD/svg11.dtd"><svg t="1727337101511" class="icon" viewBox="0 0 1024 1024" version="1.1" xmlns="http://www.w3.org/2000/svg" p-id="7235" xmlns:xlink="http://www.w3.org/1999/xlink" width="16" height="16"><path d="M146.318 1024h146.318c0-80.782-32.768-146.318-73.045-146.318S146.318 943.218 146.318 1024z m585.046 0h146.318c0-80.782-32.768-146.318-73.046-146.318S731.364 943.218 731.364 1024z" fill="#303030" p-id="7236"></path><path d="M965.063 662.642c-39.822-7.282-85.106 28.217-124.928 98.304S751.161 876.999 640.57 876.999H382.976c-110.592 0-159.289-45.511-199.566-116.053S98.076 655.36 58.482 662.642A84.65 84.65 0 0 0 0 733.867v144.042a145.636 145.636 0 0 0 75.093 126.976A145.863 145.863 0 0 1 365.682 1024h73.045a73.045 73.045 0 1 1 146.318 0h73.046a145.863 145.863 0 0 1 290.588-19.342A145.636 145.636 0 0 0 1024 877.682V735.004c-7.964-38.456-30.72-66.9-58.937-72.362z" fill="#303030" p-id="7237"></path><path d="M877.682 0H146.318A146.318 146.318 0 0 0 0 146.318v459.207a126.52 126.52 0 0 1 45.511-19.57c33.678-6.599 120.377-6.143 200.477 134.486 26.168 45.511 51.2 78.507 136.533 78.507h258.275c85.334 0 110.592-32.54 136.534-78.507 80.1-140.402 166.798-141.085 200.476-134.485a127.431 127.431 0 0 1 45.511 19.797V146.318A146.318 146.318 0 0 0 877.682 0zM695.637 219.364H585.045V512a73.045 73.045 0 1 1-146.318 0V219.364H329.045a36.636 36.636 0 0 1 0-73.046h365.91a36.636 36.636 0 0 1 0 73.046z" fill="#FF002E" p-id="7238"></path></svg>