<?xml version="1.0" standalone="no"?><!DOCTYPE svg PUBLIC "-//W3C//DTD SVG 1.1//EN" "http://www.w3.org/Graphics/SVG/1.1/DTD/svg11.dtd"><svg t="1728268601280" class="icon" viewBox="0 0 1024 1024" version="1.1" xmlns="http://www.w3.org/2000/svg" p-id="7574" xmlns:xlink="http://www.w3.org/1999/xlink" width="32" height="32"><path d="M0 0m64 0l896 0q64 0 64 64l0 896q0 64-64 64l-896 0q-64 0-64-64l0-896q0-64 64-64Z" fill="#E20781" p-id="7575"></path><path d="M650.752 262.848a574.464 574.464 0 0 1-35.84-53.12c-3.904-7.04 1.152-23.296 7.04-31.552 6.976-9.856 19.264-15.744 30.912-24.576 14.08 19.648 28.992 40.128 43.584 60.864 18.944 26.88 21.568 33.536 3.2 48.384h143.744c1.408 35.52-9.28 47.936-40.96 48.512-39.424 0.64-78.912 0.128-118.144 0.128v136.64c39.424 0 76.864 0.896 114.24-0.384 20.48-0.64 33.792 2.624 32.64 27.328-0.96 24.064-12.864 23.296-32.832 21.568-36.416-3.2-73.28-0.896-112.192-0.896v115.648c39.424 0 77.952 1.28 116.352-0.448 21.888-0.96 30.272 7.68 29.44 28.16-0.896 22.656-14.592 25.6-34.048 24-36.416-2.944-72.96-3.84-111.744-5.76v136.32h156.8c1.92 32.512-8.96 47.616-37.312 48-118.4 1.152-236.736 1.088-355.072 1.856-24.064 0.192-32.96-12.992-33.152-34.624-0.256-34.048-0.128-68.032-0.128-102.016V435.712v-38.4c-36.032 43.52-67.2 76.8-62.912 132.736 5.44 71.488 1.472 143.744 1.28 215.68-0.128 42.688-21.312 64.448-64.192 65.088-45.312 0.64-90.624 0.128-137.856 0.128V260.608h199.936v94.72c9.152-10.24 13.952-13.888 16.64-18.752 26.56-47.36 53.44-94.72 78.848-142.72 21.696-41.024 30.784-46.144 84.48-35.328l-44.16 104.32h161.408zM284.992 744.96V317.888H219.328v427.072h65.664z m328.576 65.728v-131.328c-40.768 0-78.656-0.448-116.48 0.576-4.992 0.128-14.08 7.488-14.208 11.776-1.088 39.68-0.64 79.36-0.64 118.976h131.328z m-0.192-197.12c0-29.568 0.64-57.6-0.64-85.632-0.256-4.48-9.6-11.968-14.912-12.16a1657.856 1657.856 0 0 0-101.312 0c-4.864 0.128-13.44 6.848-13.632 10.752-1.152 28.8-0.64 57.6-0.64 87.04h131.2z m0-164.288c0-40.448 0.64-77.248-0.512-113.92-0.192-5.952-7.808-16.448-12.16-16.64-39.36-1.28-78.784-0.768-118.592-0.768V449.28h131.264z" fill="#FFFFFF" p-id="7576"></path></svg>